<svg xmlns="http://www.w3.org/2000/svg" viewBox="0 0 141.77 144"><defs><style>.cls-1{fill:#fff;}.cls-2{fill:#ffdc00;}.cls-3{fill:#231f20;}</style></defs><title>Asset 14</title><g id="Layer_2" data-name="Layer 2"><g id="Layer_1-2" data-name="Layer 1"><path class="cls-1" d="M70.82,144a10.12,10.12,0,0,1-9.43-6.43,19.14,19.14,0,0,0-3.62-5.51,14.56,14.56,0,0,0-2-2,13.17,13.17,0,0,0-2.32-1.54,12.63,12.63,0,0,0-2.81-1.08s0,0-.09,0l-1.16-.08H27.66a29.67,29.67,0,0,1-3.22-.32,10.25,10.25,0,0,1-2.82-.51,25,25,0,0,1-3.95-1.26,29.06,29.06,0,0,1-9.16-5.9,27.75,27.75,0,0,1-6.23-8.92A27.27,27.27,0,0,1,0,99.48L0,30C0,13.46,14.08,0,31.39,0h79c17.31,0,31.39,13.46,31.39,30l0,69.47a26.3,26.3,0,0,1-2.33,10.82,28.56,28.56,0,0,1-6.19,8.85,29.84,29.84,0,0,1-9,6,27.22,27.22,0,0,1-4.06,1.35,10.25,10.25,0,0,1-3,.53,28.37,28.37,0,0,1-3.15.32H93.63l-.94.07c-.41,0-.82,0-1.19.09a16.44,16.44,0,0,0-3.39,1.15,14.71,14.71,0,0,0-2.69,1.61,18.72,18.72,0,0,0-2.23,2,14.55,14.55,0,0,0-2.88,5.13A10.13,10.13,0,0,1,70.9,144Z"/><path class="cls-2" d="M29.52,46.33V30.39a1.82,1.82,0,0,1,1.87-1.75h79.45a1.82,1.82,0,0,1,1.87,1.75V46.33h18.94V30.39c0-11-9.52-19.89-21.27-19.89h-79c-11.75,0-21.26,8.91-21.26,19.89V46.33Z"/><path class="cls-2" d="M112.71,82.16V99.85H90a28.43,28.43,0,0,0-5.18.44,23.44,23.44,0,0,0-4.22,1.17,19.39,19.39,0,0,0-3.32,1.66A20.22,20.22,0,0,0,74.71,105a15.31,15.31,0,0,0-3.89,5.18A17.18,17.18,0,0,0,67,105a16.12,16.12,0,0,0-2.34-1.92,18.89,18.89,0,0,0-3-1.66,19.32,19.32,0,0,0-3.72-1.17,21.57,21.57,0,0,0-4.49-.44H29.52V82.16H10.14V99.85a16.89,16.89,0,0,0,1.42,6.88,17.43,17.43,0,0,0,4,5.67,18.73,18.73,0,0,0,6,3.85,16.9,16.9,0,0,0,3.3,1l0,.06h.49a23.38,23.38,0,0,0,2.82.32H49.83a24.24,24.24,0,0,1,3.3.39,22.36,22.36,0,0,1,5,1.92,24.13,24.13,0,0,1,4.08,2.72,24.59,24.59,0,0,1,3.15,3.14,29.48,29.48,0,0,1,5.44,8.49,24.66,24.66,0,0,1,5-8.49,30.43,30.43,0,0,1,3.46-3.14,24.91,24.91,0,0,1,4.48-2.72A26.67,26.67,0,0,1,89.39,118a32.07,32.07,0,0,1,3.81-.39h20.37a22.07,22.07,0,0,0,2.74-.32h.56l0-.07a17,17,0,0,0,3.3-1,19.62,19.62,0,0,0,6-4,18.45,18.45,0,0,0,4-5.7,16.33,16.33,0,0,0,1.45-6.7V82.16Z"/><path class="cls-3" d="M57.63,79.54a49.49,49.49,0,0,1-11-4.62,37.69,37.69,0,0,1-8-6l3.68-8.51a36.21,36.21,0,0,0,7.32,5.18,40.19,40.19,0,0,0,9.51,3.63,48,48,0,0,0,11.69,1.33,48,48,0,0,0,11.7-1.33,40.19,40.19,0,0,0,9.51-3.63,34.34,34.34,0,0,0,7.25-5.18l3.75,8.51a37.67,37.67,0,0,1-8,6,50.72,50.72,0,0,1-11,4.62,46.54,46.54,0,0,1-13.23,1.81A46.83,46.83,0,0,1,57.63,79.54Z"/><path class="cls-3" d="M58.63,47.23a5.65,5.65,0,0,0-5.83,6.51c0,.08,0,.17,0,.26a5.85,5.85,0,0,0,11.69,0v0a5.83,5.83,0,0,0,.08-.83A5.9,5.9,0,0,0,58.63,47.23Z"/><path class="cls-3" d="M89,53a5.91,5.91,0,1,0-11.81,0c0,.1,0,.2,0,.3a4.93,4.93,0,0,0,0,.54,5.83,5.83,0,0,0,11.63.56A5.69,5.69,0,0,0,89,53Z"/></g></g></svg>