<svg xmlns="http://www.w3.org/2000/svg" viewBox="0 0 121.52 123.74"><defs><style>.cls-1{fill:#ffdc00;}.cls-2{fill:#fff;}</style></defs><title>Asset 13</title><g id="Layer_2" data-name="Layer 2"><g id="Layer_1-2" data-name="Layer 1"><path class="cls-1" d="M19.39,35.83V19.88a1.8,1.8,0,0,1,1.86-1.74h79.46a1.8,1.8,0,0,1,1.86,1.74v16h18.94V19.88C121.52,8.9,112,0,100.26,0h-79C9.52,0,0,8.9,0,19.88v16Z"/><path class="cls-1" d="M102.58,71.66V89.35H79.87a28.4,28.4,0,0,0-5.17.44A21.9,21.9,0,0,0,70.48,91a19.88,19.88,0,0,0-3.33,1.66,21.72,21.72,0,0,0-2.57,1.91,15.54,15.54,0,0,0-3.89,5.18,17.1,17.1,0,0,0-3.82-5.18,16.65,16.65,0,0,0-2.34-1.91,18.89,18.89,0,0,0-3-1.66,17.92,17.92,0,0,0-3.73-1.17,21.47,21.47,0,0,0-4.48-.44H19.4V71.66H0V89.35a16.89,16.89,0,0,0,1.42,6.88,17.61,17.61,0,0,0,4,5.67,19,19,0,0,0,6,3.85,17.52,17.52,0,0,0,3.29,1v.05h.48a21.72,21.72,0,0,0,2.82.32H39.71a25.93,25.93,0,0,1,3.3.39,22.78,22.78,0,0,1,5,1.93,24.23,24.23,0,0,1,4.09,2.72,25.21,25.21,0,0,1,3.15,3.13,29.24,29.24,0,0,1,5.43,8.49,24.85,24.85,0,0,1,5-8.49,29.63,29.63,0,0,1,3.46-3.13,24.91,24.91,0,0,1,4.48-2.72,27,27,0,0,1,5.68-1.93,34.31,34.31,0,0,1,3.81-.39h20.37a20.51,20.51,0,0,0,2.74-.32h.56l0-.07a16.33,16.33,0,0,0,3.3-1,19.51,19.51,0,0,0,6-4,18.17,18.17,0,0,0,4-5.7,16.16,16.16,0,0,0,1.45-6.69V71.66Z"/><path class="cls-2" d="M47.51,69a49,49,0,0,1-11-4.63,37.34,37.34,0,0,1-7.95-6l3.68-8.51a36.61,36.61,0,0,0,7.32,5.18,39.76,39.76,0,0,0,9.51,3.62,47.82,47.82,0,0,0,11.69,1.34,48,48,0,0,0,11.7-1.34A39.76,39.76,0,0,0,82,55.09a35,35,0,0,0,7.25-5.18L93,58.42a37.4,37.4,0,0,1-8,6A50,50,0,0,1,74,69a46.78,46.78,0,0,1-13.22,1.81A47.09,47.09,0,0,1,47.51,69Z"/><path class="cls-2" d="M48.5,36.73a5.9,5.9,0,0,0-5.88,5.92,5.42,5.42,0,0,0,.06.58c0,.09,0,.17,0,.26a5.85,5.85,0,0,0,11.7,0v0a7.34,7.34,0,0,0,.08-.82A5.9,5.9,0,0,0,48.5,36.73Z"/><path class="cls-2" d="M78.9,42.52a5.9,5.9,0,0,0-11.8,0,2.77,2.77,0,0,0,0,.3,5.14,5.14,0,0,0-.06.55A5.83,5.83,0,0,0,78.71,44,5.82,5.82,0,0,0,78.9,42.52Z"/></g></g></svg>