<svg xmlns="http://www.w3.org/2000/svg" viewBox="0 0 401.51 310.45"><defs><style>.cls-1,.cls-2{fill:#ffdb00;}.cls-2{opacity:0.4;}.cls-3{fill:#fff;}.cls-4{fill:none;}.cls-5{fill:#f8bf2f;}</style></defs><title>Asset 15</title><g id="Layer_2" data-name="Layer 2"><g id="Layer_4" data-name="Layer 4"><path class="cls-1" d="M55.35,34.85h51.46a7.48,7.48,0,0,1,7.46,7.46V64.88a6.87,6.87,0,0,1-6.85,6.85H106.1l2.48,10.47L93,71.73H54.91a7.48,7.48,0,0,1-7.46-7.45V42.74A7.92,7.92,0,0,1,55.35,34.85Z"/><path class="cls-2" d="M23.24,260.42s-39.47-57.26-15.53-116.2c8.41-20.71,28.34-35.3,49-42.2a82.19,82.19,0,0,1,33.32-4.27c21.14,2,33.76,14.76,56,9A90,90,0,0,0,198.23,69c46.84-72.13,210.33-28.32,180.56,82.43C364.39,205,422.63,207,393,260.53Z"/><path d="M116.42,91.44a1.35,1.35,0,0,1-.77-.24L100.43,81H62.75a8.86,8.86,0,0,1-8.84-8.84V50.59a9.3,9.3,0,0,1,9.28-9.29h51.46a8.86,8.86,0,0,1,8.85,8.85V72.73A8.24,8.24,0,0,1,115.69,81l2.08,8.78a1.38,1.38,0,0,1-.56,1.46A1.35,1.35,0,0,1,116.42,91.44ZM63.19,44.08a6.51,6.51,0,0,0-6.5,6.51V72.13a6.07,6.07,0,0,0,6.06,6.06h38.1a1.36,1.36,0,0,1,.78.24l12.62,8.49-1.66-7a1.39,1.39,0,0,1,1.35-1.71h1.32a5.47,5.47,0,0,0,5.46-5.46V50.15a6.07,6.07,0,0,0-6.07-6.07Z"/><path d="M256.23,63.54c-1.79,12.55-3,25.44-2.38,38.11a72,72,0,0,0,4,21.15,55.47,55.47,0,0,0,15.91,23.51c1.25,1.06,2.75-1,1.5-2.07a52.3,52.3,0,0,1-15.92-25,76.63,76.63,0,0,1-3.09-20.85,222.55,222.55,0,0,1,2.48-34.59c.23-1.63-2.31-1.88-2.54-.26Z"/><path d="M273.43,143c-5.32-4.59-7.35-10.35-12.17-15.48a24.45,24.45,0,0,1-6.66-18.11c.41-18.81,5.38-37.16,3.89-56.09-1.28-16.41-7.29-33.11-20.74-43.44-5.13-3.93-13.31-7.58-19.94-5.28l-.21.06c-1.66-1.42-4.42-2.37-6.42-3.08A26.28,26.28,0,0,0,206,.28a1.31,1.31,0,0,0-.41-.06A40.71,40.71,0,0,0,192.84,1a49,49,0,0,0-32.92,24.14l-.09.17a60.17,60.17,0,0,0-8.51,22.32c-3.35,18.89-3.63,38.74-11,56.7-3.55,8.64-8.86,15.52-14.74,22.63a38.84,38.84,0,0,0-8.77,20.57c-.22,1.63,2.34,1.76,2.55.14a36.52,36.52,0,0,1,8.35-19.31c4.7-5.68,9.22-11.17,12.56-17.8,7-14,9-29.48,11-44.79-1.17,12.26-2.45,24.5-5.05,36.56a72.89,72.89,0,0,1-10.06,24,49.49,49.49,0,0,0-7.38,24.12,1.28,1.28,0,0,0,2.55.13c.6-9.71,3.43-17.21,8.54-25.34.17-.26.33-.53.49-.8a72.41,72.41,0,0,0-4.23,10.76c-1.65,5.82-2.87,13.09-.9,19,.51,1.54,3,1,2.49-.55-4.06-12.27,3.42-24.06,8.34-35.51-3.38,10.91-10.17,25.65,1.29,33.31,8.18,5.47,19.89,4.45,29.14,3.16a1.09,1.09,0,0,0,.94-1.38L270.76,144l.77.66C272.77,145.72,274.68,144,273.43,143Z"/><path class="cls-3" d="M307.35,183.64c-.35-.4-.79-1-1.26-1.68a2.14,2.14,0,0,0-.16-1.71c-1.26-2-3.07-5.53-7.32-8.11-1.86-4.16-4.91-6.93-9-10.31-6.7-5.58-11.53-16.92-25.35-21.55l.12,0s-1.29-.76-7.36-2.4a12.71,12.71,0,0,0-2.73.52c-.58,0-1.15-.08-1.75-.1-11.17,5.68-39.31,25.51-53.73,27.5a82.43,82.43,0,0,0-15.36-8.32l-.71-.33a159.17,159.17,0,0,1-13-16.15,18.63,18.63,0,0,1-.48-1.86l-.75.1c-.51-.73-.79-1.16-.79-1.16s-19.76,4.64-24.58,7.09c-8.36,4.25-15.45,13.44-19.17,20.44,0,0-36,65.23-37.89,80.43,70.64,4.94,181.31,19.33,181.31,19.33s2.94-22.34,3.48-28.81c.57-6.83-.59-9.95.63-19.61a29.16,29.16,0,0,0,4.7,6.21c.18,1.23.74,1.91,1.94,1.64a3.59,3.59,0,0,0,.48-.14c2.65-1,7.86-5.8,17.61-17.45,8-9.61,11.08-14.45,12.11-16.89.26-.13.51-.25.73-.38a3,3,0,0,0,1.67-1.54C310.89,187.15,308.84,185.36,307.35,183.64Z"/><path class="cls-3" d="M280.12,225.32l.14-.33-.47.15A2.68,2.68,0,0,0,280.12,225.32Z"/><path class="cls-1" d="M297.12,182.93c-.35-.41-.78-1-1.24-1.68a2.13,2.13,0,0,0-.16-1.71c-1.25-2-3-5.53-7.25-8.11-1.84-4.16-4.85-6.93-8.87-10.3-6.64-5.57-11.41-16.91-25.1-21.54l.12,0s-1.28-.76-7.29-2.39a11.92,11.92,0,0,0-2.71.51c-.57,0-1.14-.08-1.73-.1-11.07,5.69-36.22,24-50.51,26-25.16-10.29-26.08-25-26.08-25s-13.72-.27-24,7c-2.85,2-6.13,3.18-9.24,4.71a40.22,40.22,0,0,0-11.5,8.73,63.43,63.43,0,0,0-9.6,13.32q-2.64,4.86-5.25,9.72c-5,9.27-9.79,18.6-14.43,28a271.72,271.72,0,0,0-12.1,27.13c-.19.53-2.5,8.16-2.27,8.18,66.15,4.62,169.12,19.91,180.18,21.57a.93.93,0,0,0,1.06-.84c.35-3.86,1.65-18,2.36-23.56.83-6.47-.87-8.38.74-18.43a.93.93,0,0,1,1.58-.52c2.57,2.61,8,6.7,9.39,8.05,1.08,1.37,3.5.86,3.67.8,2.63-1,8.89-5.93,18.92-18.24a95.87,95.87,0,0,0,12.83-20.54C308.74,192.5,298.6,184.64,297.12,182.93Z"/><path d="M220.1,275.56l-.83-.15c-2.2,3.39-17.52,20.83-21.33,25.39-4.05,4.85-7.85,3.06-7.85,3.06L63.52,278l-3,.66c-.65,1-.49,3.09.11,3.24L190.67,308.6a8.48,8.48,0,0,0,7.76-3.07c4-4.55,20.06-23.27,21.55-25.58a.64.64,0,0,0,.1-.33l.2-3.77A.26.26,0,0,0,220.1,275.56Z"/><path d="M193.14,310.26a6.08,6.08,0,0,1-1-.12L60.42,282A2,2,0,0,1,59,280.57a5.86,5.86,0,0,1,.43-4.46l.33-.52,3.93-.92L192.37,302l.15.07c.1.05,3,1.28,6.26-2.87,1.14-1.44,3.28-4.06,5.77-7.1,5.69-7,14.29-17.48,15.82-19.95l.53-.86,1.78.33a1.82,1.82,0,0,1,1.36,1.95l-.2,4a2.43,2.43,0,0,1-.35,1.16c-1.64,2.64-18.19,23-22.06,27.59A10,10,0,0,1,193.14,310.26ZM61.51,280.61,191,307.15a7.08,7.08,0,0,0,6.42-2.61c4.08-4.64,19.25-22.35,21.29-25.23l0-.73c-3.07,3.87-9,10.8-14,16.6-2.43,2.83-4.53,5.27-5.64,6.59-4.21,5.05-8.39,3.87-9.34,3.51L63.53,279.54l-2,.43A3.47,3.47,0,0,0,61.51,280.61Z"/><path class="cls-1" d="M199.91,300.15c3.78-3.59,22.07-26,24.24-28.68L107.69,253.42a4.4,4.4,0,0,0-2.9.56l-38.6,25.71,125.91,23.4S195.88,304,199.91,300.15Z"/><path d="M192.66,306.65a5.76,5.76,0,0,1-.88-.11L62.36,282.49l41.73-27.8a5.73,5.73,0,0,1,3.81-.73l119,18.44-1.65,2c-3.41,4.18-20.6,25.23-24.37,28.82h0A11.13,11.13,0,0,1,192.66,306.65ZM70,280.9l122.33,22.74c.18,0,3.22.62,6.59-2.58h0c3.22-3.06,17.37-20.28,22.47-26.52L107.47,256.88a3,3,0,0,0-2,.37Z"/><path d="M310.37,188.19s3.79.27-12.21,19.38-19.78,19.8-20.07,15.47c-.37-5.69,6.26-16.44,10.49-21.8S301.1,188.36,310.37,188.19Z"/><path d="M310.31,189.32c-1.2-.13-.14-.82-.9.5a84.56,84.56,0,0,1-4.78,7.78c-4.1,5.6-8.61,11-13.24,16.11a65.66,65.66,0,0,1-8.95,8.85c-.87.65-2.26,2-3.11,1.18s.3-4.09.58-5a41.38,41.38,0,0,1,3.66-8c5.6-9.86,14.48-20.85,26.74-21.45,1.44-.07,1.57-2.32.12-2.25-10.91.53-19.57,8.56-25.43,17.17-3,4.45-6.09,9.42-7.48,14.68-.49,1.82-1.23,4.84.17,6.51,2.87,3.42,8.76-3.3,10.47-5a194.93,194.93,0,0,0,13.19-14.95,91.37,91.37,0,0,0,8.84-12.14c.67-1.18,3.33-5.93.24-6.26C309,186.91,308.87,189.16,310.31,189.32Z"/><path class="cls-3" d="M199.68,168.92c13.08,1.86,22-5.62,52-30-21.45-4.73-26.38-7.73-26.38-7.73L228,96.93s-4.65,15.1-12.33,23.84c-7.34,8.35-15.65,11.67-27.85,8.58l-.53,7.49-19,2.25S167.63,164.35,199.68,168.92Z"/><path d="M199.61,170.27c7.3,1,13.86-1.37,20-5.13,11.78-7.16,22.29-16.56,33-25.21a1.36,1.36,0,0,0-.47-2.29c-8-1.78-16.22-3.56-23.87-6.6-.43-.17-1.79-1.06-2.19-1,1.15-.26,0,2.07.67.33a10.35,10.35,0,0,0,.2-2.56L229.38,97a1.36,1.36,0,0,0-2.64-.49,72.6,72.6,0,0,1-9.9,20.63c-7,9.77-16.83,13.73-28.57,10.93a1.36,1.36,0,0,0-1.77,1.21l-.53,7.49,1.06-1.25-19,2.25a1.37,1.37,0,0,0-1.06,1.25,28.55,28.55,0,0,0,4.12,14.39c6,10.32,17.17,15.12,28.56,16.86,1.72.26,1.85-2.45.15-2.71-14.39-2.18-30.47-11.93-30.12-28.4l-1.06,1.25,19-2.25a1.35,1.35,0,0,0,1.06-1.25l.53-7.49-1.78,1.22c11.46,2.74,21.49,0,29.3-9,5.92-6.79,9.93-15.72,12.59-24.28l-2.64-.5L224,131.12a1.33,1.33,0,0,0,.61,1.2,28.52,28.52,0,0,0,5.2,2.16,192.14,192.14,0,0,0,21.49,5.72l-.48-2.28c-10.32,8.36-20.49,17.43-31.8,24.45-6,3.71-12.14,6.15-19.24,5.19C198,167.33,197.9,170,199.61,170.27Z"/><path class="cls-3" d="M236.29,69.89a1.21,1.21,0,0,1-1.39.71,1.86,1.86,0,0,1-.37-.1C224.89,66.81,218.28,56,213,47.68a200.11,200.11,0,0,1-10.12-18c-5,10.34-9.24,21.77-10.54,33.18a1.59,1.59,0,0,1-1.2,1.42c-10.62,2.81-20.21,1.65-30.75.22a123.55,123.55,0,0,0,.78,35.14c2.17,13,9.63,23.76,22.55,27.75,8.88,2.75,19.32-1,26.45-6.36,5.67-4.24,9.86-9.92,13.38-16,2.73-4.72,4.1-10,5.94-15.1a1.55,1.55,0,0,1,2.82-.22c1,2,4.12.73,5.4-.19,4.16-3,6.55-9,8.06-13.73,1-3,2.53-8.34.38-11.28C242.78,59.82,237.76,67,236.29,69.89Z"/><path d="M247.1,61.07c-5.11-3.56-10.22,1.71-12.76,6-8.93-4.13-15.29-15.39-20.1-23.28a202.52,202.52,0,0,1-10-18.31,1.54,1.54,0,0,0-2.64-.14C196,36.57,191.09,49,189.46,61.52c-10.4,2.51-19.85,1.13-30.31-.29a1.56,1.56,0,0,0-1.61,1.45,124.9,124.9,0,0,0-.37,29.81c1.24,11.54,3.8,23,13,30.85,13.59,11.59,31.76,9.28,44.71-2.22,8.72-7.74,12.87-17.52,16.72-28a7.15,7.15,0,0,0,5.92,0c6.62-2.86,10.29-12.39,11.86-18.82C250.41,70.21,251.16,63.9,247.1,61.07Zm-1.3,14.69c-1.51,4.68-3.9,10.72-8.06,13.73-1.28.92-4.37,2.21-5.4.19a1.55,1.55,0,0,0-2.82.22c-1.84,5.1-3.21,10.38-5.94,15.1-3.52,6.09-7.71,11.77-13.38,16-7.13,5.33-17.57,9.11-26.45,6.36-12.92-4-20.38-14.78-22.55-27.75a123.55,123.55,0,0,1-.78-35.14c10.54,1.43,20.13,2.59,30.75-.22a1.59,1.59,0,0,0,1.2-1.42c1.3-11.41,5.52-22.84,10.54-33.18a200.11,200.11,0,0,0,10.12,18c5.25,8.3,11.86,19.13,21.5,22.82a1.86,1.86,0,0,0,.37.1,1.21,1.21,0,0,0,1.39-.71c1.47-2.89,6.49-10.07,9.89-5.41C248.33,67.42,246.77,72.74,245.8,75.76Z"/><path d="M234.52,67.59c-11.3-.29-18.38-12.86-22.73-21.75A113,113,0,0,1,204.19,26a1.44,1.44,0,0,0-1.35-1.16,1.16,1.16,0,0,0-1.43.7l-.17.36h0v0c-5.52,11.41-8.4,25.42-5.25,37.83.48,1.9,3.48,1.26,3-.66-2.09-8.22-1.19-17.67,1.23-26a113.77,113.77,0,0,0,3.6,27.22c.47,1.92,3.46,1.27,3-.66a119.78,119.78,0,0,1-3.56-23.14c1.7,8.46,4.38,16.52,9.3,24.1,1.07,1.64,3.81.26,2.73-1.4a63.21,63.21,0,0,1-8.47-20.75c1.07,2.44,2.2,4.83,3.43,7.16,4.84,9.26,12.47,20.79,24.12,21.1C236.32,70.71,236.49,67.65,234.52,67.59Z"/><path d="M193,292.92c2.84-2.4,14.84-15.45,19.66-20.72a1.43,1.43,0,0,0-.83-2.38L110.62,255.34a4.26,4.26,0,0,0-2.58.43l-36.11,18.6,114.12,20.86A8.73,8.73,0,0,0,193,292.92Z"/><path d="M186.64,295.67c-.39,0-.63-.07-.67-.07L70.78,274.54l37.09-19.11a4.77,4.77,0,0,1,2.81-.46l101.21,14.48a1.74,1.74,0,0,1,1.41,1.17,1.8,1.8,0,0,1-.36,1.83c-5,5.44-16.86,18.35-19.7,20.75A9.47,9.47,0,0,1,186.64,295.67ZM73.08,274.19l113,20.67a8.44,8.44,0,0,0,6.64-2.23h0c2.81-2.38,14.66-15.26,19.62-20.68a1.07,1.07,0,0,0,.22-1.08,1,1,0,0,0-.82-.67L110.57,255.71a4.09,4.09,0,0,0-2.36.39Z"/><path class="cls-4" d="M299.62,179a7,7,0,0,1,3.16-.68,18.15,18.15,0,0,0-1.94-2.45c-1.2-1.25-2.38-2-3.38-3.1l-.08,0a12,12,0,0,0-4,.63c-6.26,2-11.92,6.23-17.1,10.13-1.5,1.13-3.47-1-2-2.18,5.6-4.22,11.65-8.68,18.43-10.81a20.29,20.29,0,0,1,2.59-.67c-2.4-3.12-5.24-5.47-8.14-8.28-4.32-4.19-7.53-9.37-12-13.4a32.21,32.21,0,0,0-9.25-5.85l-1.55-.61c-9.07,2-17.78,8.15-24.78,13.89A76.4,76.4,0,0,1,221.32,167c-5.67,2.48-11.55,4.42-17.43,6.35-1.7.63-3.41,1.22-5.1,1.89a1.56,1.56,0,0,1-1.76-.32c-7-6.07-16.82-7.33-23.86-13.46-5.93-5.16-11.23-12.43-11.57-20.51-2.09.46-4.18,1-6.24,1.54a41.3,41.3,0,0,0-19.59,11.84c-5.3,5.43-8.84,11.62-12.37,18.19q-6.12,11.42-12,23c-5,9.74-9.83,19.53-14.3,29.5-2.76,6.18-6.24,12.92-7.48,19.71,16.41,1.18,32.79,2.65,49.15,4.27q63.85,6.28,127.51,14.65c.82-6.33,1.63-12.66,2.38-19,.85-7.22.71-14.22,1-21.45.05-1.46,0-3,.14-4.61l-7.67-13.39c-.95-1.64,1.67-3,2.6-1.34l4.5,7.84c.39-7,5-13.89,9.81-18.51A72.22,72.22,0,0,1,299.62,179Zm-160.17-7.47q-.87-7.31-1.72-14.62c-.22-1.87,2.64-2.5,2.86-.63q.87,7.31,1.72,14.62C142.53,172.73,139.67,173.36,139.45,171.49Z"/><path class="cls-3" d="M306,184.51c-.89-1.1-1.8-3.11-3.37-3.38-1.17-.21-3.08.73-4.92,1.82a18.84,18.84,0,0,1,5.46,5.67,48.6,48.6,0,0,0-5.58,4c-13.76,10.91-16.78,21.51-18.7,27.66,3-6.68,6.31-13.28,11-18.87a42,42,0,0,1,10.52-9.06c2.14-1.29,6.6-1.48,8.43-3.52C308.72,187,306.86,185.56,306,184.51Z"/><path class="cls-1" d="M298.83,193.69c1.55-1.24,4.23-2.27,6-3.23a32.61,32.61,0,0,0-7.07-7.51c-1.61,1-3.16,2-4.11,2.54a60.55,60.55,0,0,0-13.48,10.67c-4.11,4.22-8.79,11.33-8,17.57.37,3,3.1,6.77,5.79,8.91.33-.77.67-1.54,1-2.31C281.9,214.41,285.06,204.6,298.83,193.69Z"/><path d="M312,188c-.42-2.25-2.66-4.75-4.5-6.69a4,4,0,0,0-.3-1.45,2.06,2.06,0,0,0-.16-.34,28.35,28.35,0,0,0-5.55-7.05c-3.07-2.61-4.92-6.42-8-9.22A145.13,145.13,0,0,1,282,151a41.4,41.4,0,0,0-13.18-10.64,49.14,49.14,0,0,0-5.53-2.25,14.94,14.94,0,0,0-8.55-1.47,8.43,8.43,0,0,0-4.24,1.23l-1,.67c-4.82,2.41-9.19,6-13.46,9.14a115.68,115.68,0,0,1-20.7,12.52q-7.56,3.45-15.33,6.42a71.51,71.51,0,0,0-16.43-9.7,22.5,22.5,0,0,1-9.21-8.45,46.64,46.64,0,0,1-4.1-10.78,1.5,1.5,0,0,0-1.75-1.11c-9.64,1.63-20.13,3.54-28.05,9.59S127,159.79,122.34,168.35c-9.26,17.17-18.31,34.5-26.46,52.24-3.65,7.93-8.25,16.6-9.43,25.38a1.48,1.48,0,0,0,1.38,1.54C143,251.39,198,258,252.9,264.87q7.28.92,14.54,1.85a1.48,1.48,0,0,0,1.54-1.39q1.18-9,2.28-18a197.54,197.54,0,0,0,1.24-22.14c0-1.23.07-2.46.15-3.69a18.13,18.13,0,0,0,5.08,4.62,1.49,1.49,0,0,0,2.19-.76c3.57-8.43,7.52-17.19,13.92-23.89a39.18,39.18,0,0,1,11-8.12c2.34-1.15,5.43-1.93,6.87-4.25a1.41,1.41,0,0,0,.18-.45.64.64,0,0,1,0-.07,1.11,1.11,0,0,0,0-.17A2.08,2.08,0,0,0,312,188Zm-79.1-34.3c5.79-4.09,11.28-8.81,17.54-12.18,2.86-1.53,5.2-2.54,8.39-1.62l.67.19c-8.44,2.94-16.34,8.72-22.95,14.25a74.09,74.09,0,0,1-21.76,12.26c-3.55,1.35-7.15,2.55-10.76,3.72-.08,0,1.22.95.17.19a9.09,9.09,0,0,1-1-1.11l-.52-.56C213.16,164.71,223.58,160.19,232.86,153.65Zm-65-13.27c1.86,8.18,7.19,15.75,14.8,19.35a79.53,79.53,0,0,1,15.22,8.62,16.8,16.8,0,0,1,1.62,1.42l1.45,1.57-2.59,1c-6.07-4.79-13.93-6.3-20.24-10.64-6.67-4.58-13.29-12.38-13.6-20.84Zm101.31,71.29-4.5-7.84c-.93-1.63-3.55-.3-2.6,1.34l7.67,13.39c-.12,1.56-.09,3.15-.14,4.61-.27,7.23-.13,14.23-1,21.45-.75,6.34-1.56,12.67-2.38,19Q202.63,255.34,138.75,249c-16.36-1.62-32.74-3.09-49.15-4.27,1.24-6.79,4.72-13.53,7.48-19.71,4.47-10,9.33-19.76,14.3-29.5q5.9-11.53,12-23c3.53-6.57,7.07-12.76,12.37-18.19a41.3,41.3,0,0,1,19.59-11.84c2.06-.56,4.15-1.08,6.24-1.54.34,8.08,5.64,15.35,11.57,20.51,7,6.13,16.85,7.39,23.86,13.46a1.56,1.56,0,0,0,1.76.32c1.69-.67,3.4-1.26,5.1-1.89,5.88-1.93,11.76-3.87,17.43-6.35a76.4,76.4,0,0,0,18.25-11.46c7-5.74,15.71-11.87,24.78-13.89l1.55.61a32.21,32.21,0,0,1,9.25,5.85c4.51,4,7.72,9.21,12,13.4,2.9,2.81,5.74,5.16,8.14,8.28a20.29,20.29,0,0,0-2.59.67c-6.78,2.13-12.83,6.59-18.43,10.81-1.51,1.14.46,3.31,2,2.18,5.18-3.9,10.84-8.11,17.1-10.13a12,12,0,0,1,4-.63l.08,0c1,1.12,2.18,1.85,3.38,3.1a18.15,18.15,0,0,1,1.94,2.45,7,7,0,0,0-3.16.68A72.22,72.22,0,0,0,279,193.16C274.2,197.78,269.58,204.69,269.19,211.67Zm31.24-19.27a42,42,0,0,0-10.52,9.06c-4.7,5.59-8.06,12.19-11,18.87-.34.77-.68,1.54-1,2.31-2.69-2.14-5.42-5.89-5.79-8.91-.76-6.24,3.92-13.35,8-17.57a60.55,60.55,0,0,1,13.48-10.67c.95-.52,2.5-1.59,4.11-2.54,1.84-1.09,3.75-2,4.92-1.82,1.57.27,2.48,2.28,3.37,3.38s2.62,2.39,2.85,4.37C308.31,189.38,302.57,191.11,300.43,192.4Z"/><path d="M142.36,173.77c-.22-1.87-3.09-1.23-2.87.63q.85,7.31,1.72,14.63c.22,1.87,3.08,1.23,2.86-.63Z"/><path class="cls-1" d="M178.14,161.66c6.31,4.34,14.17,5.85,20.24,10.64l2.59-1-1.45-1.57a16.8,16.8,0,0,0-1.62-1.42,79.53,79.53,0,0,0-15.22-8.62c-7.61-3.6-12.94-11.17-14.8-19.35l-3.34.44C164.85,149.28,171.47,157.08,178.14,161.66Z"/><path class="cls-1" d="M204.16,170.46c1.05.76-.25-.17-.17-.19,3.61-1.17,7.21-2.37,10.76-3.72a74.09,74.09,0,0,0,21.76-12.26C243.12,148.76,251,143,259.46,140l-.67-.19c-3.19-.92-5.53.09-8.39,1.62-6.26,3.37-11.75,8.09-17.54,12.18-9.28,6.54-19.7,11.06-30.25,15.14l.52.56A9.09,9.09,0,0,0,204.16,170.46Z"/><path class="cls-1" d="M226.22,103.74c-.4,15.78-8.34,42.65-38,39.22.53-6.45.82-11.94.82-11.94s7.47,2.26,19.7-4.48c4.21-2.32,8.24-7.08,8.63-7.59a77.58,77.58,0,0,0,5-7.18A38.58,38.58,0,0,0,226.22,103.74Z"/><path class="cls-1" d="M160.4,64.45a135.5,135.5,0,0,0,18.37,1.37,46.21,46.21,0,0,0,12.43-1.74,1.43,1.43,0,0,0,.76-.89c.34-2.53.54-3.64.77-5A85.05,85.05,0,0,1,194.94,49a53.13,53.13,0,0,0,.19,9.11c.54,3.71.81,5.74,1.66,6.28a1.35,1.35,0,0,0,2.08-1.22,43.2,43.2,0,0,1-1.19-9.76,55,55,0,0,1,2.57-17,141.05,141.05,0,0,0,2,20.18c.69,3.48,1.23,5.76,1.75,7.67a1,1,0,0,0,.23.43,1.44,1.44,0,0,0,2.54-.8c-1.92-8.11-3.76-18.23-3.61-24.53a89.07,89.07,0,0,0,4.39,15.1c1.45,3.49,4.39,9.77,5.92,10.54.64.5,2.62-.26,1.71-1.77-.57-.8-1.56-2.55-2.16-3.64a65,65,0,0,1-6.68-18.8c3.93,8.84,13.39,30.32,28.75,29.87-.71,2-3.87,2-7.19.45a37,37,0,0,1-9.3-7A52.7,52.7,0,0,1,210.46,52a47.41,47.41,0,0,0,2.79,6.25c1.28,2.36,2.74,4.55,3,5,1.69,3.15-1.9,4.31-3,2.88a58.23,58.23,0,0,1-5.79-9.91A41,41,0,0,1,204,44.77c0,.58.52,4.93,1.27,8.92s1.7,7.36,1.79,7.64c1,3,.07,4-.59,4.2a2.58,2.58,0,0,1-2.4-.17c-.71-.49-1.07-1.62-1.52-3.36a82.55,82.55,0,0,1-2-11c-.59-5.6-.62-11-.62-11s-2.92,8.25-.32,23.29c.84,3.29-2.81,3.53-3.69,2.41-1-1.7-1.63-10.1-1.76-10a30.33,30.33,0,0,0-.44,8.47A5.74,5.74,0,0,1,193.3,66c-.43.55-1,1.26-3.53,1.72-7.58,1.37-14.93,2.85-29.71-.11Z"/><path class="cls-3" d="M304.75,192.74s29.56,42.86,33.62,54c3.21,8.82,5.2,19.87-3.28,25.73s-68,7.6-99.68-1.07c-5.67.41-4.4,3.34-11.69,3.89s-12.3-1-14.31.74S195.86,293,195.86,293l.3-17,.39-22.29a46.82,46.82,0,0,0,8.4-.23c3.66-.55,19.55-2.8,23.47-3.06s17.55-1,35.61-1.67a279.84,279.84,0,0,0,33.57-3.3l-15.91-26S291.28,197.54,304.75,192.74Z"/><path d="M194.2,297.79,195,252l1.66.11a44.15,44.15,0,0,0,8.05-.21c3.18-.47,19.47-2.8,23.6-3.07,3.67-.25,17.24-1,35.66-1.68a282.6,282.6,0,0,0,31-2.9l-15.31-24,.34-.77c.41-1,10.27-23.28,24.23-28.25l1.14-.41.68,1c1.31,1.89,29.73,43.2,33.81,54.44,4.8,13.2,3.5,22.48-3.86,27.57-8.92,6.17-68.46,8-100.72-.78a7.37,7.37,0,0,0-4,1.46c-1.48,1-3.16,2.09-7.44,2.42a61.11,61.11,0,0,1-8.05,0c-2.49-.13-4.65-.24-5.34.36-1.37,1.2-8.9,10.87-13.33,16.69Zm3.9-42.47-.58,32.91c3.63-4.7,9.38-12.07,10.86-13.35,1.65-1.43,4.13-1.31,7.57-1.14a56.7,56.7,0,0,0,7.64,0,10.36,10.36,0,0,0,5.95-1.9,10.54,10.54,0,0,1,5.76-2h.27l.26.07c32.7,8.95,90.86,6.48,98.36,1.29,6.12-4.23,7-12,2.7-23.89-3.61-9.94-28-45.8-32.73-52.7C293.38,199.38,285,216.17,283.23,220l17,26.6-2.35.41a287,287,0,0,1-33.79,3.32c-18.38.64-31.9,1.42-35.56,1.67s-19.17,2.42-23.34,3A44,44,0,0,1,198.1,255.32Z"/><path d="M209.21,262.86a17.42,17.42,0,0,0-7.62,3.95c-2.9,2.76-4.51,7.21-6.6,10.61-.91,1.49,1.35,3,2.26,1.49,1.87-3.05,3.34-6.73,5.59-9.48a13.45,13.45,0,0,1,7-3.93c1.68-.43,1.11-3.07-.59-2.64Z"/><path d="M199.65,259.77a8.23,8.23,0,0,0-5.19,5c-.59,1.64,2,2.49,2.57.85a5.29,5.29,0,0,1,2-2.62,6.36,6.36,0,0,1,1-.53l.33-.14c.22-.11-.33.11-.13.05a1.4,1.4,0,0,0,1-1.62,1.36,1.36,0,0,0-1.61-1Z"/><path class="cls-1" d="M233.34,242.87s-3,.71-2.6,4.44c3.62,3.45,6.71,6.59,8.7,6.93,1.6.28,10.08.79,13.39,1a2.63,2.63,0,0,0,2.62-1.62,3.12,3.12,0,0,0-.78-3.41l-7.61-5.58Z"/><path d="M233.1,241.77c-2.21.62-4.07,3.12-3.48,5.48.45,1.82,3,3.42,4.34,4.65a14.85,14.85,0,0,0,4.49,3.23c3.14,1.11,7.08.77,10.37,1,2.79.17,6.77,1,7.8-2.51.79-2.73-1.24-4.28-3.13-5.67s-3.91-3.55-6.08-4.39c-1.87-.73-4.44-.58-6.42-.83l-7.59-1c-1.44-.19-1.55,2.07-.12,2.25l9.72,1.23a20.83,20.83,0,0,1,3.95.5c-1-.36.55.6.79.78l2.5,1.83,2.51,1.84c1.28.93,1.43.59.37,2.39-1.17,2-2,1.42-4.19,1.29l-4.33-.29c-2.5-.18-4.9-.07-7-1.56-1.54-1.09-8.79-6.69-4-8C235,243.58,234.5,241.38,233.1,241.77Z"/><path d="M233.83,243.48l12.6,1.56a2.62,2.62,0,0,1,1.31.54l6.85,5.17a.45.45,0,0,1-.3.8l-12.21-.64a3.08,3.08,0,0,1-1.69-.68l-6.93-5.92A.47.47,0,0,1,233.83,243.48Z"/><path d="M241.14,253l12.14.85s-3.23,22.92-11.28,22.78a9.55,9.55,0,0,1-8.53-3.29s2.13-.16,4.3-3.83A29.11,29.11,0,0,0,241.14,253Z"/><path d="M241.08,254.11l12.14.85-1.06-1.19a64.65,64.65,0,0,1-3.41,13.58c-1,2.55-2.37,6.25-4.95,7.63-3,1.58-7.52.18-9.49-2.42l-.6,1.86c2.79-.38,4.74-3.63,5.82-5.86A31.36,31.36,0,0,0,242.27,253c-.09-1.43-2.34-1.56-2.25-.11a30.76,30.76,0,0,1-1.66,12.62c-.81,2.18-2.44,6.3-5.13,6.67a1.14,1.14,0,0,0-.6,1.85c2.18,2.87,6.34,4.1,9.8,3.65,3.15-.42,5.14-2.88,6.6-5.53,3-5.51,4.49-12.1,5.38-18.3a1.13,1.13,0,0,0-1.07-1.18l-12.14-.85A1.13,1.13,0,0,0,241.08,254.11Z"/><path class="cls-1" d="M239.39,266a4.64,4.64,0,0,0,3.59,3.23c3,.81,6.37.49,7.18-1a6.08,6.08,0,0,1-3,4.78c-1.23.67-6.14.83-9-2.42a2.82,2.82,0,0,1-.35-3.13C238.42,266.38,239.15,265.34,239.39,266Z"/><path d="M238.29,266.26c1.43,4.52,9.83,6.68,12.81,2.62L249,268.2c-.42,2.57-1.92,4.24-4.54,4.1a8.73,8.73,0,0,1-3.06-.73,6.44,6.44,0,0,1-1.58-.93c-1-.88-1.89-3.09-.14-3.83l-1.36-.25.2.21c1,1.07,2.67-.44,1.68-1.51l-.2-.21a1.16,1.16,0,0,0-1.35-.25c-1.89.8-2.67,3.74-1.94,5.5.88,2.16,3.49,3.46,5.63,4,4.69,1.09,8.12-1.12,8.91-5.94.2-1.19-1.47-1.5-2.07-.68-1.72,2.36-7.89.75-8.72-1.86C240.06,264.41,237.85,264.87,238.29,266.26Z"/><path class="cls-1" d="M288.47,210.78s-1.31,1.4-5.25,9.47c3,5.46,14.95,23.05,14.95,23.05s1.57-.36,7.54-1.38C296.62,221,288.47,210.78,288.47,210.78Z"/><path d="M317.44,241.23c-6.8-.35-13.65,1.16-20.28,2.44-2.14.42-1.42,3.72.73,3.31,6.34-1.23,12.87-2.71,19.37-2.37a1.69,1.69,0,0,0,.18-3.38Z"/><path class="cls-1" d="M234.94,77.8s3.72-11,7.45-10.28c3.17.64.29,5.72.29,5.72s-4.28,14-7.56,13.11S234.94,77.8,234.94,77.8Z"/><polygon class="cls-4" points="235.06 86.14 235.06 86.13 235.06 86.13 235.06 86.14"/><path class="cls-4" d="M235.06,86.13h0l0,0Z"/><path d="M244.89,67.86c-.53-1.81-2.66-2.09-4.14-1.3C238,68,236.19,71.7,235,74.47c-.53,1.21,1.41,1.84,1.94.65a61.12,61.12,0,0,1,3.6-5.77c.56-.58,2-1.93,2.47-.68.34,1-.48,2.76-.86,3.68-.49,1.22,1.45,1.86,1.94.65C244.67,71.49,245.35,69.48,244.89,67.86Z"/><path d="M238.33,81.86c-.64,1.45-1.48,3.58-3,4.29.07,0-.22,0-.13,0s0,0-.11,0h0l-.05,0,0,0a1,1,0,0,0-1.5,1.37,2.32,2.32,0,0,0,2.35.59c2.29-.65,3.52-3.65,4.37-5.59C240.8,81.3,238.85,80.66,238.33,81.86Z"/><path d="M235.06,86.13c.08,0-.13-.15,0,0Z"/><polygon points="235.06 86.13 235.06 86.13 235.05 86.13 235.06 86.13 235.06 86.13"/><ellipse cx="168.11" cy="82.76" rx="4.74" ry="3.29" transform="translate(76.67 246.31) rotate(-87)"/><ellipse cx="198.89" cy="82.67" rx="4.74" ry="3.29" transform="translate(105.92 276.96) rotate(-87)"/><path class="cls-1" d="M180.08,91.35c-.25-.37-1.19-.09-1.84.55-.48.47-1.32,2.46-.78,3.57.91,1.89,2.45,2.28,3.36,1.59S181,92.63,180.08,91.35Z"/><path d="M165.85,71.93a7,7,0,0,1,1.43-.71,3.93,3.93,0,0,1,4,1c1.2,1.1,3.11-.6,1.9-1.71a6.77,6.77,0,0,0-9-.47c-1.3,1,.41,2.9,1.71,1.9Z"/><path d="M197.09,72.85a7,7,0,0,1,1.43-.71,3.94,3.94,0,0,1,4,1c1.2,1.1,3.11-.6,1.89-1.71a6.78,6.78,0,0,0-9-.47c-1.3,1,.42,2.9,1.71,1.9Z"/><path d="M190.6,103.76a35.92,35.92,0,0,1-10.13,2.2c-4.38.75-2,5.82.32,7.85a9.13,9.13,0,0,0,4,2c.55-2.14,1.94-6.06,4.95-6.67a11.52,11.52,0,0,1,6.37.62,14.07,14.07,0,0,0,.6-2.11C197.21,105.1,195.77,101.76,190.6,103.76Z"/><path class="cls-1" d="M189.72,109.09c-3,.61-4.4,4.53-4.95,6.67a9.51,9.51,0,0,0,6.45-.64,9.84,9.84,0,0,0,4.87-5.41A11.52,11.52,0,0,0,189.72,109.09Z"/><path d="M181.47,73c-.67-1.5-2.94-.33-2.27,1.17a23.86,23.86,0,0,1,1.45,12.51,1.77,1.77,0,0,0,0,.23.14.14,0,0,1,0,.06c-.35,2.08-1,2.29-2.47,3.31a4.63,4.63,0,0,0-1.93,3.1,5.5,5.5,0,0,0,4,6.48c1.59.37,2.41-2,.81-2.43a3.09,3.09,0,0,1-2.32-2.16c-.38-1.67.41-2.54,1.65-3.31,1.79-1.11,2.48-2.77,2.84-4.86a1.15,1.15,0,0,0,0-.26s0,0,0,0A26.3,26.3,0,0,0,181.47,73Z"/><path d="M273.27,142.78c-12.35-1.15-23-7.57-30.87-17.67-4.61-6-6.44-14.22-8-21.44-.9-4.2-1.66-8.44-2.15-12.7a.25.25,0,0,1,0-.08s0-.06,0-.09a1,1,0,0,0-1.22-1,1.15,1.15,0,0,0-1.24.84,105,105,0,0,1-6.62,17.17c-2.5,4.81-1.91,10.69-1,15.94,1.83,10.14,6.21,19.92,15.7,24.84,12.61,6.53,24.53,4.15,35.89-3.43A1.29,1.29,0,0,0,273.27,142.78Z"/><path class="cls-5" d="M210.54,43.41c1.46,4,8.43,17.25,15.76,21.65A156.93,156.93,0,0,1,210.54,43.41Z"/><path class="cls-5" d="M169.51,22c-7.87,7.12-11.36,16.7-8.87,31C161.9,38.7,163.07,32.82,169.51,22Z"/><path class="cls-5" d="M179.07,11.88c-3.5,0-8.16,4.65-8.54,8.15C173.35,15.88,175.19,14.55,179.07,11.88Z"/><path class="cls-5" d="M254.81,98.59s-1,10.62.62,17.81,6.24,13.78,8.42,17.25C256.1,126.84,250.26,118.86,254.81,98.59Z"/><path d="M231.32,8.82c11.38,5.28,19.31,20,22.8,31.78,4.88,16.52,3,33.11,3.27,50,.2,12,1.19,25.31,8.11,35.59,3.38,5,8.4,8.33,13.17,11.9,7.32,5.48,12.78,11.92,15.71,20.7.51,1.54,3,1.07,2.51-.49a41.34,41.34,0,0,0-11.31-17.86c-4.5-4.12-9.9-7.16-14.32-11.36-10.31-9.83-11.21-26.34-11.34-39.64-.17-16.55,1.51-32.73-3.16-48.88-2.73-9.48-7.24-18.6-14-25.86-3-3.22-6.54-6.44-10.58-8.31-1.49-.7-2.34,1.71-.86,2.4Z"/><path d="M188.16,145.21l.79-15.34a1.35,1.35,0,0,0-2.7-.14l-.79,15.34a1.35,1.35,0,0,0,2.7.14Z"/><path class="cls-3" d="M59.94,284.66,191.85,309a5.27,5.27,0,0,0,6.34-5.07l-.51-103.69s.36-6.92-7.77-7.21c-10.07-.66-125.4-7.65-128-7.79s-6.7,1-6.86,5.27c.26,6.43,2.82,81.48,3.41,92.54A1.78,1.78,0,0,0,59.94,284.66Z"/><path d="M192.51,310.45a7.4,7.4,0,0,1-.93-.12L59.66,286A3.19,3.19,0,0,1,57,283.09c-.41-7.7-1.76-45.94-2.65-71.24-.38-10.82-.68-19.36-.76-21.32v-.1a6.3,6.3,0,0,1,2.17-4.68,9.23,9.23,0,0,1,6.22-1.9c3,.15,118.39,7.15,128,7.79a9.81,9.81,0,0,1,6.84,2.66,8.55,8.55,0,0,1,2.3,5.95l.52,103.67a6.41,6.41,0,0,1-2.54,5.1A7,7,0,0,1,192.51,310.45ZM60.21,283.31l131.92,24.32a3.94,3.94,0,0,0,3.13-.74,3.74,3.74,0,0,0,1.47-3l-.51-103.76a6,6,0,0,0-1.55-4,6.76,6.76,0,0,0-4.81-1.75c-9.67-.64-125.07-7.64-128-7.8a6.14,6.14,0,0,0-4.1,1.2,3.62,3.62,0,0,0-1.23,2.71c.09,2.06.39,10.55.76,21.27.9,25.3,2.24,63.53,2.65,71.2a.36.36,0,0,0,.29.34Z"/><path d="M136.1,135.13c-1.65,5.82-2.87,13.09-.9,19,.51,1.54,3,1,2.49-.55-4.06-12.27,3.42-24.06,8.34-35.51"/></g></g></svg>