<svg xmlns="http://www.w3.org/2000/svg" viewBox="0 0 342.5 310.45"><defs><style>.cls-1{fill:#f8bf2f;}.cls-2,.cls-5{fill:none;}.cls-2{stroke:#000;stroke-miterlimit:10;}.cls-3{fill:#fff;}.cls-4{fill:#ffdb00;}</style></defs><title>Asset 14</title><g id="Layer_2" data-name="Layer 2"><g id="Layer_4" data-name="Layer 4"><rect class="cls-1" x="30.5" y="38.72" width="312" height="248"/><rect class="cls-2" x="0.5" y="8.81" width="312" height="248"/><path d="M227.76,63.54c-1.79,12.55-3,25.44-2.38,38.11a72,72,0,0,0,4,21.15,55.65,55.65,0,0,0,15.91,23.51c1.26,1.06,2.75-1,1.51-2.07a52.15,52.15,0,0,1-15.92-25,76.64,76.64,0,0,1-3.1-20.85A222.56,222.56,0,0,1,230.3,63.8c.23-1.63-2.31-1.88-2.54-.26Z"/><path d="M245,143c-5.32-4.59-7.35-10.35-12.17-15.48s-6.82-11.14-6.67-18.11c.41-18.81,5.38-37.16,3.9-56.09-1.29-16.41-7.29-33.11-20.74-43.44C204.15,5.91,196,2.26,189.34,4.56l-.22.06c-1.66-1.42-4.42-2.37-6.41-3.08A26.45,26.45,0,0,0,177.49.28a1.33,1.33,0,0,0-.42-.06A40.73,40.73,0,0,0,164.36,1a49,49,0,0,0-32.91,24.14,1.4,1.4,0,0,0-.09.17,60,60,0,0,0-8.51,22.32c-3.35,18.89-3.64,38.74-11,56.7-3.55,8.64-8.85,15.52-14.74,22.63a38.9,38.9,0,0,0-8.76,20.57c-.22,1.63,2.33,1.76,2.55.14a36.52,36.52,0,0,1,8.35-19.31c4.7-5.68,9.21-11.17,12.55-17.8,7-14,9-29.48,11-44.79-1.17,12.26-2.45,24.5-5.06,36.56a72.89,72.89,0,0,1-10.06,24,49.48,49.48,0,0,0-7.37,24.12,1.28,1.28,0,0,0,2.55.13c.6-9.71,3.43-17.21,8.54-25.34l.49-.8a72.41,72.41,0,0,0-4.23,10.76c-1.65,5.82-2.87,13.09-.91,19,.51,1.54,3,1,2.5-.55-4.06-12.27,3.42-24.06,8.34-35.51-3.38,10.91-10.17,25.65,1.29,33.31,8.18,5.47,19.89,4.45,29.13,3.16a1.09,1.09,0,0,0,1-1.38L242.28,144l.78.66C244.29,145.72,246.2,144,245,143Z"/><path class="cls-3" d="M278.88,183.64c-.36-.4-.79-1-1.26-1.68a2.14,2.14,0,0,0-.16-1.71c-1.27-2-3.07-5.53-7.33-8.11-1.86-4.16-4.9-6.93-8.95-10.31-6.71-5.58-11.53-16.92-25.35-21.55l.12,0s-1.3-.76-7.37-2.4a12.82,12.82,0,0,0-2.73.52c-.57,0-1.15-.08-1.74-.1-11.18,5.68-39.31,25.51-53.73,27.5A82.78,82.78,0,0,0,155,157.45l-.72-.33a157.49,157.49,0,0,1-13-16.15c-.35-1.15-.49-1.86-.49-1.86l-.74.1c-.51-.73-.79-1.16-.79-1.16s-19.77,4.64-24.58,7.09c-8.36,4.25-15.46,13.44-19.17,20.44,0,0-36,65.23-37.89,80.43C128.3,251,239,265.34,239,265.34s2.95-22.34,3.49-28.81c.56-6.83-.6-9.95.62-19.61a29.21,29.21,0,0,0,4.71,6.21c.18,1.23.74,1.91,1.94,1.64a3.1,3.1,0,0,0,.47-.14c2.65-1,7.87-5.8,17.61-17.45,8.05-9.61,11.09-14.45,12.12-16.89.26-.13.5-.25.73-.38a3,3,0,0,0,1.67-1.54C282.42,187.15,280.37,185.36,278.88,183.64Z"/><path class="cls-3" d="M251.64,225.32a3.27,3.27,0,0,0,.14-.33l-.47.15Z"/><path class="cls-4" d="M268.65,182.93c-.35-.41-.78-1-1.25-1.68a2.13,2.13,0,0,0-.16-1.71c-1.25-2-3-5.53-7.24-8.11-1.84-4.16-4.86-6.93-8.87-10.3-6.64-5.57-11.41-16.91-25.1-21.54l.11,0s-1.27-.76-7.29-2.39a12,12,0,0,0-2.7.51c-.57,0-1.14-.08-1.73-.1-11.07,5.69-36.23,24-50.51,26-25.16-10.29-26.08-25-26.08-25s-13.72-.27-24,7c-2.86,2-6.13,3.18-9.24,4.71a40.22,40.22,0,0,0-11.5,8.73,62.72,62.72,0,0,0-9.6,13.32q-2.66,4.86-5.25,9.72c-5,9.27-9.8,18.6-14.43,28a269.45,269.45,0,0,0-12.1,27.13c-.19.53-2.5,8.16-2.28,8.18,66.16,4.62,169.13,19.91,180.19,21.57a.93.93,0,0,0,1.06-.84c.35-3.86,1.65-18,2.36-23.56.82-6.47-.88-8.38.74-18.43a.92.92,0,0,1,1.57-.52c2.58,2.61,8.06,6.7,9.39,8.05,1.08,1.37,3.51.86,3.68.8,2.62-1,8.89-5.93,18.92-18.24a95.14,95.14,0,0,0,12.82-20.54C280.27,192.5,270.13,184.64,268.65,182.93Z"/><path d="M191.63,275.56l-.84-.15c-2.19,3.39-17.52,20.83-21.32,25.39-4.05,4.85-7.85,3.06-7.85,3.06L35.05,278l-3,.66c-.65,1-.49,3.09.11,3.24L162.2,308.6a8.47,8.47,0,0,0,7.75-3.07C174,301,190,282.26,191.51,280a.75.75,0,0,0,.1-.33l.19-3.77A.26.26,0,0,0,191.63,275.56Z"/><path d="M164.67,310.26a6.32,6.32,0,0,1-1-.12L31.94,282a2,2,0,0,1-1.44-1.45,5.82,5.82,0,0,1,.44-4.46l.33-.52,3.93-.92L163.89,302l.16.07c.1.05,3,1.28,6.26-2.87,1.13-1.44,3.28-4.06,5.76-7.1,5.69-7,14.29-17.48,15.82-19.95l.53-.86,1.78.33a1.83,1.83,0,0,1,1.37,1.95l-.21,4a2.43,2.43,0,0,1-.35,1.16c-1.63,2.64-18.18,23-22.06,27.59A10,10,0,0,1,164.67,310.26ZM33,280.61l129.44,26.54a7.06,7.06,0,0,0,6.41-2.61c4.09-4.64,19.26-22.35,21.3-25.23l0-.73c-3.07,3.87-9,10.8-14,16.6-2.43,2.83-4.54,5.27-5.64,6.59-4.22,5.05-8.39,3.87-9.34,3.51L35.06,279.54l-2,.43A3.45,3.45,0,0,0,33,280.61Z"/><path class="cls-4" d="M171.43,300.15c3.79-3.59,22.07-26,24.25-28.68L79.21,253.42a4.42,4.42,0,0,0-2.9.56L37.72,279.69l125.9,23.4S167.41,304,171.43,300.15Z"/><path d="M164.19,306.65a5.76,5.76,0,0,1-.88-.11L33.89,282.49l41.72-27.8a5.77,5.77,0,0,1,3.82-.73l119,18.44-1.64,2c-3.41,4.18-20.6,25.23-24.38,28.82h0A11.09,11.09,0,0,1,164.19,306.65ZM41.55,280.9l122.33,22.74c.17,0,3.22.62,6.58-2.58h0c3.23-3.06,17.37-20.28,22.47-26.52L79,256.88a3,3,0,0,0-2,.37Z"/><path d="M281.9,188.19s3.78.27-12.21,19.38S249.9,227.37,249.62,223c-.38-5.69,6.25-16.44,10.48-21.8S272.63,188.36,281.9,188.19Z"/><path d="M281.84,189.32c-1.2-.13-.14-.82-.9.5a84.56,84.56,0,0,1-4.78,7.78,208.34,208.34,0,0,1-13.25,16.11,65.58,65.58,0,0,1-8.94,8.85c-.87.65-2.27,2-3.11,1.18s.3-4.09.57-5a40.83,40.83,0,0,1,3.67-8c5.59-9.86,14.48-20.85,26.74-21.45,1.44-.07,1.57-2.32.12-2.25-10.91.53-19.58,8.56-25.44,17.17-3,4.45-6.08,9.42-7.48,14.68-.48,1.82-1.22,4.84.18,6.51,2.86,3.42,8.76-3.3,10.47-5a194.93,194.93,0,0,0,13.19-14.95,90.41,90.41,0,0,0,8.83-12.14c.68-1.18,3.33-5.93.25-6.26C280.51,186.91,280.4,189.16,281.84,189.32Z"/><path class="cls-3" d="M171.21,168.92c13.07,1.86,21.95-5.62,52-30-21.44-4.73-26.37-7.73-26.37-7.73l2.69-34.26s-4.64,15.1-12.32,23.84c-7.35,8.35-15.66,11.67-27.86,8.58l-.52,7.49-19,2.25S139.15,164.35,171.21,168.92Z"/><path d="M171.14,170.27c7.3,1,13.86-1.37,20-5.13,11.78-7.16,22.29-16.56,33-25.21a1.36,1.36,0,0,0-.48-2.29c-8-1.78-16.21-3.56-23.86-6.6-.43-.17-1.8-1.06-2.19-1,1.15-.26,0,2.07.67.33a10.35,10.35,0,0,0,.2-2.56L200.9,97a1.36,1.36,0,0,0-2.63-.49,72.6,72.6,0,0,1-9.9,20.63c-7,9.77-16.83,13.73-28.57,10.93a1.38,1.38,0,0,0-1.78,1.21l-.52,7.49,1.06-1.25-19,2.25a1.35,1.35,0,0,0-1.06,1.25,28.45,28.45,0,0,0,4.12,14.39c6,10.32,17.17,15.12,28.56,16.86,1.72.26,1.85-2.45.14-2.71-14.38-2.18-30.46-11.93-30.12-28.4l-1.06,1.25,19-2.25a1.36,1.36,0,0,0,1.06-1.25l.52-7.49L159,130.64c11.45,2.74,21.49,0,29.3-9,5.92-6.79,9.93-15.72,12.59-24.28l-2.64-.5-2.69,34.26a1.31,1.31,0,0,0,.61,1.2,28.52,28.52,0,0,0,5.2,2.16,191.57,191.57,0,0,0,21.49,5.72l-.48-2.28c-10.32,8.36-20.49,17.43-31.81,24.45-6,3.71-12.13,6.15-19.24,5.19C169.56,167.33,169.42,170,171.14,170.27Z"/><path class="cls-3" d="M207.82,69.89a1.21,1.21,0,0,1-1.39.71,2,2,0,0,1-.38-.1c-9.64-3.69-16.24-14.52-21.49-22.82a202.69,202.69,0,0,1-10.13-18c-5,10.34-9.23,21.77-10.53,33.18a1.59,1.59,0,0,1-1.2,1.42c-10.62,2.81-20.22,1.65-30.76.22a123.55,123.55,0,0,0,.79,35.14c2.17,13,9.63,23.76,22.55,27.75,8.87,2.75,19.32-1,26.44-6.36,5.67-4.24,9.87-9.92,13.39-16,2.73-4.72,4.1-10,5.94-15.1a1.54,1.54,0,0,1,2.81-.22c1,2,4.12.73,5.4-.19,4.17-3,6.56-9,8.07-13.73,1-3,2.53-8.34.38-11.28C214.31,59.82,209.29,67,207.82,69.89Z"/><path d="M218.63,61.07c-5.11-3.56-10.23,1.71-12.76,6-8.93-4.13-15.3-15.39-20.1-23.28a200.07,200.07,0,0,1-10-18.31,1.54,1.54,0,0,0-2.64-.14C167.5,36.57,162.62,49,161,61.52c-10.41,2.51-19.85,1.13-30.31-.29a1.55,1.55,0,0,0-1.61,1.45,124.38,124.38,0,0,0-.37,29.81c1.24,11.54,3.8,23,13,30.85,13.6,11.59,31.76,9.28,44.72-2.22,8.72-7.74,12.87-17.52,16.72-28a7.15,7.15,0,0,0,5.92,0c6.61-2.86,10.28-12.39,11.86-18.82C221.93,70.21,222.68,63.9,218.63,61.07Zm-1.3,14.69c-1.51,4.68-3.9,10.72-8.07,13.73-1.28.92-4.37,2.21-5.4.19a1.54,1.54,0,0,0-2.81.22c-1.84,5.1-3.21,10.38-5.94,15.1-3.52,6.09-7.72,11.77-13.39,16-7.12,5.33-17.57,9.11-26.44,6.36-12.92-4-20.38-14.78-22.55-27.75a123.55,123.55,0,0,1-.79-35.14c10.54,1.43,20.14,2.59,30.76-.22a1.59,1.59,0,0,0,1.2-1.42c1.3-11.41,5.52-22.84,10.53-33.18a202.69,202.69,0,0,0,10.13,18c5.25,8.3,11.85,19.13,21.49,22.82a2,2,0,0,0,.38.1,1.21,1.21,0,0,0,1.39-.71c1.47-2.89,6.49-10.07,9.89-5.41C219.86,67.42,218.3,72.74,217.33,75.76Z"/><path d="M206,67.59c-11.29-.29-18.37-12.86-22.73-21.75A113.77,113.77,0,0,1,175.72,26a1.45,1.45,0,0,0-1.36-1.16,1.15,1.15,0,0,0-1.42.7l-.17.36h0v0c-5.52,11.41-8.41,25.42-5.25,37.83.48,1.9,3.48,1.26,3-.66-2.08-8.22-1.18-17.67,1.23-26-.08,9.17,1.52,18.55,3.61,27.22.46,1.92,3.46,1.27,3-.66a119,119,0,0,1-3.56-23.14c1.69,8.46,4.37,16.52,9.3,24.1,1.07,1.64,3.8.26,2.73-1.4a63.23,63.23,0,0,1-8.48-20.75q1.6,3.66,3.43,7.16c4.85,9.26,12.47,20.79,24.12,21.1C207.85,70.71,208,67.65,206,67.59Z"/><path d="M164.53,292.92c2.83-2.4,14.84-15.45,19.66-20.72a1.43,1.43,0,0,0-.83-2.38L82.15,255.34a4.24,4.24,0,0,0-2.58.43l-36.12,18.6,114.13,20.86S161,295.94,164.53,292.92Z"/><path d="M158.16,295.67c-.39,0-.62-.07-.66-.07L42.3,274.54l37.1-19.11a4.75,4.75,0,0,1,2.8-.46l101.21,14.48a1.76,1.76,0,0,1,1.42,1.17,1.78,1.78,0,0,1-.37,1.83c-5,5.44-16.85,18.35-19.69,20.75A9.49,9.49,0,0,1,158.16,295.67ZM44.61,274.19l113,20.67a8.41,8.41,0,0,0,6.63-2.23h0c2.81-2.38,14.66-15.26,19.63-20.68a1,1,0,0,0,.21-1.08,1,1,0,0,0-.81-.67L82.1,255.71a4.06,4.06,0,0,0-2.36.39Z"/><path class="cls-5" d="M271.15,179a6.9,6.9,0,0,1,3.16-.68,19.05,19.05,0,0,0-1.95-2.45c-1.2-1.25-2.37-2-3.37-3.1l-.09,0a12,12,0,0,0-4,.63c-6.26,2-11.93,6.23-17.11,10.13-1.49,1.13-3.47-1-2-2.18,5.61-4.22,11.66-8.68,18.44-10.81a20.12,20.12,0,0,1,2.58-.67c-2.39-3.12-5.24-5.47-8.13-8.28-4.32-4.19-7.54-9.37-12.05-13.4a32.08,32.08,0,0,0-9.25-5.85l-1.55-.61c-9.06,2-17.77,8.15-24.77,13.89A76.4,76.4,0,0,1,192.85,167c-5.67,2.48-11.56,4.42-17.44,6.35-1.7.63-3.41,1.22-5.09,1.89a1.56,1.56,0,0,1-1.76-.32c-7-6.07-16.82-7.33-23.86-13.46-5.94-5.16-11.24-12.43-11.57-20.51-2.1.46-4.18,1-6.24,1.54a41.3,41.3,0,0,0-19.59,11.84c-5.3,5.43-8.85,11.62-12.37,18.19q-6.12,11.42-12,23c-5,9.74-9.84,19.53-14.3,29.5-2.77,6.18-6.24,12.92-7.48,19.71,16.4,1.18,32.78,2.65,49.15,4.27q63.85,6.28,127.5,14.65c.83-6.33,1.64-12.66,2.38-19,.85-7.22.71-14.22,1-21.45.06-1.46,0-3,.15-4.61l-7.68-13.39c-.94-1.64,1.67-3,2.61-1.34l4.49,7.84c.4-7,5-13.89,9.82-18.51A72.22,72.22,0,0,1,271.15,179ZM111,171.49l-1.71-14.62c-.22-1.87,2.64-2.5,2.86-.63q.85,7.31,1.72,14.62C114.06,172.73,111.19,173.36,111,171.49Z"/><path class="cls-3" d="M277.54,184.51c-.9-1.1-1.81-3.11-3.37-3.38-1.17-.21-3.09.73-4.93,1.82a18.61,18.61,0,0,1,5.46,5.67,47.63,47.63,0,0,0-5.57,4c-13.77,10.91-16.78,21.51-18.71,27.66,3-6.68,6.32-13.28,11-18.87A41.83,41.83,0,0,1,272,192.4c2.14-1.29,6.6-1.48,8.42-3.52C280.24,187,278.39,185.56,277.54,184.51Z"/><path class="cls-4" d="M270.35,193.69c1.56-1.24,4.23-2.27,6-3.23-2-2.86-4.9-6.09-7.07-7.51-1.6,1-3.15,2-4.1,2.54a60.55,60.55,0,0,0-13.48,10.67c-4.11,4.22-8.8,11.33-8,17.57.37,3,3.1,6.77,5.79,8.91.33-.77.66-1.54,1-2.31C253.43,214.41,256.59,204.6,270.35,193.69Z"/><path d="M283.48,188c-.41-2.25-2.65-4.75-4.5-6.69a3.84,3.84,0,0,0-.3-1.45,1.42,1.42,0,0,0-.15-.34,28.35,28.35,0,0,0-5.55-7.05c-3.08-2.61-4.92-6.42-8-9.22A143.63,143.63,0,0,1,253.53,151a41.29,41.29,0,0,0-13.18-10.64,48.92,48.92,0,0,0-5.52-2.25,15,15,0,0,0-8.56-1.47A8.49,8.49,0,0,0,222,137.9l-1,.67c-4.83,2.41-9.2,6-13.46,9.14a115.68,115.68,0,0,1-20.7,12.52q-7.56,3.45-15.33,6.42a71.37,71.37,0,0,0-16.44-9.7,22.47,22.47,0,0,1-9.2-8.45,46.68,46.68,0,0,1-4.11-10.78,1.49,1.49,0,0,0-1.74-1.11c-9.65,1.63-20.14,3.54-28.05,9.59s-13.55,13.59-18.16,22.15c-9.27,17.17-18.32,34.5-26.46,52.24-3.65,7.93-8.26,16.6-9.44,25.38a1.49,1.49,0,0,0,1.39,1.54c55.18,3.88,110.2,10.47,165.07,17.36q7.27.92,14.54,1.85a1.49,1.49,0,0,0,1.54-1.39q1.19-9,2.28-18A197.54,197.54,0,0,0,244,225.16c0-1.23.06-2.46.14-3.69a18.27,18.27,0,0,0,5.08,4.62,1.5,1.5,0,0,0,2.2-.76c3.56-8.43,7.52-17.19,13.92-23.89a39.14,39.14,0,0,1,11-8.12c2.35-1.15,5.44-1.93,6.88-4.25a1.69,1.69,0,0,0,.18-.45.14.14,0,0,1,0-.07c0-.06,0-.12,0-.17A1.57,1.57,0,0,0,283.48,188Zm-79.09-34.3c5.79-4.09,11.28-8.81,17.54-12.18,2.86-1.53,5.2-2.54,8.38-1.62l.68.19c-8.45,2.94-16.34,8.72-23,14.25a74.22,74.22,0,0,1-21.76,12.26c-3.55,1.35-7.15,2.55-10.76,3.72-.08,0,1.22.95.17.19a7.74,7.74,0,0,1-1-1.11l-.53-.56C184.69,164.71,195.11,160.19,204.39,153.65Zm-65-13.27c1.85,8.18,7.19,15.75,14.8,19.35a80.14,80.14,0,0,1,15.22,8.62,16.8,16.8,0,0,1,1.62,1.42l1.45,1.57c-.87.31-1.73.64-2.6,1-6.07-4.79-13.92-6.3-20.24-10.64-6.66-4.58-13.29-12.38-13.6-20.84Zm101.3,71.29-4.49-7.84c-.94-1.63-3.55-.3-2.61,1.34l7.68,13.39c-.12,1.56-.09,3.15-.15,4.61-.27,7.23-.13,14.23-1,21.45-.74,6.34-1.55,12.67-2.38,19q-63.61-8.28-127.5-14.65c-16.37-1.62-32.75-3.09-49.15-4.27,1.24-6.79,4.71-13.53,7.48-19.71,4.46-10,9.33-19.76,14.3-29.5q5.88-11.53,12-23c3.52-6.57,7.07-12.76,12.37-18.19a41.3,41.3,0,0,1,19.59-11.84c2.06-.56,4.14-1.08,6.24-1.54.33,8.08,5.63,15.35,11.57,20.51,7,6.13,16.85,7.39,23.86,13.46a1.56,1.56,0,0,0,1.76.32c1.68-.67,3.39-1.26,5.09-1.89,5.88-1.93,11.77-3.87,17.44-6.35a76.4,76.4,0,0,0,18.25-11.46c7-5.74,15.71-11.87,24.77-13.89l1.55.61a32.08,32.08,0,0,1,9.25,5.85c4.51,4,7.73,9.21,12.05,13.4,2.89,2.81,5.74,5.16,8.13,8.28a20.12,20.12,0,0,0-2.58.67c-6.78,2.13-12.83,6.59-18.44,10.81-1.51,1.14.47,3.31,2,2.18,5.18-3.9,10.85-8.11,17.11-10.13a12,12,0,0,1,4-.63l.09,0c1,1.12,2.17,1.85,3.37,3.1a19.05,19.05,0,0,1,1.95,2.45,6.9,6.9,0,0,0-3.16.68,72.22,72.22,0,0,0-20.62,14.2C245.72,197.78,241.11,204.69,240.71,211.67ZM272,192.4a41.83,41.83,0,0,0-10.52,9.06c-4.7,5.59-8.06,12.19-11,18.87-.34.77-.67,1.54-1,2.31-2.69-2.14-5.42-5.89-5.79-8.91-.77-6.24,3.92-13.35,8-17.57a60.55,60.55,0,0,1,13.48-10.67c.95-.52,2.5-1.59,4.1-2.54,1.84-1.09,3.76-2,4.93-1.82,1.56.27,2.47,2.28,3.37,3.38s2.61,2.39,2.84,4.37C279.84,189.38,274.1,191.11,272,192.4Z"/><path d="M113.88,173.77c-.22-1.87-3.08-1.23-2.86.63q.86,7.31,1.72,14.63c.21,1.87,3.08,1.23,2.86-.63Q114.75,181.08,113.88,173.77Z"/><path class="cls-4" d="M149.66,161.66c6.32,4.34,14.17,5.85,20.24,10.64.87-.32,1.73-.65,2.6-1l-1.45-1.57a16.8,16.8,0,0,0-1.62-1.42,80.14,80.14,0,0,0-15.22-8.62c-7.61-3.6-13-11.17-14.8-19.35l-3.35.44C136.37,149.28,143,157.08,149.66,161.66Z"/><path class="cls-4" d="M175.69,170.46c1.05.76-.25-.17-.17-.19,3.61-1.17,7.21-2.37,10.76-3.72A74.22,74.22,0,0,0,208,154.29c6.61-5.53,14.5-11.31,23-14.25l-.68-.19c-3.18-.92-5.52.09-8.38,1.62-6.26,3.37-11.75,8.09-17.54,12.18-9.28,6.54-19.7,11.06-30.26,15.14l.53.56A7.74,7.74,0,0,0,175.69,170.46Z"/><path class="cls-4" d="M197.75,103.74c-.4,15.78-8.34,42.65-38,39.22.54-6.45.82-11.94.82-11.94s7.48,2.26,19.71-4.48c4.21-2.32,8.23-7.08,8.63-7.59a81.64,81.64,0,0,0,5-7.18A39.09,39.09,0,0,0,197.75,103.74Z"/><path class="cls-4" d="M131.93,64.45a135.5,135.5,0,0,0,18.37,1.37,46.3,46.3,0,0,0,12.43-1.74,1.46,1.46,0,0,0,.76-.89c.34-2.53.54-3.64.77-5A85.05,85.05,0,0,1,166.47,49a52,52,0,0,0,.19,9.11c.54,3.71.81,5.74,1.65,6.28a1.34,1.34,0,0,0,2.08-1.22,44.23,44.23,0,0,1-1.18-9.76,54.72,54.72,0,0,1,2.57-17,139.62,139.62,0,0,0,2,20.18c.68,3.48,1.22,5.76,1.74,7.67a1.19,1.19,0,0,0,.23.43,1.45,1.45,0,0,0,2.55-.8c-1.92-8.11-3.76-18.23-3.61-24.53a89,89,0,0,0,4.38,15.1c1.46,3.49,4.39,9.77,5.93,10.54.64.5,2.62-.26,1.7-1.77-.56-.8-1.55-2.55-2.16-3.64a64.69,64.69,0,0,1-6.67-18.8c3.93,8.84,13.38,30.32,28.75,29.87-.71,2-3.87,2-7.2.45a37.08,37.08,0,0,1-9.29-7A52.38,52.38,0,0,1,182,52a46,46,0,0,0,2.79,6.25c1.28,2.36,2.74,4.55,3,5,1.69,3.15-1.9,4.31-3,2.88a58.72,58.72,0,0,1-5.8-9.91,40.62,40.62,0,0,1-3.44-11.45c0,.58.51,4.93,1.26,8.92s1.71,7.36,1.79,7.64c1,3,.08,4-.58,4.2a2.58,2.58,0,0,1-2.4-.17c-.71-.49-1.07-1.62-1.52-3.36a82.55,82.55,0,0,1-2-11c-.6-5.6-.63-11-.63-11s-2.91,8.25-.31,23.29c.83,3.29-2.81,3.53-3.7,2.41-1.05-1.7-1.63-10.1-1.75-10a29.92,29.92,0,0,0-.44,8.47,6,6,0,0,1-.35,1.86c-.43.55-1,1.26-3.54,1.72-7.57,1.37-14.92,2.85-29.7-.11Z"/><path class="cls-3" d="M276.28,192.74s29.56,42.86,33.62,54c3.2,8.82,5.2,19.87-3.28,25.73s-68,7.6-99.68-1.07c-5.67.41-4.4,3.34-11.7,3.89s-12.3-1-14.3.74S167.39,293,167.39,293l.3-17,.39-22.29a46.71,46.71,0,0,0,8.39-.23c3.67-.55,19.56-2.8,23.47-3.06s17.55-1,35.61-1.67a279.54,279.54,0,0,0,33.57-3.3l-15.9-26S262.81,197.54,276.28,192.74Z"/><path d="M165.73,297.79l.8-45.81,1.66.11a44.15,44.15,0,0,0,8.05-.21c3.18-.47,19.47-2.8,23.6-3.07,3.67-.25,17.23-1,35.66-1.68a282.6,282.6,0,0,0,31-2.9l-15.32-24,.34-.77c.42-1,10.28-23.28,24.23-28.25l1.14-.41.69,1c1.31,1.89,29.73,43.2,33.81,54.44,4.8,13.2,3.5,22.48-3.86,27.57-8.92,6.17-68.46,8-100.73-.78a7.34,7.34,0,0,0-4,1.46,13.37,13.37,0,0,1-7.45,2.42,61,61,0,0,1-8,0c-2.5-.13-4.65-.24-5.34.36-1.38,1.2-8.91,10.87-13.34,16.69Zm3.9-42.47-.58,32.91c3.62-4.7,9.38-12.07,10.85-13.35,1.66-1.43,4.14-1.31,7.58-1.14a56.69,56.69,0,0,0,7.64,0,10.36,10.36,0,0,0,5.95-1.9,10.51,10.51,0,0,1,5.76-2h.27l.26.07c32.69,8.95,90.86,6.48,98.36,1.29,6.12-4.23,7-12,2.69-23.89-3.61-9.94-28-45.8-32.73-52.7-10.77,4.76-19.15,21.55-20.93,25.34l17,26.6-2.35.41a286.41,286.41,0,0,1-33.78,3.32c-18.39.64-31.9,1.42-35.56,1.67s-19.18,2.42-23.34,3A44,44,0,0,1,169.63,255.32Z"/><path d="M180.74,262.86a17.51,17.51,0,0,0-7.63,3.95c-2.89,2.76-4.51,7.21-6.59,10.61-.91,1.49,1.35,3,2.26,1.49,1.87-3.05,3.34-6.73,5.59-9.48a13.42,13.42,0,0,1,6.95-3.93c1.68-.43,1.11-3.07-.58-2.64Z"/><path d="M171.18,259.77a8.23,8.23,0,0,0-5.19,5,1.35,1.35,0,0,0,2.56.85,5.41,5.41,0,0,1,2-2.62,6.47,6.47,0,0,1,1-.53l.32-.14c.22-.11-.32.11-.12.05a1.41,1.41,0,0,0,1-1.62,1.37,1.37,0,0,0-1.61-1Z"/><path class="cls-4" d="M204.86,242.87s-3,.71-2.59,4.44c3.62,3.45,6.71,6.59,8.7,6.93,1.59.28,10.08.79,13.39,1A2.63,2.63,0,0,0,227,253.6a3.14,3.14,0,0,0-.78-3.41l-7.62-5.58Z"/><path d="M204.62,241.77c-2.2.62-4.06,3.12-3.47,5.48.44,1.82,3,3.42,4.33,4.65a14.89,14.89,0,0,0,4.5,3.23c3.14,1.11,7.08.77,10.36,1,2.79.17,6.77,1,7.8-2.51.79-2.73-1.23-4.28-3.12-5.67s-3.92-3.55-6.08-4.39c-1.87-.73-4.44-.58-6.42-.83l-7.6-1c-1.44-.19-1.55,2.07-.11,2.25l9.71,1.23a20.83,20.83,0,0,1,3.95.5c-1-.36.56.6.8.78l2.5,1.83,2.5,1.84c1.28.93,1.44.59.38,2.39-1.17,2-2,1.42-4.19,1.29l-4.33-.29c-2.5-.18-4.91-.07-7-1.56-1.55-1.09-8.8-6.69-4-8C206.5,243.58,206,241.38,204.62,241.77Z"/><path d="M205.35,243.48,218,245a2.66,2.66,0,0,1,1.32.54l6.84,5.17a.44.44,0,0,1-.29.8l-12.22-.64a3,3,0,0,1-1.68-.68L205,244.31A.47.47,0,0,1,205.35,243.48Z"/><path d="M212.67,253l12.14.85s-3.23,22.92-11.28,22.78a9.54,9.54,0,0,1-8.53-3.29s2.12-.16,4.3-3.83A29.11,29.11,0,0,0,212.67,253Z"/><path d="M212.61,254.11l12.14.85-1.07-1.19a64.63,64.63,0,0,1-3.4,13.58c-1,2.55-2.37,6.25-4.95,7.63-3,1.58-7.52.18-9.5-2.42l-.59,1.86c2.79-.38,4.73-3.63,5.81-5.86A31.25,31.25,0,0,0,213.79,253c-.08-1.43-2.33-1.56-2.25-.11a30.75,30.75,0,0,1-1.65,12.62c-.82,2.18-2.44,6.3-5.14,6.67a1.13,1.13,0,0,0-.59,1.85c2.18,2.87,6.34,4.1,9.8,3.65,3.15-.42,5.14-2.88,6.59-5.53,3-5.51,4.5-12.1,5.39-18.3a1.15,1.15,0,0,0-1.07-1.18l-12.14-.85A1.13,1.13,0,0,0,212.61,254.11Z"/><path class="cls-4" d="M210.92,266a4.62,4.62,0,0,0,3.59,3.23c3,.81,6.36.49,7.17-1a6,6,0,0,1-3,4.78c-1.23.67-6.14.83-9-2.42a2.84,2.84,0,0,1-.36-3.13C210,266.38,210.68,265.34,210.92,266Z"/><path d="M209.82,266.26c1.43,4.52,9.83,6.68,12.81,2.62l-2.07-.68c-.43,2.57-1.92,4.24-4.54,4.1a8.73,8.73,0,0,1-3.06-.73,6.44,6.44,0,0,1-1.58-.93c-1-.88-1.89-3.09-.14-3.83l-1.36-.25.2.21c1,1.07,2.66-.44,1.67-1.51l-.19-.21a1.18,1.18,0,0,0-1.36-.25c-1.89.8-2.66,3.74-1.94,5.5.88,2.16,3.5,3.46,5.64,4,4.68,1.09,8.12-1.12,8.91-5.94.19-1.19-1.47-1.5-2.07-.68-1.73,2.36-7.89.75-8.72-1.86C211.58,264.41,209.38,264.87,209.82,266.26Z"/><path class="cls-4" d="M260,210.78s-1.32,1.4-5.25,9.47c3,5.46,14.95,23.05,14.95,23.05s1.57-.36,7.53-1.38C268.14,221,260,210.78,260,210.78Z"/><path d="M289,241.23c-6.8-.35-13.64,1.16-20.28,2.44-2.13.42-1.41,3.72.73,3.31,6.35-1.23,12.88-2.71,19.38-2.37a1.69,1.69,0,0,0,.17-3.38Z"/><path class="cls-4" d="M206.46,77.8s3.73-11,7.45-10.28c3.18.64.29,5.72.29,5.72s-4.28,14-7.55,13.11S206.46,77.8,206.46,77.8Z"/><polygon class="cls-5" points="206.59 86.14 206.59 86.13 206.58 86.13 206.59 86.14"/><path class="cls-5" d="M206.58,86.13h0l0,0Z"/><path d="M216.41,67.86c-.52-1.81-2.65-2.09-4.13-1.3-2.8,1.47-4.57,5.14-5.79,7.91-.53,1.21,1.41,1.84,1.94.65a59.14,59.14,0,0,1,3.6-5.77c.55-.58,2-1.93,2.47-.68.34,1-.49,2.76-.86,3.68-.49,1.22,1.45,1.86,1.94.65C216.19,71.49,216.88,69.48,216.41,67.86Z"/><path d="M209.86,81.86c-.64,1.45-1.48,3.58-3,4.29.07,0-.22,0-.13,0s0,0-.11,0h0l0,0,0,0a1,1,0,0,0-1.51,1.37,2.34,2.34,0,0,0,2.36.59c2.29-.65,3.51-3.65,4.36-5.59C212.32,81.3,210.38,80.66,209.86,81.86Z"/><path d="M206.58,86.13c.09,0-.13-.15,0,0Z"/><polygon points="206.59 86.13 206.58 86.13 206.58 86.13 206.58 86.13 206.59 86.13"/><ellipse cx="139.64" cy="82.76" rx="4.74" ry="3.29" transform="translate(49.68 217.87) rotate(-87)"/><ellipse cx="170.42" cy="82.67" rx="4.74" ry="3.29" transform="translate(78.94 248.53) rotate(-87)"/><path class="cls-4" d="M151.6,91.35c-.24-.37-1.18-.09-1.84.55-.47.47-1.32,2.46-.78,3.57.92,1.89,2.46,2.28,3.36,1.59S152.48,92.63,151.6,91.35Z"/><path d="M137.37,71.93a6.83,6.83,0,0,1,1.44-.71,3.93,3.93,0,0,1,4,1c1.2,1.1,3.11-.6,1.9-1.71a6.78,6.78,0,0,0-9-.47c-1.3,1,.42,2.9,1.71,1.9Z"/><path d="M168.62,72.85a7,7,0,0,1,1.43-.71,3.92,3.92,0,0,1,4,1c1.21,1.1,3.12-.6,1.9-1.71a6.78,6.78,0,0,0-9-.47c-1.3,1,.42,2.9,1.71,1.9Z"/><path d="M162.12,103.76A35.85,35.85,0,0,1,152,106c-4.37.75-2,5.82.32,7.85a9.22,9.22,0,0,0,4,2c.54-2.14,1.93-6.06,4.94-6.67a11.56,11.56,0,0,1,6.38.62,14,14,0,0,0,.59-2.11C168.74,105.1,167.3,101.76,162.12,103.76Z"/><path class="cls-4" d="M161.24,109.09c-3,.61-4.4,4.53-4.94,6.67a9.52,9.52,0,0,0,6.45-.64,9.84,9.84,0,0,0,4.87-5.41A11.56,11.56,0,0,0,161.24,109.09Z"/><path d="M153,73c-.67-1.5-2.94-.33-2.27,1.17a23.65,23.65,0,0,1,1.45,12.51,1.77,1.77,0,0,0,0,.23.14.14,0,0,0,0,.06c-.35,2.08-1,2.29-2.48,3.31a4.66,4.66,0,0,0-1.93,3.1,5.51,5.51,0,0,0,4,6.48c1.59.37,2.41-2,.81-2.43a3.12,3.12,0,0,1-2.33-2.16c-.37-1.67.42-2.54,1.65-3.31,1.8-1.11,2.49-2.77,2.84-4.86a1.18,1.18,0,0,0,0-.26,0,0,0,0,1,0,0A26.21,26.21,0,0,0,153,73Z"/><path d="M244.8,142.78c-12.36-1.15-23-7.57-30.87-17.67-4.62-6-6.44-14.22-8-21.44-.9-4.2-1.65-8.44-2.15-12.7a.19.19,0,0,0,0-.08s0-.06,0-.09a1,1,0,0,0-1.22-1,1.14,1.14,0,0,0-1.24.84,104.16,104.16,0,0,1-6.63,17.17c-2.5,4.81-1.9,10.69-1,15.94,1.83,10.14,6.21,19.92,15.7,24.84,12.62,6.53,24.54,4.15,35.9-3.43A1.29,1.29,0,0,0,244.8,142.78Z"/><path class="cls-1" d="M182.07,43.41c1.46,4,8.43,17.25,15.76,21.65A156.09,156.09,0,0,1,182.07,43.41Z"/><path class="cls-1" d="M141,22c-7.88,7.12-11.36,16.7-8.88,31C133.43,38.7,134.59,32.82,141,22Z"/><path class="cls-1" d="M150.6,11.88c-3.5,0-8.16,4.65-8.54,8.15C144.88,15.88,146.72,14.55,150.6,11.88Z"/><path class="cls-1" d="M226.34,98.59s-1,10.62.61,17.81,6.25,13.78,8.42,17.25C227.62,126.84,221.78,118.86,226.34,98.59Z"/><path d="M202.84,8.82c11.39,5.28,19.31,20,22.8,31.78,4.89,16.52,3,33.11,3.27,50,.21,12,1.19,25.31,8.12,35.59,3.38,5,8.4,8.33,13.17,11.9,7.32,5.48,12.78,11.92,15.71,20.7.51,1.54,3,1.07,2.51-.49a41.34,41.34,0,0,0-11.31-17.86c-4.51-4.12-9.9-7.16-14.32-11.36-10.31-9.83-11.21-26.34-11.35-39.64-.16-16.55,1.51-32.73-3.15-48.88-2.73-9.48-7.24-18.6-14-25.86-3-3.22-6.54-6.44-10.57-8.31-1.5-.7-2.35,1.71-.87,2.4Z"/><path d="M159.69,145.21l.79-15.34a1.36,1.36,0,0,0-2.71-.14L157,145.07a1.35,1.35,0,0,0,2.7.14Z"/><path class="cls-3" d="M31.46,284.66,163.38,309a5.27,5.27,0,0,0,6.34-5.07l-.51-103.69s.36-6.92-7.78-7.21c-10.07-.66-125.39-7.65-128-7.79s-6.69,1-6.85,5.27C26.84,196.92,29.4,272,30,283A1.76,1.76,0,0,0,31.46,284.66Z"/><path d="M164,310.45a7,7,0,0,1-.93-.12L31.19,286a3.18,3.18,0,0,1-2.66-2.92c-.41-7.7-1.76-45.94-2.65-71.24-.38-10.82-.69-19.36-.77-21.32v-.1a6.34,6.34,0,0,1,2.18-4.68,9.2,9.2,0,0,1,6.22-1.9c3,.15,118.39,7.15,128,7.79a9.78,9.78,0,0,1,6.83,2.66,8.63,8.63,0,0,1,2.31,5.95l.51,103.67a6.4,6.4,0,0,1-2.53,5.1A7,7,0,0,1,164,310.45ZM31.74,283.31l131.91,24.32a3.92,3.92,0,0,0,3.13-.74,3.75,3.75,0,0,0,1.48-3l-.52-103.76a5.88,5.88,0,0,0-1.55-4,6.73,6.73,0,0,0-4.8-1.75c-9.67-.64-125.07-7.64-128-7.8a6.1,6.1,0,0,0-4.09,1.2A3.55,3.55,0,0,0,28,190.5c.08,2.06.38,10.55.76,21.27.89,25.3,2.24,63.53,2.65,71.2a.36.36,0,0,0,.29.34Z"/><path d="M107.63,135.13c-1.65,5.82-2.87,13.09-.91,19,.51,1.54,3,1,2.5-.55-4.06-12.27,3.42-24.06,8.34-35.51"/></g></g></svg>