<?xml version="1.0" encoding="UTF-8"?>
<svg width="50px" height="50px" viewBox="0 0 50 50" version="1.1" xmlns="http://www.w3.org/2000/svg" xmlns:xlink="http://www.w3.org/1999/xlink">
    <title>icon/contact</title>
    <g id="icon/contact" stroke="none" stroke-width="1" fill="none" fill-rule="evenodd">
        <circle id="Oval" fill="#FFDB00" cx="25" cy="25" r="20"></circle>
        <g id="Group" transform="translate(16.000000, 18.000000)" fill="#000000" fill-rule="nonzero">
            <path d="M16.2,-8.8817842e-16 C17.145,-8.8817842e-16 17.9259917,0.73803719 17.9950385,1.66617487 L18,1.8 L18,12.6 C18,13.545 17.2619628,14.3259917 16.3338251,14.3950385 L16.2,14.4 L1.8,14.4 C0.855,14.4 0.0740082645,13.6619628 0.00496149512,12.7338251 L0,12.6 L0.009,1.8 C0.009,0.855 0.738836777,0.0740082645 1.66622896,0.00496149512 L1.8,-8.8817842e-16 L16.2,-8.8817842e-16 Z M16.2,1.53 L1.8,1.53 C1.67921302,1.53 1.57373433,1.61883607 1.54606227,1.73890467 L1.53899947,1.801275 L1.53,12.6 C1.53,12.7242894 1.62183355,12.8338786 1.73938639,12.8626533 L1.8,12.87 L16.2,12.87 C16.3242894,12.87 16.4338786,12.7781664 16.4626533,12.6606136 L16.47,12.6 L16.47,1.8 C16.47,1.67571057 16.3781664,1.56612139 16.2606136,1.53734671 L16.2,1.53 Z" id="Shape-path"></path>
            <polygon id="Shape-path" points="16.2 4.6 9 9.1 1.8 4.6 1.8 2.8 9 7.3 16.2 2.8"></polygon>
        </g>
    </g>
</svg>