<?xml version="1.0" encoding="UTF-8"?>
<svg width="50px" height="50px" viewBox="0 0 50 50" version="1.1" xmlns="http://www.w3.org/2000/svg" xmlns:xlink="http://www.w3.org/1999/xlink">
    <title>icon/design_y</title>
    <g id="icon/design_y" stroke="none" stroke-width="1" fill="none" fill-rule="evenodd">
        <g id="web-design" transform="translate(5.000000, 5.000000)">
            <rect id="Rectangle" fill="#FFDB00" x="0" y="2" width="34" height="25" rx="3"></rect>
            <path d="M16.5788193,30.7479706 L15.4490814,34.7580986 C14.0014969,34.4763962 12.8973429,34.7279202 12.1366196,35.5126706 C11.3758962,36.297421 11.1842674,37.3826063 11.5617332,38.7682266 L21.983569,38.7682266 L20.0004267,30.7479706 L16.5788193,30.7479706 Z" id="Path-2" fill="#FFDB00"></path>
            <rect id="Rectangle" fill="#FFDB00" x="21" y="37" width="4" height="2"></rect>
            <path d="M35.8331638,5.19173489 L35.3618276,5.19173489 C36.2602759,3.7217154 35.9285172,1.74814815 34.4865776,0.672982456 C32.9329138,-0.485380117 30.7250431,-0.11251462 29.6407759,1.51586745 L27.1932414,5.19181287 L6.16761207,5.19181287 C4.43937931,5.19181287 3.03336207,6.60483431 3.03336207,8.34167641 L3.03336207,28.48 C3.03336207,30.2168421 4.43937931,31.6298635 6.16761207,31.6298635 L18.3419741,31.6298635 L17.4221121,35.5126706 L15.4367586,35.5126706 C14.1428534,35.5126706 13.0901638,36.5705263 13.0901638,37.8708772 L13.0901638,38.3632749 L10.6427069,38.3632749 C10.2141983,38.3632749 9.86684483,38.7124366 9.86684483,39.1430019 C9.86684483,39.5735673 10.2141983,39.922729 10.6427069,39.922729 L31.3581466,39.922729 C31.7866552,39.922729 32.1340086,39.5735673 32.1340086,39.1430019 C32.1340086,38.7124366 31.7866552,38.3632749 31.3581466,38.3632749 L28.9106897,38.3632749 L28.9106897,37.8708772 C28.9106897,36.5705263 27.858,35.5126706 26.5640948,35.5126706 L24.5787414,35.5126706 L23.6588793,31.6298635 L35.8332414,31.6298635 C37.5614741,31.6298635 38.9674914,30.2168421 38.9674914,28.48 L38.9674914,24.0488109 L38.9674914,8.34159844 C38.9674914,6.60475634 37.5614741,5.19173489 35.8331638,5.19173489 Z M24.7164569,18.8992593 C23.5033966,19.7526706 21.230819,18.5926706 19.0605776,19.7564912 C18.5310517,16.9919688 18.8649052,14.3919688 21.6211552,13.8180897 C21.9773534,13.7434698 22.3608621,13.7097076 22.6873448,13.7162573 C23.6202414,14.4118519 24.5638448,15.1153996 25.4941034,15.8091228 C25.9013534,16.9996101 25.7485086,18.1732554 24.7164569,18.8992593 Z M25.4983707,10.5415205 L27.6946034,12.1791033 L26.0056293,14.248577 C25.3103017,13.7301365 24.7125776,13.2844444 24.01725,12.7659259 C24.1616379,12.5490838 25.3663966,10.7396491 25.4983707,10.5415205 L25.4983707,10.5415205 Z M30.9304914,2.38315789 C31.5181293,1.50042885 32.7166034,1.29504873 33.5619828,1.92545809 C34.4076724,2.55594542 34.5591207,3.76810916 33.8890086,4.58923977 C32.7,6.0460039 29.8732241,9.50962963 28.6797155,10.9720078 L26.3622155,9.24397661 L30.9304914,2.38315789 Z M27.3588879,37.8708772 L27.3588879,38.3632749 L14.6418879,38.3632749 L14.6418879,37.8708772 C14.6418879,37.4304873 14.9984741,37.0721248 15.4367586,37.0721248 L26.5640172,37.0721248 C27.0023017,37.0721248 27.3588879,37.4304873 27.3588879,37.8708772 Z M22.983569,35.5126706 L19.0172069,35.5126706 L19.937069,31.6298635 L22.0637069,31.6298635 L22.983569,35.5126706 Z M37.4157672,28.48 C37.4157672,29.3569591 36.7058534,30.0704094 35.8332414,30.0704094 C34.6016379,30.0704094 7.55244828,30.0704094 6.16768966,30.0704094 C5.29507759,30.0704094 4.58500862,29.3569591 4.58500862,28.48 L4.58500862,24.828538 L6.80226724,24.828538 C7.07451549,24.828538 11.1405749,24.82846 13.0090086,24.828538 C14.0887712,24.8285831 13.2919352,23.2690838 13.0090086,23.2690838 C12.2331466,23.2690838 7.23077586,23.2690838 6.80226724,23.2690838 L4.58500862,23.2690838 L4.58500862,8.34159844 C4.58500862,7.46463938 5.29492241,6.75118908 6.16753448,6.75118908 L26.1549052,6.75118908 C25.4116293,7.86752437 23.2431724,11.1242885 22.5563017,12.1557895 C21.0358448,12.1695906 19.5178707,12.7019103 18.5241466,13.8677583 C17.1718966,15.4541131 16.9343276,17.9467446 17.8180345,21.2763353 C17.9690948,21.845692 18.6759828,22.0496686 19.1037155,21.6390643 C21.1098621,19.7125926 23.6084483,21.8139571 25.8459569,19.9939181 C27.2117845,18.882807 27.5350086,17.1164133 27.0199914,15.4646394 C27.7161724,14.6116179 33.4335776,7.60623782 34.1313879,6.75118908 L35.8330862,6.75118908 C36.7056983,6.75118908 37.4157672,7.46463938 37.4157672,8.34159844 L37.4157672,23.2690058 L13.0090086,23.2690058 C12.5805,23.2690058 12.2331466,23.6181676 12.2331466,24.0487329 C12.2331466,24.4792982 12.5805,24.82846 13.0090086,24.82846 L37.4157672,24.82846 L37.4157672,28.48 Z" id="Shape" fill="#000000" fill-rule="nonzero"></path>
        </g>
    </g>
</svg>