<?xml version="1.0" encoding="UTF-8"?>
<svg width="50px" height="50px" viewBox="0 0 50 50" version="1.1" xmlns="http://www.w3.org/2000/svg" xmlns:xlink="http://www.w3.org/1999/xlink">
    <title>icon/develop_y</title>
    <g id="icon/develop_y" stroke="none" stroke-width="1" fill="none" fill-rule="evenodd">
        <g id="web-programming" transform="translate(5.000000, 7.000000)">
            <rect id="Rectangle" fill="#FFDB00" x="0" y="0" width="35" height="30" rx="3"></rect>
            <path d="M16.65639,18.3971615 L12.8105489,21.6883923 C12.6224237,21.8499801 12.5141509,22.0853104 12.5141509,22.333 C12.5141509,22.581235 12.6222656,22.8166212 12.8104389,22.9778469 L16.6565099,26.2692745 C16.8110763,26.401571 17.0048013,26.472 17.2037883,26.472 C17.4497839,26.472 17.6850505,26.3651542 17.8476016,26.1732521 L17.9158434,26.0807674 C18.1399107,25.7297911 18.0770516,25.2578349 17.7520571,24.9797216 L14.659,22.333 L17.7520722,19.6862654 C18.1065883,19.3833618 18.1491662,18.849261 17.8474828,18.4926077 C17.5449337,18.1359612 17.0113576,18.0929955 16.65639,18.3971615 Z" id="Path" fill="#000000" fill-rule="nonzero"></path>
            <path d="M24.0844409,18.5852706 C23.8602328,18.9363563 23.9230861,19.4083474 24.2479647,19.686297 L27.34,22.333 L24.2479278,24.9797346 C23.8935434,25.2834009 23.8509634,25.8175281 24.1528489,26.1733924 C24.3147404,26.3650564 24.5500964,26.472 24.7962117,26.472 C24.9951987,26.472 25.1889237,26.401571 25.3435045,26.2692622 L29.1894511,22.9779411 C29.3777344,22.8166212 29.4858491,22.581235 29.4858491,22.333 C29.4858491,22.0850352 29.3776865,21.8496711 29.1895611,21.6884865 L25.3437346,18.3972684 C24.9890427,18.0929344 24.4549426,18.1359422 24.1527246,18.4927543 L24.0844409,18.5852706 Z" id="Path" fill="#000000" fill-rule="nonzero"></path>
            <path d="M21.2083726,16.4810273 L18.8114399,27.9187228 C18.7155447,28.3760472 19.0071602,28.8256187 19.4633438,28.9222408 C19.5221163,28.934528 19.5803758,28.9406667 19.6385245,28.9406667 C20.0351292,28.9406667 20.3812951,28.6615024 20.463937,28.267676 L22.8608773,16.8299439 C22.9567339,16.3723315 22.6652189,15.923061 22.2089222,15.8264149 C21.7521168,15.729761 21.3043684,16.0232226 21.2083726,16.4810273 Z" id="Path" fill="#000000" fill-rule="nonzero"></path>
            <path d="M35.009434,2.75 C37.2792552,2.75 39.1377421,4.55075249 39.2451014,6.80456411 L39.25,7.01066667 L39.25,30.9113334 C39.25,33.1915805 37.4583773,35.0591905 35.2146202,35.1670774 L35.009434,35.172 L6.99056604,35.172 C4.72063683,35.172 2.8622515,33.3714562 2.75489833,31.1174543 L2.75,30.9113334 L2.75,7.01066667 C2.75,4.73063448 4.5417275,2.86282221 6.78538909,2.75492325 L6.99056604,2.75 L35.009434,2.75 Z M35.009434,4.44466667 L6.99056604,4.44466667 C5.64029548,4.44466667 4.53072553,5.50554269 4.44412036,6.84220437 L4.43867925,7.01066667 L4.43867925,30.9113334 C4.43867925,32.2696142 5.49423838,33.3848214 6.82309245,33.4718648 L6.99056604,33.4773334 L35.009434,33.4773334 C36.3597045,33.4773334 37.4692745,32.4164574 37.5558796,31.0797957 L37.5613208,30.9113334 L37.5613208,7.01066667 C37.5613208,5.59579083 36.4159658,4.44466667 35.009434,4.44466667 Z" id="Combined-Shape" fill="#000000" fill-rule="nonzero"></path>
            <path d="M38.4056604,11.1203334 L3.59433962,11.1203334 C3.12773313,11.1203334 2.75,11.5001155 2.75,11.9676667 C2.75,12.4354575 3.12764034,12.815 3.59433962,12.815 L38.4056604,12.815 C38.8723597,12.815 39.25,12.4354575 39.25,11.9676667 C39.25,11.5001155 38.8722669,11.1203334 38.4056604,11.1203334 Z" id="Path" fill="#000000" fill-rule="nonzero"></path>
            <path d="M14.1548496,9.70666667 C13.1180719,9.70666667 12.2739903,8.85833335 12.2739903,7.81633331 C12.2739903,6.77399996 13.1180719,5.92599996 14.1548496,5.92599996 C15.191959,5.92599996 16.035709,6.77399996 16.035709,7.81633331 C16.035709,8.85833335 15.191959,9.70666667 14.1548496,9.70666667 Z M14.1548496,7.12066662 C13.7734375,7.12066662 13.4626695,7.43266662 13.4626695,7.81633331 C13.4626695,8.2 13.7734375,8.512 14.1548496,8.512 C14.5365934,8.512 14.8470298,8.2 14.8470298,7.81633331 C14.8470298,7.43266662 14.5365934,7.12066662 14.1548496,7.12066662 Z" id="Shape" fill="#000000" fill-rule="nonzero"></path>
            <path d="M8.37595809,9.68833331 C7.33884878,9.68833331 6.49509878,8.84033331 6.49509878,7.79799996 C6.49509878,6.75566669 7.33884878,5.90766669 8.37595809,5.90766669 C9.41306749,5.90766669 10.2568175,6.75566669 10.2568175,7.79799996 C10.2568175,8.84033331 9.41306749,9.68833331 8.37595809,9.68833331 Z M8.37595809,7.10233335 C7.99454599,7.10233335 7.68377803,7.41466667 7.68377803,7.79799996 C7.68377803,8.18166665 7.99454599,8.49366665 8.37595809,8.49366665 C8.75770192,8.49366665 9.06813825,8.18166665 9.06813825,7.79799996 C9.06813825,7.41466667 8.75770192,7.10233335 8.37595809,7.10233335 Z" id="Shape" fill="#000000" fill-rule="nonzero"></path>
            <path d="M19.9337411,9.72466671 C18.8969634,9.72466671 18.0532134,8.87666671 18.0532134,7.83433335 C18.0532134,6.79233331 18.8969634,5.94433331 19.9337411,5.94433331 C20.9708505,5.94433331 21.8146005,6.79233331 21.8146005,7.83433335 C21.8146005,8.87666671 20.9708505,9.72466671 19.9337411,9.72466671 Z M19.9337411,7.13866667 C19.552329,7.13866667 19.2418927,7.45066667 19.2418927,7.83433335 C19.2418927,8.21800004 19.552329,8.53000004 19.9337411,8.53000004 C20.3154849,8.53000004 20.6259213,8.21800004 20.6259213,7.83433335 C20.6259213,7.45066667 20.3154849,7.13866667 19.9337411,7.13866667 Z" id="Shape" fill="#000000" fill-rule="nonzero"></path>
        </g>
    </g>
</svg>