<?xml version="1.0" encoding="UTF-8"?>
<svg width="50px" height="50px" viewBox="0 0 50 50" version="1.1" xmlns="http://www.w3.org/2000/svg" xmlns:xlink="http://www.w3.org/1999/xlink">
    <title>icon/gotop</title>
    <g id="icon/gotop" stroke="none" stroke-width="1" fill="none" fill-rule="evenodd">
        <circle id="Oval" fill-opacity="0.2" fill="#000000" cx="25" cy="25" r="20"></circle>
        <g id="Group" transform="translate(15.000000, 17.000000)" fill="#FFFFFF" fill-rule="nonzero">
            <path d="M8.20433268,5.10266927 C9.19397461,4.11306966 10.8031478,4.11235026 11.7932975,5.10029948 L11.7932975,5.10029948 L14.9958171,8.26337891 C15.3283496,8.59184896 15.3316927,9.1277181 15.0032227,9.46029297 C14.6747526,9.79282552 14.1388835,9.79616862 13.8063086,9.46769857 L13.8063086,9.46769857 L10.8459377,6.54390311 L10.8463542,17.4869792 C10.8463542,17.9184635 10.5234936,18.2745152 10.1061674,18.3267392 L10,18.3333333 C9.53255859,18.3333333 9.15364583,17.9544206 9.15364583,17.4869792 L9.15364583,17.4869792 L9.15293765,6.54690311 L6.2400293,9.46376302 C6.10228516,9.60157769 5.92880606,9.68202836 5.74939563,9.70501706 L5.64127604,9.71191406 C5.42477865,9.71191406 5.20836589,9.62939453 5.04307292,9.46427083 C4.71244466,9.13389648 4.71219076,8.59802734 5.04252279,8.26735677 L5.04252279,8.26735677 Z" id="Combined-Shape"></path>
            <path d="M19.21875,0 L0.78125,0 C0.349765625,0 0,0.37891276 0,0.846354167 C0,1.31379557 0.349765625,1.69270833 0.78125,1.69270833 L19.21875,1.69270833 C19.6502344,1.69270833 20,1.31379557 20,0.846354167 C20,0.37891276 19.6502344,0 19.21875,0 Z" id="Path"></path>
        </g>
    </g>
</svg>