<?xml version="1.0" encoding="UTF-8"?>
<svg width="50px" height="50px" viewBox="0 0 50 50" version="1.1" xmlns="http://www.w3.org/2000/svg" xmlns:xlink="http://www.w3.org/1999/xlink">
    <title>icon/language_y</title>
    <g id="icon/language_y" stroke="none" stroke-width="1" fill="none" fill-rule="evenodd">
        <g id="translator" transform="translate(4.000000, 7.000000)">
            <rect id="Rectangle" fill="#FFDB00" x="0" y="0" width="25" height="16" rx="3"></rect>
            <rect id="Rectangle" fill="#FFDB00" x="16" y="13" width="22" height="16" rx="3"></rect>
            <path d="M41.968872,18.5798367 C41.9609375,16.975158 40.6639405,15.6697243 39.062378,15.6697243 L29.234497,15.6933813 L29.203064,4.98876404 C29.1954345,3.38439252 27.8984375,2.07865169 26.3048095,2.07865169 L17.2264405,2.10230862 L12.203247,2.11797753 C11.984436,2.11797753 11.7735595,2.20461724 11.6173095,2.36192061 C11.4610595,2.51922398 11.375,2.7315221 11.375,2.95180825 C11.375,3.40774231 11.750061,3.77765094 12.203247,3.77765094 L17.2264405,3.7616749 L26.296875,3.7383251 C26.984436,3.7383251 27.5389405,4.29656779 27.5389405,4.98876404 L27.5703735,16.6448824 C27.5703735,16.9831461 27.4452515,17.2977528 27.2108765,17.5337079 C26.9765015,17.7696629 26.6640015,17.9033094 26.328003,17.9033094 L14.65625,17.9426352 C14.4139405,17.9426352 14.1875,18.0449438 14.03125,18.233585 L11.375,21.3326457 L8.37512203,18.2102352 C8.21887203,18.0449438 8.00006102,17.9506232 7.78125,17.9583041 L4.93762203,17.9662921 C4.60925297,17.9662921 4.29675297,17.8403266 4.06237797,17.6043715 C3.82800297,17.3684165 3.69525148,17.0538097 3.69525148,16.7158532 L3.65618898,5.05942771 C3.65618898,4.72147117 3.78131102,4.40686443 4.01568602,4.17090937 C4.25006102,3.93495431 4.56256102,3.80100074 4.89855953,3.80100074 L12.203247,3.7383251 C12.656433,3.7383251 14.0391845,3.42371836 14.03125,2.96747716 C14.03125,2.74719101 12.202942,2.29893783 12.0390625,2.14163446 C11.8828125,1.98433109 6.18762203,2.13364644 5.96881102,2.14163446 L4.890625,2.14163446 C4.11730953,2.14163446 3.39068602,2.44825318 2.84381102,2.99881498 C2.29693602,3.5573648 2,4.2888869 2,5.06741573 L2.03112797,16.7235341 C2.03112797,17.50237 2.33599852,18.233585 2.89050297,18.7841468 C3.43737797,19.3270277 4.16400148,19.6336464 4.9296875,19.6336464 L4.94525148,19.6336464 L7.43762203,19.6259656 L10.8201905,23.1493153 C10.9764405,23.3066187 11.1952515,23.4012464 11.4140625,23.4012464 L11.437561,23.4012464 C11.671936,23.3932584 11.890747,23.2909498 12.0390625,23.1099895 L15.0389405,19.6023086 L18.078186,19.5943206 L18.0858155,30.2989378 C18.0858155,31.0774667 18.390686,31.8089888 18.937561,32.3595506 C19.484436,32.9101124 20.2110595,33.2090502 20.984375,33.2090502 L29.015686,33.1853933 L32.0390625,36.6774052 C32.187378,36.8506847 32.4141235,36.9606742 32.640564,36.9606742 L32.656128,36.9606742 C32.8828735,36.9606742 33.1016845,36.8663536 33.25,36.7010622 L36.6173095,33.1617363 L39.109375,33.1540554 C39.8826905,33.1540554 40.609314,32.8471296 41.156189,32.2965678 C41.703064,31.746006 42,31.006803 42,30.227967 L41.968872,18.5798367 Z M40.343811,30.2439431 C40.343811,30.5818996 40.218689,30.8965064 39.984314,31.1324614 C39.749939,31.3684165 39.437439,31.50237 39.1014405,31.50237 L36.2578125,31.5100509 C36.031372,31.5100509 35.8201905,31.6043715 35.6639405,31.7696629 L32.6796265,34.9077423 L29.999878,31.8169768 C29.843628,31.6360165 29.6171875,31.5337079 29.3828125,31.5337079 L29.374878,31.5337079 L20.984375,31.5493768 C20.656311,31.5493768 20.343811,31.4237184 20.109436,31.1877633 C19.875061,30.9518082 19.7423095,30.6372015 19.7423095,30.3066187 L19.734375,19.5943206 L26.3515015,19.5786517 C27.687561,19.5786517 28.8359375,18.6661693 29.156372,17.3684165 L39.078247,17.3370787 C39.765503,17.3370787 40.3203125,17.8956285 40.3203125,18.5875176 L40.343811,30.2439431 Z" id="Shape" fill="#000000" fill-rule="nonzero"></path>
            <path d="M30.33,20.39 C30.7258167,20.39 30.98,20.5069243 30.98,20.8 C30.98,20.8735351 30.960955,20.9425468 30.9271274,21.0074838 L30.88853,21.0710792 L30.829,21.144 L30.829,21.97 L34.31,21.97 C34.4046774,21.97 34.4870625,22.0226294 34.5294957,22.1002284 L34.5533973,22.1626773 L34.56,22.22 L34.56,23.22 C34.56,23.3383467 34.4777666,23.4374868 34.3673227,23.4633973 L34.31,23.47 L33.209,23.47 L33.2014189,23.4831063 C33.1716455,23.5236135 33.1326548,23.5605586 33.0853896,23.5959504 L33.004,23.65 L32.9085923,23.9159289 C32.5253275,24.9431806 32.0896607,25.7919747 31.5163801,26.593481 L31.2947828,26.8920854 L31.254,26.942 L31.4483058,27.0623233 C32.0848429,27.4345124 32.8301838,27.7085192 33.7642067,27.9163568 L34.1234658,27.9912568 L34.4626967,28.053673 C34.6350301,28.0835441 34.72421,28.2766036 34.6352316,28.4271823 L34.1161942,29.2987908 C34.0201075,29.4640444 33.9549318,29.5824127 33.8923918,29.7042012 C33.8376735,29.8107578 33.715063,29.8635283 33.600061,29.8300178 C32.0866782,29.3890321 30.966985,28.89174 30.0798512,28.23262 L30.019,28.186 L29.9310462,28.2544724 C29.1872623,28.8058026 28.3009904,29.2626948 27.2536625,29.6317981 L26.8533288,29.7661098 L26.479939,29.8800178 C26.3732106,29.9111174 26.2587675,29.8680063 26.1990846,29.7742189 L25.9713709,29.4231377 C25.7536024,29.094825 25.566193,28.8367988 25.4138576,28.6668863 C25.285128,28.5233032 25.3605531,28.2942026 25.5494026,28.2551737 C26.7436672,28.008359 27.72558,27.6362681 28.5104187,27.1425034 L28.741,26.988 L28.6137555,26.8324049 C28.0579073,26.1235996 27.5723015,25.1916891 27.1427104,24.0058562 L27.0154992,23.6424578 L26.958,23.47 L25.68,23.47 C25.5853226,23.47 25.5029375,23.4173706 25.4605043,23.3397716 L25.4366027,23.2773227 L25.43,23.22 L25.43,22.22 C25.43,22.1016533 25.5122334,22.0025132 25.6226773,21.9766027 L25.68,21.97 L29.139,21.97 L29.14,20.64 C29.14,20.5453226 29.1926294,20.4629375 29.2702284,20.4205043 L29.3326773,20.3966027 L29.39,20.39 L30.33,20.39 Z M31.225,23.47 L28.769,23.47 L28.7792219,23.4995066 C29.0698169,24.313762 29.4114572,25.0014461 29.8154434,25.5681301 L29.985,25.794 C30.4348094,25.2045535 30.7883108,24.5692739 31.0930487,23.8158787 L31.225,23.47 Z" id="文" fill="#000000" fill-rule="nonzero"></path>
            <path d="M13.2265015,15.7640449 C13.609497,15.7640449 13.8359375,15.6303985 13.9140625,15.3627985 L14.3358155,13.7977528 L16.953003,13.7977528 L17.375061,15.3627985 C17.4452515,15.6303985 17.6796265,15.7640449 18.062622,15.7640449 C18.3671875,15.7640449 18.656189,15.6774052 18.937561,15.512421 C19.2265625,15.3471296 19.3672485,15.1348315 19.3672485,14.9068644 C19.3672485,14.8752195 19.359314,14.8282127 19.34375,14.7572419 L16.968872,6.9630442 C16.8983765,6.74275806 16.734497,6.56978578 16.484253,6.44382022 C16.2422485,6.3258427 15.953247,6.27084794 15.6328125,6.27084794 C15.312378,6.27084794 15.031311,6.33383072 14.781372,6.44382022 C14.531128,6.56179775 14.3672485,6.73477003 14.296753,6.9630442 L11.937439,14.76523 C11.921875,14.8358936 11.9139405,14.8832075 11.9139405,14.9145453 C11.9139405,15.1505004 12.062561,15.3551176 12.343628,15.5201019 C12.625,15.6774052 12.921936,15.7640449 13.2265015,15.7640449 Z M14.7578735,12.1853933 L15.6328125,8.94500525 L16.5077515,12.1853933 L14.7578735,12.1853933 Z" id="Shape" fill="#000000" fill-rule="nonzero"></path>
        </g>
    </g>
</svg>