<?xml version="1.0" encoding="UTF-8"?>
<svg width="50px" height="50px" viewBox="0 0 50 50" version="1.1" xmlns="http://www.w3.org/2000/svg" xmlns:xlink="http://www.w3.org/1999/xlink">
    <title>icon/language_y</title>
    <g id="icon/language_y" stroke="none" stroke-width="1" fill="none" fill-rule="evenodd">
        <g id="translator" transform="translate(4.000000, 6.000000)">
            <path d="M3,0 L21.15,0 C22.8068542,-7.48448398e-16 24.15,1.34314575 24.15,3 L24.15,13.8 C24.15,15.4568542 22.8068542,16.8 21.15,16.8 L3,16.8 C1.34314575,16.8 -2.41183085e-16,15.4568542 0,13.8 L0,3 C-6.46995335e-16,1.34314575 1.34314575,-1.39730022e-16 3,0 Z" id="Rectangle" fill="#FFDB00"></path>
            <rect id="Rectangle" fill="#FFDB00" x="14.7" y="13.65" width="23.1" height="16.8" rx="3"></rect>
            <path d="M41.9673156,19.5088285 C41.9589844,17.8239159 40.5971375,16.4532106 38.9154969,16.4532106 L28.5962219,16.4780503 L28.5632172,5.23820225 C28.5552063,3.55361214 27.1933594,2.18258427 25.52005,2.18258427 L15.9877625,2.20742405 L12.8134094,2.2238764 C12.5836578,2.2238764 12.3622375,2.3148481 12.198175,2.48001664 C12.0341125,2.64518518 11.94375,2.86809821 11.94375,3.09939866 C11.94375,3.57812943 12.3375641,3.96653349 12.8134094,3.96653349 L15.9877625,3.94975864 L25.5117188,3.92524136 C26.2336578,3.92524136 26.8158875,4.51139618 26.8158875,5.23820225 L26.8488922,17.4771265 C26.8488922,17.8323034 26.7175141,18.1626404 26.4714203,18.4103933 C26.2253266,18.6581461 25.8972016,18.7984748 25.5444031,18.7984748 L15.3890625,18.839767 C15.1346375,18.839767 14.896875,18.947191 14.7328125,19.1452643 L11.94375,22.399278 L8.79387813,19.120747 C8.62981563,18.947191 8.40006407,18.8481544 8.1703125,18.8562193 L5.18450313,18.8646067 C4.83971562,18.8646067 4.51159062,18.7323429 4.26549687,18.4845901 C4.01940312,18.2368373 3.88001406,17.9065002 3.88001406,17.5516459 L3.83899843,5.31239909 C3.83899843,4.95754473 3.97037657,4.62720765 4.21647032,4.37945484 C4.46256407,4.13170203 4.79068907,3.99105078 5.14348751,3.99105078 L12.8134094,3.92524136 C13.2892547,3.92524136 14.7411438,3.59490428 14.7328125,3.11585102 C14.7328125,2.88455056 12.8130891,2.41388472 12.6410156,2.24871618 C12.4769531,2.08354764 6.49700313,2.24032876 6.26725157,2.24871618 L5.13515625,2.24871618 C4.32317501,2.24871618 3.56022032,2.57066584 2.98600157,3.14875573 C2.41178282,3.73523304 2.1,4.50333124 2.1,5.32078652 L2.13268437,17.5597108 C2.13268437,18.3774885 2.45279844,19.1452643 3.03502812,19.7233541 C3.60924687,20.2933791 4.37220156,20.6153288 5.17617188,20.6153288 L5.19251406,20.6153288 L7.80950313,20.6072638 L11.3612,24.3067811 C11.5252625,24.4719497 11.7550141,24.5713088 11.9847656,24.5713088 L12.0094391,24.5713088 C12.2555328,24.5629213 12.4852844,24.4554973 12.6410156,24.265489 L15.7908875,20.582424 L16.8820953,20.5740366 L16.8901062,31.8138847 C16.8901062,32.63134 17.2102203,33.3994382 17.7844391,33.9775281 C18.3586578,34.555618 19.1216125,34.8695027 19.9335938,34.8695027 L28.3664703,34.8446629 L31.5410156,38.5112755 C31.6967469,38.6932189 31.9348297,38.8087079 32.1725922,38.8087079 L32.1889344,38.8087079 C32.4270172,38.8087079 32.6567688,38.7096712 32.8125,38.5361153 L36.348175,34.8198231 L38.9648438,34.8117582 C39.776825,34.8117582 40.5397797,34.4894861 41.1139984,33.9113962 C41.6882172,33.3333063 42,32.5571431 42,31.7393654 L41.9673156,19.5088285 Z M40.2610016,31.7561402 C40.2610016,32.1109946 40.1296234,32.4413317 39.8835297,32.6890845 C39.6374359,32.9368373 39.3093109,33.0774885 38.9565125,33.0774885 L35.9707031,33.0855535 C35.7329406,33.0855535 35.5112,33.1845901 35.3471375,33.3581461 L32.2136078,36.6531294 L29.3998719,33.4078256 C29.2358094,33.2178173 28.9980469,33.1103933 28.7519531,33.1103933 L28.7436219,33.1103933 L19.9335937,33.1268456 C19.5891266,33.1268456 19.2610016,32.9949043 19.0149078,32.7471515 C18.7688141,32.4993987 18.629425,32.1690616 18.629425,31.8219497 L18.6210937,20.5740366 L25.5690766,20.5575843 C26.9719391,20.5575843 28.1777344,19.5994777 28.5141906,18.2368373 L38.9321594,18.2039326 C39.6537781,18.2039326 40.2363281,18.7904099 40.2363281,19.5168935 L40.2610016,31.7561402 Z" id="Shape" fill="#000000" fill-rule="nonzero"></path>
            <path d="M29.7465,21.4095 C30.1621075,21.4095 30.429,21.5322705 30.429,21.84 C30.429,21.9172118 30.4090028,21.9896742 30.3734837,22.057858 L30.3329565,22.1246331 L30.27045,22.2012 L30.27045,23.0685 L33.9255,23.0685 C34.0249113,23.0685 34.1114156,23.1237609 34.1559704,23.2052398 L34.1810672,23.2708112 L34.188,23.331 L34.188,24.381 C34.188,24.5052641 34.1016549,24.6093612 33.9856888,24.6365672 L33.9255,24.6435 L32.76945,24.6435 L32.7614899,24.6572616 C32.7302278,24.6997942 32.6892876,24.7385866 32.639659,24.7757479 L32.5542,24.8325 L32.4540219,25.1117253 C32.0515939,26.1903396 31.5941437,27.0815735 30.9921991,27.9231551 L30.759522,28.2366897 L30.7167,28.2891 L30.920721,28.4154395 C31.589085,28.806238 32.371693,29.0939451 33.3524171,29.3121747 L33.7296391,29.3908197 L34.0858315,29.4563566 C34.2667816,29.4877213 34.3604205,29.6904338 34.2669932,29.8485414 L33.7220039,30.7637303 C33.6211129,30.9372466 33.5526784,31.0615333 33.4870113,31.1894112 C33.4295571,31.3012957 33.3008162,31.3567047 33.1800641,31.3215187 C31.5910121,30.8584837 30.4153343,30.3363269 29.4838437,29.644251 L29.41995,29.5953 L29.3275985,29.6671961 C28.5466254,30.2460927 27.6160399,30.7258295 26.5163456,31.113388 L26.0959952,31.2544152 L25.7039359,31.3740187 C25.5918712,31.4066733 25.4717059,31.3614066 25.4090389,31.2629298 L25.1699395,30.8942946 C24.9412825,30.5495663 24.7445027,30.2786388 24.5845505,30.1002306 C24.4493844,29.9494684 24.5285807,29.7089128 24.7268727,29.6679324 C25.9808506,29.408777 27.011859,29.0180815 27.8359397,28.4996286 L28.07805,28.3374 L27.9444433,28.1740251 C27.3608027,27.4297796 26.8509166,26.4512736 26.3998459,25.206149 L26.2662742,24.8245807 L26.2059,24.6435 L24.864,24.6435 C24.7645887,24.6435 24.6780844,24.5882391 24.6335296,24.5067602 L24.6084328,24.4411888 L24.6015,24.381 L24.6015,23.331 C24.6015,23.2067359 24.6878451,23.1026388 24.8038112,23.0754328 L24.864,23.0685 L28.49595,23.0685 L28.497,21.672 C28.497,21.5725887 28.5522609,21.4860844 28.6337398,21.4415296 L28.6993112,21.4164328 L28.7595,21.4095 L29.7465,21.4095 Z M30.68625,24.6435 L28.10745,24.6435 L28.118183,24.6744819 C28.4233078,25.5294501 28.7820301,26.2515184 29.2062155,26.8465366 L29.38425,27.0837 C29.8565498,26.4647812 30.2277263,25.7977376 30.5477011,25.0066726 L30.68625,24.6435 Z" id="文" fill="#000000" fill-rule="nonzero"></path>
            <path d="M12.8378266,16.5522472 C13.2399719,16.5522472 13.4777344,16.4119184 13.5597656,16.1309384 L14.0026062,14.4876404 L16.7506531,14.4876404 L17.1938141,16.1309384 C17.2675141,16.4119184 17.5136078,16.5522472 17.9157531,16.5522472 C18.2355469,16.5522472 18.5389984,16.4612755 18.8344391,16.288042 C19.1378906,16.1144861 19.2856109,15.891573 19.2856109,15.6522076 C19.2856109,15.6189804 19.2772797,15.5696234 19.2609375,15.495104 L16.7673156,7.31119641 C16.6932953,7.07989596 16.5212219,6.89827506 16.2584656,6.76601124 C16.0043609,6.64213483 15.7009094,6.58439034 15.3644531,6.58439034 C15.0279969,6.58439034 14.7328766,6.65052226 14.4704406,6.76601124 C14.2076844,6.88988764 14.0356109,7.07150854 13.9615906,7.31119641 L11.4843109,15.5034915 C11.4679687,15.5776883 11.4596375,15.6273679 11.4596375,15.6602726 C11.4596375,15.9080254 11.6156891,16.1228735 11.9108094,16.296107 C12.20625,16.4612755 12.5180328,16.5522472 12.8378266,16.5522472 Z M14.4457672,12.7946629 L15.3644531,9.39225551 L16.2831391,12.7946629 L14.4457672,12.7946629 Z" id="Shape" fill="#000000" fill-rule="nonzero"></path>
        </g>
    </g>
</svg>