<?xml version="1.0" encoding="UTF-8"?>
<svg width="50px" height="50px" viewBox="0 0 50 50" version="1.1" xmlns="http://www.w3.org/2000/svg" xmlns:xlink="http://www.w3.org/1999/xlink">
    <title>icon/research_y</title>
    <g id="icon/research_y" stroke="none" stroke-width="1" fill="none" fill-rule="evenodd">
        <g id="research" transform="translate(3.000000, 3.000000)">
            <rect id="Rectangle" fill="#FFDB00" x="0.5" y="0.5" width="32" height="23" rx="3"></rect>
            <rect id="Rectangle" fill="#FFDB00" x="12" y="27" width="4.4" height="5"></rect>
            <circle id="Oval" fill="#FFDB00" cx="26.25" cy="25.25" r="7.25"></circle>
            <rect id="Rectangle" fill="#FFDB00" transform="translate(35.792893, 38.500000) rotate(-45.000000) translate(-35.792893, -38.500000) " x="33.7928932" y="34.5" width="4" height="8"></rect>
            <path d="M33.8833594,3 L5.55,3 C4.14168264,3 3,4.14168264 3,5.55 L3,25.55 C3,26.9583174 4.14168264,28.1 5.55,28.1 L16.3833594,28.1 L16.4333594,26.3833594 L5.55,26.3333594 C5.11737986,26.3333594 4.76664062,25.9826201 4.76664062,25.55 L4.76664062,5.55 C4.76664062,5.11737986 5.11737986,4.76664062 5.55,4.76664062 L33.8833594,4.76664062 C34.3159795,4.76664062 34.6667187,5.11737986 34.6667187,5.55 L34.6667187,20.55 L36.3833594,20.6 L36.4333594,5.55 C36.4333594,4.14168264 35.2916767,3 33.8833594,3 Z" id="Path" fill="#000000" fill-rule="nonzero"></path>
            <polygon id="Path" fill="#000000" fill-rule="nonzero" points="14.7166406 27.1666406 13.05 27.1666406 13 32.2166406 14.7166406 32.2666406 14.7666406 27.2166406"></polygon>
            <path d="M27.1026563,17.9991406 C29.5177208,17.9991406 31.8337748,18.9585312 33.5412182,20.6662888 C37.0962815,24.2220591 37.0957471,29.9864514 33.5400396,33.5415305 C31.8327155,35.2485403 29.5174757,36.2075 27.1033594,36.2075 C22.0752246,36.2075 17.9990638,32.1317036 17.9988281,27.1036719 C17.9988281,22.16375 21.9328686,18.1426925 26.8389169,18.0028997 L27.1026563,17.9991406 Z M27.1034941,19.766587 C23.0509703,19.7652437 19.7647561,23.0492583 19.7633585,27.1016579 C19.7619626,31.1540258 23.045973,34.4402439 27.0983766,34.4416415 C31.1507445,34.4430374 34.4369626,31.159027 34.4383601,27.1066247 C34.4389801,25.1611403 33.6669814,23.2950252 32.2920174,21.9185089 C30.9198073,20.536367 29.0511549,19.7613639 27.1034941,19.766587 Z" id="Combined-Shape" fill="#000000" fill-rule="nonzero"></path>
            <path d="M36.9858594,33.7767187 C37.1809858,33.7767187 37.3695378,33.8413892 37.5228328,33.9588106 L37.6103495,34.0354982 L42.841219,39.2646489 C43.1573153,39.5808211 43.1836566,40.0770088 42.9202398,40.4232507 L42.8412147,40.5137147 L40.5163732,42.8385555 C40.3787707,42.9774002 40.1997617,43.0658779 40.0061386,43.0918824 L39.8884254,43.0998914 L39.7756408,43.0923375 C39.6219049,43.0719467 39.476728,43.0114756 39.35443,42.9176911 L39.2672201,42.8412121 L34.0363549,37.6095656 C33.7202625,37.2933213 33.6939215,36.7971277 33.9573384,36.4509491 L34.0363634,36.360504 L36.3613634,34.035504 C36.5270431,33.8698243 36.7516576,33.7767187 36.9858594,33.7767187 Z M36.9839219,35.907 L35.8744997,36.9496484 L39.8562853,41.003004 L41.0029222,39.9270703 L36.9839219,35.907 Z" id="Combined-Shape" fill="#000000" fill-rule="nonzero"></path>
            <polygon id="Path" fill="#000000" fill-rule="nonzero" transform="translate(34.369594, 34.369153) rotate(-45.000000) translate(-34.369594, -34.369153) " points="35.2029065 32.2641729 33.5362819 32.2641729 33.4862819 36.4241335 35.2029065 36.4741335 35.2529065 32.3141729"></polygon>
            <path d="M27.2166976,21.3333594 L27.1666406,23.05 L27.2165812,23.1 C29.4890643,23.1027015 31.3305797,24.9442407 31.3332813,27.2167001 L33.0499219,27.2666406 C33.0962973,23.9689363 30.4644238,21.3370627 27.2166976,21.3333594 Z" id="Path" fill="#000000" fill-rule="nonzero"></path>
            <polygon id="Path" fill="#000000" fill-rule="nonzero" points="18.05 31.3333594 11.3833594 31.3333594 11.3333594 33.05 18.05 33.1 18.1 31.3833594"></polygon>
            <path d="M15.55,6.38335937 C14.1692969,6.38335937 13.05,7.50265625 13.05,8.88335937 C13.05,10.2640625 14.1692969,11.3833594 15.55,11.3833594 C16.9307031,11.3833594 18.05,10.2640625 18.05,8.88335937 C18.05,7.50265625 16.9307031,6.38335937 15.55,6.38335937 Z M15.55,9.71664062 C15.0897656,9.71664062 14.7166406,9.34351562 14.7166406,8.88328125 C14.7166406,8.42304687 15.0897656,8.04992187 15.55,8.04992187 C16.0102344,8.04992187 16.3833594,8.42304687 16.3833594,8.88328125 C16.3833594,9.34359375 16.0102344,9.71664062 15.55,9.71664062 Z" id="Shape" fill="#000000" fill-rule="nonzero"></path>
            <path d="M21.3833594,12.2166406 C20.0026563,12.2166406 18.8833594,13.3359375 18.8833594,14.7166406 C18.8833594,16.0973438 20.0026563,17.2166406 21.3833594,17.2166406 C22.7640625,17.2166406 23.8833594,16.0973438 23.8833594,14.7166406 C23.8833594,13.3359375 22.7640625,12.2166406 21.3833594,12.2166406 Z M21.3833594,15.55 C20.923125,15.55 20.55,15.176875 20.55,14.7166406 C20.55,14.2564063 20.923125,13.8832812 21.3833594,13.8832812 C21.8435938,13.8832812 22.2167188,14.2564063 22.2167188,14.7166406 C22.2166406,15.176875 21.8435938,15.55 21.3833594,15.55 Z" id="Shape" fill="#000000" fill-rule="nonzero"></path>
            <polygon id="Rectangle" fill="#000000" fill-rule="nonzero" transform="translate(12.633243, 11.800229) rotate(-45.000000) translate(-12.633243, -11.800229) " points="9.68702127 10.9669162 15.5794648 10.9669162 15.5794648 12.6335408 9.68702127 12.6335408"></polygon>
            <polygon id="Rectangle" fill="#000000" fill-rule="nonzero" transform="translate(18.462985, 11.802352) rotate(-45.000000) translate(-18.462985, -11.802352) " points="17.6296729 8.85612985 19.2962976 8.85612985 19.2962976 14.7485733 17.6296729 14.7485733"></polygon>
            <path d="M27.2166406,6.38335937 C25.8359375,6.38335937 24.7166406,7.50265625 24.7166406,8.88335937 C24.7166406,10.2640625 25.8359375,11.3833594 27.2166406,11.3833594 C28.5973438,11.3833594 29.7166406,10.2640625 29.7166406,8.88335937 C29.7167187,7.50265625 28.5974219,6.38335937 27.2166406,6.38335937 Z M27.2166406,9.71664062 C26.7564062,9.71664062 26.3832813,9.34351562 26.3832813,8.88328125 C26.3832813,8.42304687 26.7564063,8.04992187 27.2166406,8.04992187 C27.676875,8.04992187 28.05,8.42304687 28.05,8.88328125 C28.05,9.34359375 27.676875,9.71664062 27.2166406,9.71664062 Z" id="Shape" fill="#000000" fill-rule="nonzero"></path>
            <polygon id="Rectangle" fill="#000000" fill-rule="nonzero" transform="translate(24.299477, 11.803152) rotate(-45.000000) translate(-24.299477, -11.803152) " points="21.3532555 10.9698402 27.245699 10.9698402 27.245699 12.6364648 21.3532555 12.6364648"></polygon>
        </g>
    </g>
</svg>