<?xml version="1.0" encoding="UTF-8"?>
<svg width="50px" height="50px" viewBox="0 0 50 50" version="1.1" xmlns="http://www.w3.org/2000/svg" xmlns:xlink="http://www.w3.org/1999/xlink">
    <title>icon/tool_y</title>
    <g id="icon/tool_y" stroke="none" stroke-width="1" fill="none" fill-rule="evenodd">
        <g id="technics" transform="translate(5.000000, 5.000000)" fill-rule="nonzero">
            <path d="M22.8412433,2.50649024 C24.2960608,1.05175858 26.3485327,0.37698325 28.3678503,0.663054706 C29.5642364,0.832543609 30.0529095,2.29571855 29.1984898,3.1501383 L29.1984898,3.1501383 L27.7696772,4.57895086 C27.4723202,4.87627289 27.3115596,5.26435971 27.3115596,5.68488991 C27.3115596,6.1053905 27.4723043,6.49342108 27.7697677,6.79091947 C28.3785996,7.39978609 29.3727855,7.3997753 29.9816709,6.79088993 L29.9816709,6.79088993 L31.4104225,5.36213835 C32.2648655,4.50769529 33.7280809,4.9964216 33.8975161,6.19284861 C34.1834907,8.21219226 33.5086663,10.264789 32.05404,11.7194153 C30.2222508,13.5512045 27.4833297,14.1135971 25.0959938,13.1899815 L25.0959938,13.1899815 L24.9359638,13.1243245 L21.0251896,17.0331964 C21.131349,17.0776625 21.2336851,17.1353051 21.3298452,17.2063003 L21.3298452,17.2063003 L23.8699603,19.0816714 C24.1921824,19.3195685 24.3860828,19.6606757 24.4454339,20.0217925 C24.8121628,19.9718954 25.19608,20.0608555 25.5129395,20.2947971 L25.5129395,20.2947971 L29.6821519,23.3729837 C29.7408998,23.4163581 29.7963234,23.4640632 29.8479592,23.5157003 L29.8479592,23.5157003 L32.6506327,26.3184411 C34.5983879,28.2661963 34.3711719,31.5103836 32.0761255,33.1633369 C30.2943487,34.4465422 27.7594243,34.1405745 26.1412406,32.5223909 L26.1412406,32.5223909 L23.4723655,29.8535831 L23.3769952,29.7484977 L20.122437,25.7933691 C19.8733515,25.4906658 19.7648376,25.1153975 19.7929063,24.7498646 C19.4330543,24.7088675 19.0852355,24.5327477 18.8332389,24.2265193 L18.8332389,24.2265193 L16.9211999,21.903533 L16.8444215,21.8191661 C16.7474544,21.7038639 16.6710497,21.5770808 16.6152312,21.4436847 L13.1206407,24.9387856 L13.1866351,25.0987374 C14.0804536,27.4089149 13.5825856,30.0485263 11.8893795,31.8765754 L11.8893795,31.8765754 L11.7160817,32.0566328 C10.4868787,33.2858358 8.82471738,33.96442 7.10316953,33.96442 C6.79736965,33.96442 6.49197717,33.9429607 6.18906992,33.8999976 C4.99282222,33.7303267 4.50432917,32.2672888 5.35867007,31.4129479 L5.35867007,31.4129479 L6.78745112,29.9841669 C7.39918226,29.3724705 7.39921447,28.3839869 6.78739212,27.7722341 C6.17856021,27.1633675 5.18437432,27.1633783 4.57548895,27.7722636 L4.57548895,27.7722636 L3.14673736,29.2010152 C2.29229431,30.0554583 0.829078882,29.566732 0.659643741,28.370305 C0.37366911,26.3509613 1.04849349,24.2983646 2.50309676,22.8437613 C4.33483802,21.0119384 7.07368109,20.4495931 9.46093513,21.3731078 L9.46093513,21.3731078 L9.62009161,21.4382364 L13.5931673,17.4650038 C13.3696882,17.3712618 13.165829,17.2202643 13.0050198,17.0134717 L13.0050198,17.0134717 L12.7906577,16.7279711 C12.7664839,16.6985853 12.7286913,16.6553905 12.6700197,16.5906344 L12.6700197,16.5906344 L6.08937277,9.60998352 L5.90820865,9.79252729 C5.26471726,10.4359343 4.20760002,10.3386024 3.68625406,9.61744589 L3.68625406,9.61744589 L3.61552329,9.51019245 L1.0358209,5.21055379 C0.316911873,4.01237207 0.50523132,2.48216285 1.49324175,1.49415242 C2.48131723,0.505947137 4.01160201,0.317651636 5.20977195,1.0366315 L5.20977195,1.0366315 L9.50936502,3.61637387 C10.326916,4.10690187 10.4657388,5.23517393 9.79148158,5.90925435 L9.79148158,5.90925435 L9.5899219,6.10943439 L15.9591372,12.8642676 C16.0647765,12.9738842 16.1434653,13.0542358 16.2012434,13.1118561 L16.2012434,13.1118561 L16.3178856,13.2230566 L16.5940246,13.4248404 C16.801082,13.5858941 16.9521864,13.7901097 17.0458738,14.0139602 L21.4354147,9.62377539 L21.3706655,9.46444275 C20.4768358,7.15430166 20.9747121,4.51462775 22.667943,2.68655039 L22.667943,2.68655039 Z" id="Combined-Shape" fill="#FFDB00"></path>
            <path d="M3.48762032,3.48834594 C2.42529366,4.5506726 2.22280918,6.1959812 2.99579316,7.48428782 L5.76953577,12.107337 L5.84558677,12.2226578 C6.40614736,12.9980583 7.54277891,13.1027114 8.23467249,12.4109085 L8.42946341,12.2146341 L15.5050939,19.720356 C15.5681787,19.7899831 15.6088139,19.8364268 15.634806,19.8680229 L15.865292,20.1749983 C16.4470905,20.9231623 17.5529714,20.9920857 18.2231646,20.3219515 L19.8709656,18.6742953 C20.5411461,18.0041736 20.4723371,16.8983115 19.7242548,16.3164371 L19.4273452,16.0994755 L19.3019294,15.9799108 C19.2398053,15.9179564 19.1551977,15.8315609 19.0416124,15.7136991 L12.1933171,8.45078049 L12.4100377,8.23554329 C13.1350112,7.51075984 12.9857464,6.29762134 12.1067009,5.77019678 L7.48370073,2.99641118 C6.19540676,2.22335104 4.55001692,2.42580977 3.48762032,3.48834594 Z M6.67299162,4.34744665 L11.2960595,7.12127287 L10.7437995,7.67338796 C10.3285366,8.08865091 10.318689,8.75886433 10.7216425,9.1860747 L17.7597092,16.653472 C18.5367542,17.4661104 18.3950165,17.2786489 18.7568902,17.560122 L17.1090892,19.2077782 L16.8398657,18.8528739 C16.5532824,18.5089997 15.6141825,17.5362166 9.23060595,10.7673323 C8.80969512,10.3210785 8.10407393,10.3132584 7.6728811,10.7445236 L7.12062119,11.2967111 L4.34686738,6.67364329 C3.9458689,6.0053125 4.05064405,5.15357088 4.60181784,4.6023971 C5.15299162,4.05115091 6.00473323,3.94644817 6.67299162,4.34744665 Z" id="Path" fill="#000000"></path>
            <path d="M26.2550416,4.77043378 C24.4344492,6.73601558 23.8991236,9.57424065 24.8601854,12.0581461 L24.9298049,12.2294634 L12.2257561,24.9325854 L12.0546282,24.8625579 C9.4878095,23.8695782 6.54295596,24.4742221 4.57343467,26.4438311 C3.00941896,28.0078468 2.28383559,30.2148359 2.59132068,32.3860707 C2.7735004,33.6724906 4.34677606,34.197978 5.26548867,33.2792653 L6.80170818,31.7430458 C7.45639273,31.0883613 8.52535936,31.0883497 9.17998643,31.7430141 C9.83782887,32.4007817 9.83779424,33.4636172 9.18004987,34.1213242 L7.64379868,35.6575754 C6.72519591,36.5761781 7.25043246,38.1492629 8.5366596,38.331696 C8.86235094,38.3778908 9.19071445,38.4009642 9.51951601,38.4009642 C11.3705554,38.4009642 13.1577412,37.6713382 14.4794025,36.3496769 L14.6657355,36.1560759 C16.4863012,34.1905246 17.0216179,31.3523667 16.0605681,28.8684222 L15.9896098,28.696439 L28.6936585,15.9933171 L28.8657257,16.0639126 C31.4326324,17.0570009 34.3775698,16.4523062 36.3471426,14.4827333 C37.9111832,12.9186928 38.6367665,10.7117037 38.3292815,8.54046897 C38.1471017,7.25404902 36.5738261,6.72856167 35.6551135,7.64727429 L34.1188939,9.1834938 C33.4642094,9.83817835 32.3952428,9.83818995 31.7406157,9.18352556 C31.4207777,8.86364991 31.2479421,8.44643243 31.2479421,7.99430259 C31.2479421,7.54214092 31.4207947,7.12486297 31.7405184,6.80517695 L33.2768035,5.26889187 C34.195491,4.35020432 33.6700609,2.77697219 32.3836849,2.59473466 C30.2124782,2.28714547 28.0056232,3.01267609 26.4413773,4.57682986 L26.2550416,4.77043378 Z M32.1626791,4.15476753 L30.6264596,5.69098704 C30.0112043,6.30616997 29.6723323,7.12424162 29.6723323,7.99430259 C29.6723323,8.86436357 30.0112043,9.6822904 30.6264596,10.2976181 C31.8964329,11.5676639 33.963045,11.5675915 35.2330183,10.2976181 L36.7692378,8.76139863 C37.0044207,10.4220884 36.4609223,12.140705 35.2330183,13.368609 C33.6084604,14.9931669 31.1250648,15.4197256 29.0533117,14.4300457 C28.638266,14.2317187 28.143064,14.3165816 27.8175877,14.6419855 L14.6385823,27.820122 C14.3131784,28.1455259 14.2282431,28.6406555 14.4266425,29.0559184 C15.4163948,31.1276715 14.9897637,33.6110671 13.3652782,35.2355526 C12.3244779,36.2763529 10.9313377,36.8253544 9.51951601,36.8253544 C9.26557927,36.8253544 9.01113567,36.8076143 8.75792302,36.7716997 L10.2941425,35.2354802 C11.567157,33.9625381 11.5673742,31.9020084 10.2941425,30.6289215 C9.02416921,29.3588758 6.95755716,29.3589482 5.68758384,30.6289215 L4.15136433,32.165141 C3.9161814,30.5044512 4.45967988,28.7858346 5.68758384,27.5579306 C7.31214177,25.9333003 9.79546494,25.5068864 11.867218,26.4964939 C12.2824085,26.6948209 12.7774657,26.6100305 13.1030145,26.2845541 L26.2820922,13.1064177 C26.6074962,12.7810137 26.6924314,12.2858841 26.4941044,11.8706212 C25.5043521,9.79894055 25.9309832,7.31547256 27.5554688,5.69098704 C28.7835899,4.46293826 30.5020617,3.9195122 32.1626791,4.15476753 Z" id="Path" fill="#000000"></path>
            <path d="M22.7663667,20.5357314 L20.0865992,23.2152817 C19.5034561,23.7983776 19.473466,24.7238195 19.9934861,25.3421679 L20.0760397,25.4328807 L22.1318985,27.9305975 C22.7230876,28.6490156 23.8047707,28.7014353 24.4626571,28.0435489 L27.7257478,24.7804582 C28.4071289,24.0990771 28.3226983,22.9711147 27.5474723,22.3987641 L24.8162947,20.3823312 C24.1891295,19.919294 23.3176329,19.9845099 22.7663667,20.5357314 Z M23.8804459,21.6499009 L26.6116235,23.6663338 L23.3485328,26.9294245 L21.2006784,24.3294512 L23.8804459,21.6499009 Z" id="Path" fill="#000000"></path>
            <path d="M27.2640502,23.8565769 L23.6205975,27.5000296 C23.047019,28.073608 23.0026518,28.9889394 23.5180676,29.6153027 L27.0174274,33.8679284 L27.1199713,33.9809181 L29.989594,36.8504684 C31.7294943,38.5903687 34.4550908,38.9193507 36.3708894,37.5396252 C38.8385648,35.7623399 39.0828715,32.2741312 36.9886099,30.1798696 L33.9751248,27.1663121 C33.9196049,27.1107909 33.8600126,27.0594975 33.7968457,27.0128606 L29.3140332,23.7031388 C28.6868484,23.2400796 27.8153145,23.3053126 27.2640502,23.8565769 Z M28.3781745,24.9707012 L32.860987,28.280423 L35.8744855,31.2939939 C37.2519131,32.6714215 37.1634299,35.0270884 35.4500991,36.2610747 C34.1836738,37.1731326 32.3150991,36.9477248 31.1037043,35.73633 L28.2340816,32.8667797 L24.7347218,28.614154 L28.3781745,24.9707012 Z" id="Path" fill="#000000"></path>
            <path d="M34.3203087,32.6425305 L29.9771723,28.2993941 C29.5532203,27.8753697 28.8657012,27.8753697 28.4416768,28.2993941 C28.0176524,28.7234184 28.0176524,29.4108651 28.4416768,29.8348895 L32.7848133,34.1780259 C33.2087652,34.6019779 33.8962843,34.6020503 34.3203087,34.1780259 C34.7443331,33.7540015 34.7443331,33.0665549 34.3203087,32.6425305 Z" id="Path" fill="#000000"></path>
        </g>
    </g>
</svg>