<?xml version="1.0" encoding="UTF-8"?>
<svg width="24px" height="24px" viewBox="0 0 24 24" version="1.1" xmlns="http://www.w3.org/2000/svg" xmlns:xlink="http://www.w3.org/1999/xlink">
    <title>icon_small/back</title>
    <g id="icon_small/back" stroke="none" stroke-width="1" fill="none" fill-rule="evenodd">
        <path d="M9.90386037,4.8504897 C11.0370303,3.71736824 12.8795822,3.7165445 14.0133336,4.84777622 L14.0133336,4.84777622 L17.6803153,8.46959778 C18.0610751,8.84570592 18.064903,9.45929228 17.6887949,9.84010056 C17.3126868,10.2208604 16.6991004,10.2246883 16.3182921,9.8485802 L16.3182921,9.8485802 L12.929,6.501 L12.9290548,19.0308989 C12.9290548,19.5279024 12.5549556,19.9375019 12.0729741,19.9934804 L11.9599537,20 C11.4247192,20 10.9908526,19.5661334 10.9908526,19.0308989 L10.9908526,19.0308989 L10.99,6.504 L7.65467362,9.84407388 C7.49695241,10.0018758 7.2983136,10.0939943 7.09288324,10.120317 L6.96908304,10.1282143 C6.72118698,10.1282143 6.47338782,10.033727 6.28412238,9.84465534 C5.90554303,9.46636672 5.9052523,8.85278036 6.28349246,8.47415256 L6.28349246,8.47415256 Z" id="Combined-Shape" fill="#000000" fill-rule="nonzero" transform="translate(11.984200, 12.000000) rotate(-90.000000) translate(-11.984200, -12.000000) "></path>
    </g>
</svg>