<?xml version="1.0" encoding="UTF-8"?>
<svg width="24px" height="24px" viewBox="0 0 24 24" version="1.1" xmlns="http://www.w3.org/2000/svg" xmlns:xlink="http://www.w3.org/1999/xlink">
    <title>icon_small/calander</title>
    <g id="icon_small/calander" stroke="none" stroke-width="1" fill="none" fill-rule="evenodd">
        <g id="calendar" transform="translate(4.000000, 4.000000)" fill="#000000" fill-rule="nonzero">
            <path d="M14.2817406,1.71380753 L12.5679331,1.71380753 L12.5679331,0.571280335 C12.5679331,0.25576569 12.3121674,0 11.9966527,0 C11.6811381,0 11.4253724,0.25576569 11.4253724,0.571280335 L11.4253724,1.71380753 L4.57014226,1.71380753 L4.57014226,0.571280335 C4.57014226,0.25576569 4.31437657,0 3.9988954,0 C3.68341423,0 3.42761506,0.25576569 3.42761506,0.571280335 L3.42761506,1.71380753 L1.71380753,1.71380753 C0.767297071,1.71380753 0,2.4811046 0,3.42761506 L0,14.2817406 C0,15.228251 0.767297071,15.9955481 1.71380753,15.9955481 L14.2817406,15.9955481 C15.228251,15.9955481 15.9955481,15.228251 15.9955481,14.2817406 L15.9955481,3.42761506 C15.9955481,2.4811046 15.228251,1.71380753 14.2817406,1.71380753 Z M14.8529874,14.2817406 C14.8529874,14.5972552 14.5972218,14.8530209 14.2817071,14.8530209 L1.71380753,14.8530209 C1.39829289,14.8530209 1.1425272,14.5972552 1.1425272,14.2817406 L1.1425272,6.85523013 L14.8529874,6.85523013 L14.8529874,14.2817406 Z M14.8530544,5.71270293 L1.1425272,5.71270293 L1.1425272,3.42761506 C1.1425272,3.11210042 1.39829289,2.85633473 1.71380753,2.85633473 L3.42761506,2.85633473 L3.42761506,3.99886192 C3.42761506,4.31437657 3.68338075,4.57014226 3.9988954,4.57014226 C4.31441004,4.57014226 4.57017573,4.31437657 4.57017573,3.99886192 L4.57017573,2.85633473 L11.4254059,2.85633473 L11.4254059,3.99886192 C11.4254059,4.31437657 11.6811715,4.57014226 11.9966862,4.57014226 C12.3122008,4.57014226 12.5679665,4.31437657 12.5679665,3.99886192 L12.5679665,2.85633473 L14.2817741,2.85633473 C14.5972887,2.85633473 14.8530544,3.11210042 14.8530544,3.42761506 L14.8530544,5.71270293 L14.8530544,5.71270293 Z" id="Shape"></path>
            <path d="M4.57014226,8.99775732 L3.42761506,8.99775732 C3.11210042,8.99775732 2.85633473,9.25352301 2.85633473,9.56903766 C2.85633473,9.8845523 3.11210042,10.140318 3.42761506,10.140318 L4.57014226,10.140318 C4.8856569,10.140318 5.14142259,9.8845523 5.14142259,9.56903766 C5.14142259,9.25352301 4.8856569,8.99775732 4.57014226,8.99775732 Z" id="Path"></path>
            <path d="M8.56903766,8.99775732 L7.42651046,8.99775732 C7.11099582,8.99775732 6.85523013,9.25352301 6.85523013,9.56903766 C6.85523013,9.8845523 7.11099582,10.140318 7.42651046,10.140318 L8.56903766,10.140318 C8.8845523,10.140318 9.14031799,9.8845523 9.14031799,9.56903766 C9.14031799,9.25352301 8.8845523,8.99775732 8.56903766,8.99775732 Z" id="Path"></path>
            <path d="M12.5679331,8.99775732 L11.4254059,8.99775732 C11.1098912,8.99775732 10.8541255,9.25352301 10.8541255,9.56903766 C10.8541255,9.8845523 11.1098912,10.140318 11.4254059,10.140318 L12.5679331,10.140318 C12.8834477,10.140318 13.1392134,9.8845523 13.1392134,9.56903766 C13.1391799,9.25352301 12.8834142,8.99775732 12.5679331,8.99775732 Z" id="Path"></path>
            <path d="M4.57014226,11.78 L3.42761506,11.78 C3.11210042,11.78 2.85633473,12.0357657 2.85633473,12.3512803 C2.85633473,12.666795 3.11210042,12.9225607 3.42761506,12.9225607 L4.57014226,12.9225607 C4.8856569,12.9225607 5.14142259,12.666795 5.14142259,12.3512803 C5.14142259,12.0357657 4.8856569,11.78 4.57014226,11.78 Z" id="Path"></path>
            <path d="M8.56903766,11.78 L7.42651046,11.78 C7.11099582,11.78 6.85523013,12.0357657 6.85523013,12.3512803 C6.85523013,12.666795 7.11099582,12.9225607 7.42651046,12.9225607 L8.56903766,12.9225607 C8.8845523,12.9225607 9.14031799,12.666795 9.14031799,12.3512803 C9.14031799,12.0357657 8.8845523,11.78 8.56903766,11.78 Z" id="Path"></path>
            <path d="M12.5679331,11.78 L11.4254059,11.78 C11.1098912,11.78 10.8541255,12.0357657 10.8541255,12.3512803 C10.8541255,12.666795 11.1098912,12.9225607 11.4254059,12.9225607 L12.5679331,12.9225607 C12.8834477,12.9225607 13.1392134,12.666795 13.1392134,12.3512803 C13.1391799,12.0357657 12.8834142,11.78 12.5679331,11.78 Z" id="Path"></path>
        </g>
    </g>
</svg>