<?xml version="1.0" encoding="UTF-8"?>
<svg width="24px" height="24px" viewBox="0 0 24 24" version="1.1" xmlns="http://www.w3.org/2000/svg" xmlns:xlink="http://www.w3.org/1999/xlink">
    <title>icon_small/close</title>
    <g id="icon_small/close" stroke="none" stroke-width="1" fill="none" fill-rule="evenodd">
        <g id="Group" transform="translate(4.000000, 4.000000)" fill="#000000" fill-rule="nonzero">
            <path d="M14.1790861,0.312419433 C14.5956453,-0.104139811 15.2710213,-0.104139811 15.6875806,0.312419433 C16.0720968,0.696935659 16.101675,1.30198212 15.7763151,1.72042607 L15.6875806,1.8209139 L1.8209139,15.6875806 C1.40435466,16.1041398 0.728978678,16.1041398 0.312419433,15.6875806 C-0.0720967923,15.3030643 -0.101674964,14.6980179 0.22368492,14.2795739 L0.312419433,14.1790861 L14.1790861,0.312419433 Z" id="Line"></path>
            <path d="M14.1790861,0.312419433 C14.5956453,-0.104139811 15.2710213,-0.104139811 15.6875806,0.312419433 C16.0720968,0.696935659 16.101675,1.30198212 15.7763151,1.72042607 L15.6875806,1.8209139 L1.8209139,15.6875806 C1.40435466,16.1041398 0.728978678,16.1041398 0.312419433,15.6875806 C-0.0720967923,15.3030643 -0.101674964,14.6980179 0.22368492,14.2795739 L0.312419433,14.1790861 L14.1790861,0.312419433 Z" id="Line" transform="translate(8.000000, 8.000000) rotate(-270.000000) translate(-8.000000, -8.000000) "></path>
        </g>
    </g>
</svg>