<?xml version="1.0" encoding="UTF-8"?>
<svg width="24px" height="24px" viewBox="0 0 24 24" version="1.1" xmlns="http://www.w3.org/2000/svg" xmlns:xlink="http://www.w3.org/1999/xlink">
    <title>icon_small/mail</title>
    <g id="icon_small/mail" stroke="none" stroke-width="1" fill="none" fill-rule="evenodd">
        <g id="mail">
            <rect id="Rectangle" x="0" y="0" width="24" height="24"></rect>
            <path d="M19.2,5 C20.1405,5 20.91855,5.731025 20.9940038,6.65292875 L21,6.8 L21,17.6 C21,18.5405 20.268975,19.31855 19.3470713,19.3940037 L19.2,19.4 L4.8,19.4 C3.8595,19.4 3.08145,18.668975 3.00599625,17.7470713 L3,17.6 L3.009,6.8 C3.009,5.8595 3.7319025,5.08145 4.652994,5.00599625 L4.8,5 L19.2,5 Z M19.2,6.5 L4.8,6.5 C4.66497143,6.5 4.54762449,6.59873809 4.51685215,6.73202478 L4.50899948,6.80125 L4.5,17.6 C4.5,17.738491 4.60170156,17.859977 4.73250767,17.891861 L4.8,17.9 L19.2,17.9 C19.338491,17.9 19.459977,17.7982984 19.491861,17.6674923 L19.5,17.6 L19.5,6.8 C19.5,6.66150896 19.3982984,6.54002297 19.2674923,6.50813903 L19.2,6.5 Z" id="Shape-path" fill="#000000" fill-rule="nonzero"></path>
            <polygon id="Path" fill="#000000" fill-rule="nonzero" points="19.35 9.6 19.35 7.52936285 12 12.122 4.65 7.52936285 4.65 9.6 4.72050016 9.72719975 11.9205002 14.2271997 12.0794998 14.2271997 19.2794998 9.72719975"></polygon>
        </g>
    </g>
</svg>