<?xml version="1.0" encoding="utf-8"?>
<!-- Generator: Adobe Illustrator 16.0.4, SVG Export Plug-In . SVG Version: 6.00 Build 0)  -->
<!DOCTYPE svg PUBLIC "-//W3C//DTD SVG 1.1//EN" "http://www.w3.org/Graphics/SVG/1.1/DTD/svg11.dtd">
<svg version="1.1" id="圖層_1" xmlns="http://www.w3.org/2000/svg" xmlns:xlink="http://www.w3.org/1999/xlink" x="0px" y="0px"
	 width="100px" height="100px" viewBox="0 0 100 100" enable-background="new 0 0 100 100" xml:space="preserve">
<g>
	<path fill="#FFAB00" d="M55.143,40.8c0,12.138-9.838,21.976-21.976,21.976c-12.138,0-21.977-9.838-21.977-21.976
		c0-12.137,9.839-21.976,21.977-21.976C45.304,18.824,55.143,28.663,55.143,40.8"/>
	<path fill="#FFAB00" d="M12.679,89.886c0-14.675,9.172-26.569,20.487-26.569c11.314,0,20.486,11.896,20.486,26.569"/>
	<circle fill="#F70059" cx="74.52" cy="24.392" r="15.035"/>
	<polygon fill="#F70059" points="62.311,26.274 56.23,34.646 65.824,34.882 	"/>
	
		<text transform="matrix(0.9999 0.0114 -0.0114 0.9999 70.0938 32.2979)" fill="#FFFFFF" font-family="'Calibri-Bold'" font-size="24.3683">!</text>
	<g enable-background="new    ">
		<path fill="none" stroke="#FFFFFF" stroke-width="0.5" stroke-miterlimit="10" d="M76.204,30.809
			c-0.004,0.325-0.032,0.599-0.087,0.82c-0.055,0.222-0.147,0.399-0.279,0.533c-0.133,0.133-0.307,0.229-0.521,0.286
			s-0.484,0.083-0.811,0.08c-0.325-0.004-0.596-0.037-0.814-0.099c-0.217-0.062-0.389-0.161-0.514-0.297s-0.213-0.316-0.262-0.539
			c-0.049-0.222-0.071-0.496-0.067-0.821c0.004-0.333,0.032-0.613,0.087-0.838c0.055-0.225,0.145-0.407,0.273-0.544
			s0.303-0.235,0.521-0.292c0.219-0.057,0.49-0.084,0.816-0.08c0.324,0.003,0.594,0.037,0.808,0.099
			c0.214,0.062,0.385,0.163,0.515,0.303c0.129,0.14,0.218,0.324,0.267,0.55C76.186,30.195,76.208,30.475,76.204,30.809z
			 M75.875,27.318c-0.01,0.079-0.033,0.151-0.074,0.213c-0.041,0.063-0.111,0.116-0.21,0.158c-0.101,0.042-0.235,0.075-0.405,0.097
			c-0.172,0.021-0.38,0.031-0.625,0.029c-0.254-0.003-0.465-0.018-0.631-0.043c-0.166-0.026-0.299-0.061-0.397-0.106
			s-0.167-0.099-0.206-0.163c-0.039-0.063-0.062-0.136-0.069-0.215L73.07,16.481c0.002-0.103,0.026-0.194,0.075-0.272
			c0.048-0.079,0.134-0.143,0.258-0.193c0.124-0.051,0.29-0.086,0.501-0.108c0.211-0.021,0.475-0.03,0.792-0.026
			c0.317,0.003,0.579,0.021,0.784,0.051c0.206,0.03,0.37,0.072,0.492,0.125c0.123,0.053,0.209,0.118,0.26,0.193
			c0.051,0.076,0.076,0.166,0.074,0.269L75.875,27.318z"/>
	</g>
</g>
</svg>
