<?xml version="1.0" encoding="utf-8"?>
<!-- Generator: Adobe Illustrator 16.0.4, SVG Export Plug-In . SVG Version: 6.00 Build 0)  -->
<!DOCTYPE svg PUBLIC "-//W3C//DTD SVG 1.1//EN" "http://www.w3.org/Graphics/SVG/1.1/DTD/svg11.dtd">
<svg version="1.1" id="圖層_3" xmlns="http://www.w3.org/2000/svg" xmlns:xlink="http://www.w3.org/1999/xlink" x="0px" y="0px"
	 width="100px" height="100px" viewBox="0 0 100 100" enable-background="new 0 0 100 100" xml:space="preserve">
<path fill="#FFAB00" d="M75.275,90.887h-48.56V9.333h48.56V90.887z M77.275,7.333h-2h-48.56h-2v2v81.553v2h2h48.56h2v-2V9.333V7.333
	z"/>
<rect x="31.116" y="24.75" fill="none" stroke="#FFAB00" stroke-width="2" stroke-miterlimit="10" width="39.759" height="28.054"/>
<line fill="none" stroke="#FFAB00" stroke-width="2" stroke-miterlimit="10" x1="41" y1="58" x2="60" y2="58"/>
<line fill="none" stroke="#FFAB00" stroke-width="2" stroke-miterlimit="10" x1="32" y1="62" x2="70" y2="62"/>
<line fill="none" stroke="#FFAB00" stroke-width="2" stroke-miterlimit="10" x1="25" y1="19" x2="76" y2="19"/>
<line fill="none" stroke="#FFAB00" stroke-width="2" stroke-miterlimit="10" x1="32" y1="66" x2="70" y2="66"/>
<path fill="none" stroke="#FFAB00" stroke-width="2" stroke-miterlimit="10" d="M61.699,83.181H40.292
	c-2.131,0-3.875-1.744-3.875-3.875v-0.542c0-2.132,1.744-3.875,3.875-3.875h21.407c2.131,0,3.875,1.743,3.875,3.875v0.542
	C65.574,81.437,63.83,83.181,61.699,83.181z"/>
</svg>
