<?xml version="1.0" encoding="utf-8"?>
<!-- Generator: Adobe Illustrator 16.0.4, SVG Export Plug-In . SVG Version: 6.00 Build 0)  -->
<!DOCTYPE svg PUBLIC "-//W3C//DTD SVG 1.1//EN" "http://www.w3.org/Graphics/SVG/1.1/DTD/svg11.dtd">
<svg version="1.1" id="圖層_5" xmlns="http://www.w3.org/2000/svg" xmlns:xlink="http://www.w3.org/1999/xlink" x="0px" y="0px"
	 width="100px" height="100px" viewBox="0 0 100 100" enable-background="new 0 0 100 100" xml:space="preserve">
<path fill="#00ACBA" d="M70.438,92.333H29.666c-3.3,0-6-2.7-6-6V12.667c0-3.3,2.7-6,6-6h40.771c3.3,0,6,2.7,6,6v73.667
	C76.438,89.633,73.737,92.333,70.438,92.333"/>
<rect x="29.886" y="15.25" fill="#FFFFFF" width="40.333" height="64.083"/>
<path fill="#FFFFFF" d="M53.052,85.667c0,1.656-1.343,3-3,3s-3-1.344-3-3c0-1.657,1.343-3,3-3S53.052,84.01,53.052,85.667"/>
<line fill="none" stroke="#FFFFFF" stroke-width="2" stroke-linecap="round" stroke-miterlimit="10" x1="45" y1="12" x2="54" y2="12"/>
<rect x="33.354" y="26.922" fill="#0181B0" width="32.659" height="24.17"/>
<line fill="none" stroke="#F70059" stroke-width="2" stroke-miterlimit="10" x1="42" y1="55" x2="58" y2="55"/>
<line fill="none" stroke="#F70059" stroke-width="2" stroke-miterlimit="10" x1="35" y1="59" x2="65" y2="59"/>
<line fill="none" stroke="#F70059" stroke-width="2" stroke-miterlimit="10" x1="35" y1="62" x2="65" y2="62"/>
<path fill="#FFAB00" d="M58.576,73.858H40.791c-1.943,0-3.534-1.59-3.534-3.534s1.591-3.535,3.534-3.535h17.786
	c1.944,0,3.534,1.591,3.534,3.535S60.521,73.858,58.576,73.858"/>
<line fill="none" stroke="#00ACBA" stroke-width="2" stroke-miterlimit="10" x1="27" y1="22" x2="72" y2="22"/>
</svg>
