<?xml version="1.0" encoding="utf-8"?>
<!-- Generator: Adobe Illustrator 16.0.4, SVG Export Plug-In . SVG Version: 6.00 Build 0)  -->
<!DOCTYPE svg PUBLIC "-//W3C//DTD SVG 1.1//EN" "http://www.w3.org/Graphics/SVG/1.1/DTD/svg11.dtd">
<svg version="1.1" id="圖層_6" xmlns="http://www.w3.org/2000/svg" xmlns:xlink="http://www.w3.org/1999/xlink" x="0px" y="0px"
	 width="100px" height="100px" viewBox="0 0 100 100" enable-background="new 0 0 100 100" xml:space="preserve">
<path fill="none" stroke="#0181B0" stroke-width="5" stroke-miterlimit="10" d="M78.783,77.981H22.234c-3.3,0-6-2.7-6-6V27.019
	c0-3.3,2.7-6,6-6h56.549c3.3,0,6,2.7,6,6v44.963C84.783,75.281,82.083,77.981,78.783,77.981z"/>
<path fill="#0181B0" d="M85.266,26.812c0-3.186-2.607-5.793-5.793-5.793H22.511c-3.187,0-5.793,2.607-5.793,5.793v5.31h68.548
	V26.812z"/>
<text transform="matrix(1 0 0 1 28.0742 63.959)" fill="#FFAB00" font-family="'Calibri-Bold'" font-size="31.4581">&lt;/&gt;</text>
<path fill="#F70059" d="M23.25,26.125c0,1.036-0.839,1.875-1.875,1.875S19.5,27.161,19.5,26.125s0.839-1.875,1.875-1.875
	S23.25,25.089,23.25,26.125"/>
<path fill="#FFAB00" d="M29.25,26.125c0,1.036-0.839,1.875-1.875,1.875S25.5,27.161,25.5,26.125s0.839-1.875,1.875-1.875
	S29.25,25.089,29.25,26.125"/>
<path fill="#00CD97" d="M35.25,26.125c0,1.036-0.839,1.875-1.875,1.875S31.5,27.161,31.5,26.125s0.839-1.875,1.875-1.875
	S35.25,25.089,35.25,26.125"/>
</svg>
