<?xml version="1.0" encoding="utf-8"?>
<!-- Generator: Adobe Illustrator 16.0.4, SVG Export Plug-In . SVG Version: 6.00 Build 0)  -->
<!DOCTYPE svg PUBLIC "-//W3C//DTD SVG 1.1//EN" "http://www.w3.org/Graphics/SVG/1.1/DTD/svg11.dtd">
<svg version="1.1" id="圖層_6" xmlns="http://www.w3.org/2000/svg" xmlns:xlink="http://www.w3.org/1999/xlink" x="0px" y="0px"
	 width="100px" height="100px" viewBox="0 0 100 100" enable-background="new 0 0 100 100" xml:space="preserve">
<path fill="none" stroke="#0181B0" stroke-width="5" stroke-miterlimit="10" d="M78.783,77.98H22.234c-3.3,0-6-2.699-6-6V27.019
	c0-3.3,2.7-6,6-6h56.549c3.3,0,6,2.7,6,6v44.963C84.783,75.281,82.083,77.98,78.783,77.98z"/>
<path fill="#0181B0" d="M85.266,26.812c0-3.186-2.606-5.793-5.793-5.793H22.511c-3.187,0-5.793,2.607-5.793,5.793v5.31h68.548
	V26.812z"/>
<g enable-background="new    ">
	<path fill="#FFAB00" d="M42.129,61.286c0,0.379-0.015,0.676-0.046,0.891c-0.031,0.216-0.08,0.369-0.146,0.461
		c-0.067,0.093-0.148,0.134-0.246,0.123c-0.098-0.01-0.223-0.051-0.376-0.123l-11.781-5.867c-0.144-0.082-0.249-0.254-0.315-0.515
		c-0.067-0.262-0.1-0.653-0.1-1.175c0-0.267,0.01-0.5,0.031-0.699c0.021-0.2,0.046-0.363,0.077-0.491s0.074-0.23,0.131-0.308
		c0.056-0.077,0.12-0.136,0.192-0.177l11.766-5.837c0.297-0.144,0.507-0.115,0.63,0.085c0.123,0.199,0.184,0.606,0.184,1.221
		c0,0.42-0.008,0.753-0.023,0.998c-0.015,0.246-0.043,0.44-0.084,0.584s-0.098,0.246-0.169,0.308
		c-0.072,0.062-0.169,0.123-0.292,0.184l-8.848,4.147l8.679,4.024c0.154,0.072,0.279,0.144,0.376,0.216
		c0.097,0.071,0.171,0.182,0.223,0.33s0.087,0.348,0.107,0.599S42.129,60.856,42.129,61.286z"/>
	<path fill="#FFAB00" d="M47.612,67.938c-0.051,0.133-0.118,0.24-0.2,0.322s-0.197,0.148-0.345,0.2
		c-0.149,0.051-0.333,0.089-0.553,0.115c-0.22,0.025-0.499,0.038-0.837,0.038c-0.42,0-0.763-0.021-1.029-0.062
		c-0.267-0.041-0.468-0.103-0.607-0.185c-0.138-0.082-0.217-0.187-0.238-0.314s0-0.279,0.062-0.453l9.186-25.79
		c0.04-0.133,0.102-0.243,0.184-0.33s0.194-0.156,0.338-0.208c0.144-0.051,0.33-0.089,0.561-0.115
		c0.23-0.025,0.51-0.038,0.838-0.038c0.43,0,0.775,0.021,1.037,0.062c0.26,0.041,0.457,0.103,0.59,0.185s0.211,0.187,0.23,0.314
		c0.021,0.128,0.006,0.279-0.045,0.453L47.612,67.938z"/>
	<path fill="#FFAB00" d="M71.852,55.127c0,0.267-0.011,0.497-0.031,0.691s-0.049,0.358-0.084,0.491
		c-0.036,0.133-0.082,0.238-0.139,0.314c-0.057,0.077-0.12,0.131-0.192,0.162l-11.781,5.837c-0.144,0.071-0.267,0.103-0.368,0.092
		c-0.103-0.01-0.188-0.066-0.254-0.169s-0.112-0.254-0.138-0.453c-0.026-0.2-0.039-0.453-0.039-0.761
		c0-0.42,0.008-0.752,0.023-0.998s0.043-0.44,0.084-0.584c0.041-0.143,0.098-0.248,0.169-0.314c0.072-0.066,0.17-0.125,0.292-0.177
		l8.848-4.147l-8.679-4.024c-0.164-0.071-0.294-0.144-0.392-0.215S59,50.69,58.948,50.542c-0.051-0.148-0.084-0.349-0.1-0.6
		s-0.023-0.591-0.023-1.021c0-0.379,0.013-0.676,0.039-0.891c0.025-0.215,0.071-0.369,0.138-0.461s0.151-0.133,0.254-0.123
		c0.102,0.011,0.225,0.052,0.368,0.123l11.797,5.883c0.133,0.062,0.238,0.226,0.315,0.492C71.812,54.21,71.852,54.604,71.852,55.127
		z"/>
</g>
<path fill="#F70059" d="M23.25,26.125c0,1.036-0.839,1.875-1.875,1.875S19.5,27.161,19.5,26.125s0.839-1.875,1.875-1.875
	S23.25,25.089,23.25,26.125"/>
<path fill="#FFAB00" d="M29.25,26.125c0,1.036-0.839,1.875-1.875,1.875S25.5,27.161,25.5,26.125s0.839-1.875,1.875-1.875
	S29.25,25.089,29.25,26.125"/>
<path fill="#00CD97" d="M35.25,26.125c0,1.036-0.839,1.875-1.875,1.875S31.5,27.161,31.5,26.125s0.839-1.875,1.875-1.875
	S35.25,25.089,35.25,26.125"/>
</svg>
