<?xml version="1.0" encoding="utf-8"?>
<!-- Generator: Adobe Illustrator 16.0.4, SVG Export Plug-In . SVG Version: 6.00 Build 0)  -->
<!DOCTYPE svg PUBLIC "-//W3C//DTD SVG 1.1//EN" "http://www.w3.org/Graphics/SVG/1.1/DTD/svg11.dtd">
<svg version="1.1" id="圖層_7" xmlns="http://www.w3.org/2000/svg" xmlns:xlink="http://www.w3.org/1999/xlink" x="0px" y="0px"
	 width="100px" height="100px" viewBox="0 0 100 100" enable-background="new 0 0 100 100" xml:space="preserve">
<path fill="#00ACBA" stroke="#00ACBA" stroke-width="2" stroke-miterlimit="10" d="M65.703,67.332L51.755,63.21
	c-1.13-0.332-1.779-1.531-1.445-2.658l7.447-25.203c0.333-1.127,1.529-1.779,2.658-1.445l13.948,4.123
	c1.13,0.333,1.781,1.528,1.446,2.657l-7.448,25.203C68.029,67.016,66.833,67.666,65.703,67.332"/>
<rect x="56.088" y="38.431" transform="matrix(0.959 0.2834 -0.2834 0.959 16.728 -15.892)" fill="#FFFFFF" width="14.388" height="22.861"/>
<path fill="#FFFFFF" d="M60.404,64.065c-0.262,0.885-1.189,1.39-2.074,1.128c-0.887-0.259-1.393-1.191-1.129-2.075
	c0.261-0.886,1.189-1.393,2.076-1.13C60.158,62.249,60.668,63.18,60.404,64.065"/>
<path fill="#FFAB00" d="M68.35,65.835c0,2.696-2.187,4.883-4.884,4.883c-2.695,0-4.882-2.187-4.882-4.883
	c0-2.697,2.187-4.883,4.882-4.883C66.163,60.952,68.35,63.138,68.35,65.835"/>
<path fill="none" stroke="#FFAB00" stroke-width="6" stroke-miterlimit="10" d="M61.839,68.857c0,0-5.58,12.555-21.854,11.16"/>
<rect x="75.106" y="28.393" transform="matrix(0.9777 0.2102 -0.2102 0.9777 8.2548 -15.2847)" fill="#F70059" width="1.868" height="5.604"/>
<rect x="79.752" y="30.109" transform="matrix(0.7668 0.6419 -0.6419 0.7668 39.9406 -44.1163)" fill="#F70059" width="1.868" height="5.604"/>
<rect x="81.935" y="34.4" transform="matrix(0.4719 0.8816 -0.8816 0.4719 76.56 -53.4157)" fill="#F70059" width="1.869" height="5.603"/>
<path fill="#FFAB00" d="M17.68,85.886c0-14.675,9.172-26.57,20.486-26.57s20.487,11.896,20.487,26.57"/>
<path fill="#FFAB00" d="M60.143,36.8c0,12.137-9.839,21.976-21.977,21.976S16.189,48.937,16.189,36.8s9.839-21.976,21.977-21.976
	S60.143,24.663,60.143,36.8"/>
</svg>
