<?xml version="1.0" encoding="utf-8"?>
<!-- Generator: Adobe Illustrator 16.0.4, SVG Export Plug-In . SVG Version: 6.00 Build 0)  -->
<!DOCTYPE svg PUBLIC "-//W3C//DTD SVG 1.1//EN" "http://www.w3.org/Graphics/SVG/1.1/DTD/svg11.dtd">
<svg version="1.1" id="圖層_9" xmlns="http://www.w3.org/2000/svg" xmlns:xlink="http://www.w3.org/1999/xlink" x="0px" y="0px"
	 width="100px" height="100px" viewBox="0 0 100 100" enable-background="new 0 0 100 100" xml:space="preserve">
<rect x="48.636" y="63.459" fill="#FFAB00" width="3.199" height="25.208"/>
<rect x="44.157" y="77.362" transform="matrix(0.7073 0.707 -0.707 0.7073 72.2832 -7.9627)" fill="#FFAB00" width="3.199" height="11.874"/>
<rect x="53.186" y="77.078" transform="matrix(-0.707 0.7073 -0.7073 -0.707 152.2295 102.9545)" fill="#FFAB00" width="3.199" height="11.873"/>
<path fill="none" stroke="#FFAB00" stroke-width="2" stroke-miterlimit="10" d="M76.5,63H24c-3.3,0-6-2.7-6-6V22c0-3.3,2.7-6,6-6
	h52.5c3.3,0,6,2.7,6,6v35C82.5,60.3,79.8,63,76.5,63z"/>
<rect x="28.18" y="31.85" fill="#F70059" width="6.79" height="26.677"/>
<rect x="37.517" y="27" fill="#0181B0" width="6.79" height="31.526"/>
<rect x="46.611" y="45.067" fill="#00ACBA" width="6.79" height="13.459"/>
<rect x="55.462" y="40.217" fill="#00CD97" width="6.79" height="18.31"/>
<rect x="22.966" y="57.677" fill="#FFAB00" width="54.443" height="1.698"/>
<path fill="#FFAB00" d="M46.562,16.438c0-2.037,1.651-3.688,3.688-3.688s3.688,1.651,3.688,3.688"/>
<path fill="none" stroke="#FFAB00" stroke-width="2" stroke-miterlimit="10" d="M46.562,16.438c0-2.037,1.651-3.688,3.688-3.688
	s3.688,1.651,3.688,3.688"/>
<line fill="none" stroke="#FFAB00" stroke-width="2" stroke-miterlimit="10" x1="18" y1="24" x2="82" y2="24"/>
</svg>
