<?xml version="1.0" encoding="UTF-8"?>
<svg width="123px" height="40px" viewBox="0 0 123 40" version="1.1" xmlns="http://www.w3.org/2000/svg" xmlns:xlink="http://www.w3.org/1999/xlink">
    <title>logo</title>
    <g id="logo" stroke="none" stroke-width="1" fill="none" fill-rule="evenodd">
        <g id="logo_smile">
            <path d="M53.5590255,21.7044823 C54.1942129,21.7044823 54.7666117,21.610101 55.2733014,21.4213384 C55.7814513,21.2311237 56.2253524,20.9523359 56.6064649,20.5864268 C56.9875773,20.2219697 57.3190429,19.7602273 57.5964811,19.2041035 L57.5964811,15.1500631 C57.3935132,14.5953914 57.0897914,14.1220328 56.6838555,13.7314394 C56.2779197,13.3393939 55.7931329,13.0359217 55.2353362,12.8224747 C54.6775394,12.6061237 54.0540336,12.5001263 53.3706596,12.5001263 C52.6084347,12.5001263 51.9016974,12.694697 51.2548284,13.0852904 C50.6079594,13.4787879 50.0939687,14.0145833 49.7128562,14.6970328 C49.3317438,15.3794823 49.1404574,16.1635732 49.1404574,17.0464015 C49.1404574,17.9292298 49.3434254,18.7249369 49.7508214,19.4320707 C50.1567573,20.1392045 50.6970316,20.6953283 51.3701843,21.0975379 C52.0418767,21.5011995 52.7719772,21.7044823 53.5590255,21.7044823 M52.0374961,26.0227904 C50.4853025,26.0227904 49.0835096,25.7135101 47.8277368,25.0949495 C46.5705038,24.4749369 45.5717263,23.5224116 44.8372452,22.2344697 C44.0983836,20.9479798 43.7333333,19.3057449 43.7333333,17.3106692 C43.7333333,15.4433712 44.1129856,13.8258207 44.8737503,12.4623737 C45.6359752,11.0989268 46.6391332,10.0447601 47.8846846,9.29842172 C49.1287758,8.55498737 50.4487975,8.18181818 51.8447496,8.18181818 C53.4962369,8.18181818 54.7461689,8.45334596 55.5989262,8.99640152 C56.4093377,9.51332071 57.086871,10.0825126 57.6315259,10.7039773 C57.6592698,10.7344697 57.980514,9.01527778 57.980514,9.01527778 L62.9305952,9.01527778 L62.9305952,25.5683081 L57.5964811,25.5683081 L57.5964811,23.4991793 C57.5964811,23.4991793 57.8140511,23.2508838 57.5599761,23.5427399 C57.3044409,23.8331439 56.9306295,24.1714646 56.4341612,24.5635101 C55.939153,24.9555556 55.3302492,25.2967803 54.6059896,25.5871843 C53.8846503,25.8761364 53.0260522,26.0227904 52.0374961,26.0227904" id="Fill-1" fill="#000000"></path>
            <path d="M69.5279948,8.97752525 L69.9485327,11.9323864 L69.871142,11.6681187 C70.4552224,10.6328283 71.2787758,9.79356061 72.3461826,9.14741162 C73.4135895,8.50561869 74.7219296,8.18181818 76.2697426,8.18181818 C77.8438392,8.18181818 79.1594803,8.64356061 80.2122851,9.56414141 C81.2665502,10.4861742 81.8068246,11.6797348 81.8331082,13.1433712 L81.8331082,25.5305556 L76.4989941,25.5305556 L76.4989941,15.1137626 C76.4727105,14.3819444 76.2755834,13.7938763 75.909073,13.3524621 C75.5396421,12.911048 74.9248975,12.6888889 74.0604586,12.6888889 C73.2471266,12.6888889 72.5389292,12.9546086 71.9285652,13.484596 C71.3196614,14.0160354 70.8465563,14.7347854 70.5180111,15.64375 C70.1894659,16.5541667 70.0230029,17.6010732 70.0230029,18.7888258 L70.0230029,25.5305556 L64.6888889,25.5305556 L64.6888889,8.97752525 L69.5279948,8.97752525 Z" id="Fill-3" fill="#000000"></path>
            <path d="M89.5724393,8.97752525 L89.9929771,11.9323864 L89.9155865,11.6681187 C90.4996669,10.6328283 91.3232202,9.79356061 92.3906271,9.14741162 C93.458034,8.50561869 94.766374,8.18181818 96.314187,8.18181818 C97.8882837,8.18181818 99.2039247,8.64356061 100.25673,9.56414141 C101.310995,10.4861742 101.851269,11.6797348 101.876092,13.1433712 L101.876092,25.5305556 L96.5419784,25.5305556 L96.5419784,15.1137626 C96.517155,14.3819444 96.3200278,13.7938763 95.9535174,13.3524621 C95.5840866,12.911048 94.969342,12.6888889 94.104903,12.6888889 C93.2915711,12.6888889 92.5833736,12.9546086 91.9730096,13.484596 C91.3641058,14.0160354 90.8910007,14.7347854 90.5624555,15.64375 C90.2339103,16.5541667 90.0674474,17.6010732 90.0674474,18.7888258 L90.0674474,25.5305556 L84.7333333,25.5305556 L84.7333333,8.97752525 L89.5724393,8.97752525 Z" id="Fill-5" fill="#000000"></path>
            <path d="M113.352132,25.9850379 C111.318072,25.9850379 109.597955,25.6060606 108.190322,24.8495581 C106.779768,24.0901515 105.70652,23.044697 104.970579,21.7059343 C104.233177,20.3671717 103.866667,18.8265783 103.866667,17.084154 C103.866667,15.4172348 104.298886,13.9143939 105.160405,12.5770833 C106.023383,11.2383207 107.179863,10.1696338 108.628382,9.37683081 C110.075441,8.58112374 111.687503,8.18181818 113.464567,8.18181818 C115.853456,8.18181818 117.813046,8.87007576 119.350637,10.2465909 C120.886769,11.6231061 121.882626,13.6123737 122.341129,16.2129419 L110.14261,20.0666035 C110.14261,20.0666035 109.868093,19.6600379 109.695789,19.3754419 C109.183258,18.5318182 109.12339,17.1175505 109.12339,17.1175505 L116.438997,14.6636364 C116.236029,14.0058712 115.910404,13.5426768 115.390573,13.0489899 C114.869281,12.5567551 114.088073,12.3113636 113.04695,12.3113636 C112.258442,12.3113636 111.566306,12.4943182 110.972004,12.8602273 C110.373322,13.2275884 109.914819,13.7445076 109.597955,14.4124369 C109.279632,15.0818182 109.12339,15.8717172 109.12339,16.7806818 C109.12339,17.8174242 109.311756,18.6828283 109.695789,19.3754419 C110.075441,20.0709596 110.596733,20.5936869 111.255283,20.9465278 C111.916754,21.3008207 112.651236,21.4779672 113.464567,21.4779672 C114.051568,21.4779672 114.613746,21.3777778 115.161321,21.1744949 C115.707436,20.9726641 116.24479,20.7069444 116.780684,20.3802399 L119.141829,24.3195707 C118.251106,24.8234217 117.293214,25.2285354 116.265233,25.5320076 C115.235791,25.8340278 114.264758,25.9850379 113.352132,25.9850379" id="Fill-7" fill="#000000"></path>
            <g id="Group-18">
                <path d="M6.19000818,11.3696145 L6.19114836,6.30952381 C6.19114836,6.00453515 6.45794923,5.75623583 6.78631953,5.75623583 L32.1438038,5.75623583 C32.4721741,5.75623583 32.7401151,6.00453515 32.7401151,6.30952381 L32.7389749,11.3696145 L38.7819006,11.3696145 L38.7830408,6.30952381 C38.7830408,2.82426304 35.7456155,0 31.9978614,0 L6.78631953,0 C3.03970562,0 0.00114017465,2.82426304 0.00114017465,6.30952381 L0,11.3696145 L6.19000818,11.3696145 Z" id="Fill-10" fill="#FFDB00"></path>
                <path d="M32.739203,22.7407029 L32.739203,28.3552154 L25.4911127,28.3552154 C24.8891005,28.3552154 24.3383961,28.4017007 23.8401398,28.4935374 C23.3430237,28.5842404 22.894935,28.7089569 22.4935936,28.8654195 C22.0945324,29.0207483 21.7410783,29.197619 21.432091,29.3926304 C21.1231036,29.5899093 20.8494617,29.7917234 20.6123054,29.9992063 C20.0638814,30.4821995 19.6511382,31.0309524 19.3706552,31.6443311 C19.0764901,31.0309524 18.6694478,30.4821995 18.1506683,29.9992063 C17.939736,29.7917234 17.6911779,29.5899093 17.4038539,29.3926304 C17.1165299,29.197619 16.7938605,29.0207483 16.4358456,28.8654195 C16.0778308,28.7089569 15.6821902,28.5842404 15.2477836,28.4935374 C14.8133771,28.4017007 14.3356439,28.3552154 13.8168645,28.3552154 L6.19023622,28.3552154 L6.19023622,22.7407029 L0.00706908284,22.7407029 L0.00706908284,28.3552154 C0.00706908284,29.1261905 0.157572137,29.8518141 0.458578245,30.5377551 C0.760724527,31.2214286 1.18258915,31.8223356 1.72075158,32.3370748 C2.26233454,32.8518141 2.89969217,33.2588435 3.63510482,33.5592971 C3.97259652,33.6964853 4.32377031,33.7939909 4.68634585,33.8642857 L4.68292533,33.8801587 L4.83570873,33.8801587 C5.13101397,33.9289116 5.42745938,33.9697279 5.73644671,33.9833333 L7.03852616,33.9833333 L12.6732693,33.9833333 C13.0267234,34.0207483 13.4064016,34.0252834 13.7256505,34.1069161 C14.3117003,34.256576 14.8441618,34.4606576 15.3264557,34.7168934 C15.8087496,34.9708617 16.2431561,35.2622449 16.6308155,35.580839 C17.0173347,35.9028345 17.3525461,36.2327664 17.6364495,36.5751701 C18.3342364,37.3654195 18.9738744,38.2633787 19.3706552,39.2701814 C19.748053,38.2633787 20.2143844,37.3654195 20.9520774,36.5751701 C21.2724665,36.2327664 21.6396027,35.9028345 22.0557665,35.580839 C22.4707901,35.2622449 22.9485232,34.9708617 23.4866857,34.7168934 C24.0259883,34.4606576 24.6302809,34.256576 25.2995634,34.1069161 C25.6655594,34.0252834 26.1056669,34.0207483 26.5149896,33.9833333 L32.0254536,33.9833333 L33.0162654,33.9833333 C33.3161313,33.9708617 33.6045955,33.9277778 33.8907794,33.8801587 L34.0697868,33.8801587 L34.0743475,33.8597506 C34.4380632,33.7871882 34.7903772,33.6840136 35.1278689,33.5400227 C35.8632815,33.2270975 36.5017793,32.8098639 37.0410819,32.288322 C37.5815247,31.7679138 38.0056697,31.1636054 38.314657,30.4787982 C38.6236444,29.7939909 38.7775679,29.0865079 38.7775679,28.3552154 L38.7775679,22.7407029 L32.739203,22.7407029 Z" id="Fill-13" fill="#FFDB00"></path>
                <path d="M15.1617005,21.9080499 C13.8470791,21.5248299 12.6772599,21.035034 11.6511027,20.4409297 C10.6238053,19.8456916 9.77779576,19.210771 9.11421411,18.5384354 L10.288594,15.8377551 C10.9521756,16.45 11.7309149,16.997619 12.6248119,17.481746 C13.5187088,17.9670068 14.5300437,18.3502268 15.6599568,18.6325397 C16.7887297,18.9137188 18.0338004,19.0543084 19.3917484,19.0543084 C20.7508366,19.0543084 21.9947671,18.9137188 23.1246802,18.6325397 C24.2545933,18.3502268 25.2659282,17.9670068 26.1598251,17.481746 C27.0525819,16.997619 27.8244801,16.45 28.4743797,15.8377551 L29.6704229,18.5384354 C29.0057011,19.210771 28.156271,19.8456916 27.1232727,20.4409297 C26.0879941,21.035034 24.918175,21.5248299 23.612675,21.9080499 C22.3048947,22.2912698 20.8979191,22.4840136 19.3917484,22.4840136 C17.8855777,22.4840136 16.4751817,22.2912698 15.1617005,21.9080499" id="Fill-15" fill="#000000"></path>
                <path d="M15.4795812,11.6541847 C14.4386017,11.6575964 13.598293,12.5 13.6028352,13.5340136 C13.6028352,13.5975057 13.6153956,13.6575964 13.6210965,13.7188209 C13.6199563,13.7482993 13.6131153,13.7732426 13.6131153,13.8027211 C13.6165358,14.8276644 14.4557043,15.654195 15.485282,15.6508041 C16.5171401,15.6473923 17.3494676,14.814059 17.3460471,13.7891156 C17.3460471,13.7868481 17.3449069,13.7845805 17.3449069,13.7823129 C17.3563086,13.6972789 17.3711309,13.6111111 17.3699907,13.5204082 C17.3665702,12.4863946 16.5205606,11.6507937 15.4795812,11.6541847" id="Fill-17" fill="#000000"></path>
                <path d="M25.1815553,13.4943311 C25.1781348,12.4591837 24.3321252,11.6235828 23.2911457,11.6280995 C22.2501663,11.6303855 21.4098576,12.4727891 21.4132781,13.5079365 C21.4132781,13.5396825 21.4223995,13.569161 21.4235396,13.6020408 C21.4178388,13.6598639 21.406437,13.7154195 21.406437,13.7755102 C21.4098576,14.7993197 22.2490261,15.6281179 23.279744,15.624727 C24.2443317,15.6213152 25.0264915,14.8877551 25.1199859,13.9512472 C25.1576116,13.8038549 25.1815553,13.6530612 25.1815553,13.4943311" id="Fill-19" fill="#000000"></path>
            </g>
        </g>
    </g>
</svg>