<svg xmlns="http://www.w3.org/2000/svg" xmlns:xlink="http://www.w3.org/1999/xlink" viewBox="0 0 134.8 50.19"><defs><style>.cls-1{fill:none;clip-rule:evenodd;}.cls-2{clip-path:url(#clip-path);}.cls-3{clip-path:url(#clip-path-2);}.cls-4{clip-path:url(#clip-path-3);}.cls-5{clip-path:url(#clip-path-4);}.cls-6{clip-path:url(#clip-path-5);}.cls-7{fill:#ffdb00;}.cls-8{clip-path:url(#clip-path-6);}.cls-9{clip-path:url(#clip-path-7);}.cls-10{clip-path:url(#clip-path-8);}.cls-11{clip-path:url(#clip-path-9);}</style><clipPath id="clip-path" transform="translate(5.09 5.09)"><path class="cls-1" d="M53,26.51a9.54,9.54,0,0,1-4.28-1,7.06,7.06,0,0,1-3-2.91,10,10,0,0,1-1.12-5,9.94,9.94,0,0,1,1.16-4.94,8.55,8.55,0,0,1,3.06-3.22,7.75,7.75,0,0,1,4-1.14,7.2,7.2,0,0,1,3.82.83A9.53,9.53,0,0,1,58.7,10.9s.36-1.72.36-1.72h5V26H58.67v-2.1s.22-.26,0,0a8.46,8.46,0,0,1-1.15,1,7.12,7.12,0,0,1-1.86,1,6.9,6.9,0,0,1-2.62.45m1.55-4.4a5.06,5.06,0,0,0,1.75-.29A3.91,3.91,0,0,0,57.66,21a5.1,5.1,0,0,0,1-1.41V15.43A3.81,3.81,0,0,0,57.74,14a4.43,4.43,0,0,0-1.48-.93,5.23,5.23,0,0,0-1.9-.33,4.08,4.08,0,0,0-2.15.6A4.34,4.34,0,0,0,50.64,15a4.81,4.81,0,0,0-.59,2.39,4.73,4.73,0,0,0,.63,2.43,4.62,4.62,0,0,0,1.64,1.7,4.29,4.29,0,0,0,2.23.62"/></clipPath><clipPath id="clip-path-2" transform="translate(5.09 5.09)"><path class="cls-1" d="M70.82,9.14l.43,3-.08-.27a6.94,6.94,0,0,1,2.52-2.56,7.58,7.58,0,0,1,4-1,5.86,5.86,0,0,1,4,1.41,4.71,4.71,0,0,1,1.65,3.65V26H77.92V15.39a2.93,2.93,0,0,0-.6-1.79,2.33,2.33,0,0,0-1.88-.68,3.2,3.2,0,0,0-2.17.82,5.15,5.15,0,0,0-1.44,2.19,9.32,9.32,0,0,0-.51,3.21V26H65.89V9.14Z"/></clipPath><clipPath id="clip-path-3" transform="translate(5.09 5.09)"><path class="cls-1" d="M91.24,9.14l.43,3-.08-.27a6.94,6.94,0,0,1,2.52-2.56,7.54,7.54,0,0,1,4-1,5.87,5.87,0,0,1,4,1.41,4.77,4.77,0,0,1,1.65,3.65V26H98.34V15.39a2.93,2.93,0,0,0-.6-1.79,2.35,2.35,0,0,0-1.89-.68,3.22,3.22,0,0,0-2.17.82,5.14,5.14,0,0,0-1.43,2.19,9.32,9.32,0,0,0-.51,3.21V26H86.31V9.14Z"/></clipPath><clipPath id="clip-path-4" transform="translate(5.09 5.09)"><path class="cls-1" d="M115.46,26.47a11,11,0,0,1-5.26-1.16,7.91,7.91,0,0,1-3.28-3.2,9.59,9.59,0,0,1-1.12-4.71,8.34,8.34,0,0,1,1.31-4.59,9.67,9.67,0,0,1,3.54-3.26,10,10,0,0,1,4.92-1.22,8.62,8.62,0,0,1,6,2.11,10.23,10.23,0,0,1,3,6.07l-12.42,3.93s-.28-.41-.46-.7a5.86,5.86,0,0,1-.58-2.3l7.45-2.5a3.62,3.62,0,0,0-1.06-1.65,3.39,3.39,0,0,0-2.39-.75,4,4,0,0,0-2.12.56,3.66,3.66,0,0,0-1.4,1.58,5.63,5.63,0,0,0-.48,2.41,5.44,5.44,0,0,0,.58,2.65,4,4,0,0,0,1.59,1.6,4.71,4.71,0,0,0,2.25.54,4.86,4.86,0,0,0,1.73-.31,9.68,9.68,0,0,0,1.65-.81l2.41,4A14.41,14.41,0,0,1,118.43,26a10.86,10.86,0,0,1-3,.46"/></clipPath><clipPath id="clip-path-5" transform="translate(5.09 5.09)"><path class="cls-1" d="M6.31,11.58V6.43a.59.59,0,0,1,.6-.57H32.74a.59.59,0,0,1,.61.57v5.15H39.5V6.43A6.68,6.68,0,0,0,32.59,0H6.91A6.69,6.69,0,0,0,0,6.43v5.15Z"/></clipPath><clipPath id="clip-path-6" transform="translate(5.09 5.09)"><path class="cls-1" d="M33.35,23.16v5.72H26a9.67,9.67,0,0,0-1.68.14,8.23,8.23,0,0,0-1.37.38,6.8,6.8,0,0,0-1.08.54,7.17,7.17,0,0,0-.83.62,5.05,5.05,0,0,0-1.27,1.67,5.55,5.55,0,0,0-1.24-1.67,5.71,5.71,0,0,0-1.75-1.16A6.61,6.61,0,0,0,15.53,29a7.31,7.31,0,0,0-1.46-.14H6.31V23.16H0v5.72a5.43,5.43,0,0,0,.46,2.23,5.66,5.66,0,0,0,1.28,1.83,6.13,6.13,0,0,0,2,1.24,5.7,5.7,0,0,0,1.07.31v0h.16a6.85,6.85,0,0,0,.91.1h7.07a8.7,8.7,0,0,1,1.07.13,7.16,7.16,0,0,1,1.63.62A7.74,7.74,0,0,1,18,37.25,9.46,9.46,0,0,1,19.73,40a8.1,8.1,0,0,1,1.61-2.75,10.34,10.34,0,0,1,1.13-1,8.46,8.46,0,0,1,1.45-.88,8.73,8.73,0,0,1,1.85-.62A11.52,11.52,0,0,1,27,34.61h6.62a6.38,6.38,0,0,0,.89-.1h.18v0a4.92,4.92,0,0,0,1.07-.33,6.38,6.38,0,0,0,1.95-1.27A6.09,6.09,0,0,0,39,31.05a5.3,5.3,0,0,0,.47-2.17V23.16Z"/></clipPath><clipPath id="clip-path-7" transform="translate(5.09 5.09)"><path class="cls-1" d="M15.44,22.32a16.17,16.17,0,0,1-3.57-1.5,12.22,12.22,0,0,1-2.59-1.94l1.2-2.75a11.88,11.88,0,0,0,2.38,1.68A13.41,13.41,0,0,0,16,19a15.56,15.56,0,0,0,3.8.43,15.5,15.5,0,0,0,3.8-.43,13.32,13.32,0,0,0,3.1-1.17A11.11,11.11,0,0,0,29,16.13l1.22,2.75a12.22,12.22,0,0,1-2.59,1.94,16.89,16.89,0,0,1-3.58,1.5,15.2,15.2,0,0,1-4.3.58,15.38,15.38,0,0,1-4.31-.58"/></clipPath><clipPath id="clip-path-8" transform="translate(5.09 5.09)"><path class="cls-1" d="M15.77,11.87a1.91,1.91,0,0,0-1.91,1.92c0,.06,0,.12,0,.18v.09a1.9,1.9,0,0,0,3.8,0h0a2.45,2.45,0,0,0,0-.27,1.91,1.91,0,0,0-1.92-1.9"/></clipPath><clipPath id="clip-path-9" transform="translate(5.09 5.09)"><path class="cls-1" d="M25.65,13.75a1.92,1.92,0,0,0-3.84,0s0,.06,0,.09,0,.12,0,.18a1.9,1.9,0,0,0,3.79.18,1.76,1.76,0,0,0,.06-.46"/></clipPath></defs><title>Asset 1</title><g id="Layer_2" data-name="Layer 2"><g id="Layer_1-2" data-name="Layer 1"><g class="cls-2"><rect x="44.55" y="8.33" width="29.74" height="28.36"/></g><g class="cls-3"><rect x="65.89" y="8.33" width="27.65" height="27.86"/></g><g class="cls-4"><rect x="86.31" y="8.33" width="27.65" height="27.86"/></g><g class="cls-5"><rect x="105.8" y="8.33" width="29" height="28.32"/></g><g class="cls-6"><rect class="cls-7" width="49.69" height="21.77"/></g><g class="cls-8"><rect class="cls-7" x="0.01" y="23.16" width="49.68" height="27.02"/></g><g class="cls-9"><rect x="9.28" y="16.13" width="31.12" height="16.96"/></g><g class="cls-10"><rect x="13.86" y="11.87" width="14.02" height="14.26"/></g><g class="cls-11"><rect x="21.8" y="11.84" width="14.03" height="14.26"/></g></g></g></svg>