<?xml version="1.0" encoding="UTF-8"?>
<svg width="50px" height="50px" viewBox="0 0 50 50" version="1.1" xmlns="http://www.w3.org/2000/svg" xmlns:xlink="http://www.w3.org/1999/xlink">
    <title>social/circle_linkedin</title>
    <g id="social/circle_linkedin" stroke="none" stroke-width="1" fill="none" fill-rule="evenodd">
        <g id="circle_link">
            <rect id="Rectangle" x="0" y="0" width="50" height="50"></rect>
            <path d="M25,5 C13.9559937,5 5,13.9559937 5,25 C5,36.0440063 13.9559937,45 25,45 C36.0440063,45 45,36.0440063 45,25 C45,13.9559937 36.0440063,5 25,5 Z" id="Path" fill="#2967B2" fill-rule="nonzero"></path>
            <polygon id="Path" fill="#FFFFFF" fill-rule="nonzero" points="19.1882324 35.234375 14.3173218 35.234375 14.3173218 20.5801391 19.1882324 20.5801391"></polygon>
            <path d="M16.7529297,18.5791016 L16.7211914,18.5791016 C15.0866699,18.5791016 14.029541,17.4539184 14.029541,16.0476684 C14.029541,14.6096802 15.1190186,13.515625 16.7852783,13.515625 C18.4515381,13.515625 19.4769287,14.6096802 19.508667,16.0476684 C19.508667,17.4539184 18.4515381,18.5791016 16.7529297,18.5791016 Z" id="Path" fill="#FFFFFF" fill-rule="nonzero"></path>
            <path d="M36.751709,35.234375 L31.8814087,35.234375 L31.8814087,27.3947144 C31.8814087,25.4244995 31.1761475,24.0808105 29.4137573,24.0808105 C28.0682373,24.0808105 27.2668457,24.9871827 26.9146728,25.8621216 C26.7858887,26.175232 26.7544555,26.612854 26.7544555,27.0507812 L26.7544555,35.234375 L21.8838501,35.234375 C21.8838501,35.234375 21.9476319,21.9549561 21.8838501,20.5801391 L26.7544555,20.5801391 L26.7544555,22.6550293 C27.4017334,21.6564941 28.5598755,20.2362061 31.144104,20.2362061 C34.3487548,20.2362061 36.751709,22.3306274 36.751709,26.831665 L36.751709,35.234375 Z" id="Path" fill="#FFFFFF" fill-rule="nonzero"></path>
        </g>
    </g>
</svg>