<?xml version="1.0" encoding="UTF-8"?>
<svg width="50px" height="50px" viewBox="0 0 50 50" version="1.1" xmlns="http://www.w3.org/2000/svg" xmlns:xlink="http://www.w3.org/1999/xlink">
    <title>icon_social/circle_github</title>
    <g id="icon_social/circle_github" stroke="none" stroke-width="1" fill="none" fill-rule="evenodd">
        <g id="github" transform="translate(5.000000, 5.000000)" fill="#FFFFFF">
            <path d="M20,0 C31.045695,0 40,8.954305 40,20 C40,29.3337843 33.6061667,37.1742089 24.9594764,39.3802971 C25.0252813,39.0625235 25.0587568,38.704871 25.0557151,38.304984 C25.0557151,31.9755304 25.0794806,35.1058569 25.0810918,32.7913371 L25.0811776,32.5269494 C25.0811776,30.5571648 24.4446163,29.2965027 23.7062052,28.6399079 C28.2385216,28.114632 33,26.3286941 33,18.2657094 C33,15.9544956 32.210664,14.0897662 30.912079,12.6189938 C31.1157786,12.0937179 31.8287272,9.94008685 30.7083794,7.05106955 C30.7083794,7.05106955 29.0023951,6.47326609 25.10664,9.20470063 C23.4770431,8.73195234 21.7455964,8.4955782 20.0141497,8.4955782 C18.282703,8.4955782 16.5512563,8.73195234 14.9216594,9.20470063 C11.0259043,6.49952989 9.31992007,7.05106955 9.31992007,7.05106955 C8.19957221,9.94008685 8.91252085,12.0937179 9.11622046,12.6189938 C7.81763543,14.0897662 7.02829944,15.9807594 7.02829944,18.2657094 C7.02829944,26.3024303 11.7643154,28.114632 16.2966318,28.6399079 C15.7109954,29.1651838 15.1762839,30.0844166 14.9980468,31.4501338 C13.826774,32.0016735 10.8985921,32.8946425 9.06529556,29.7167234 C8.68335879,29.0863924 7.53754847,27.5368286 5.93341402,27.5630924 C4.22742977,27.5893562 5.24592783,28.5611165 5.95887647,28.9550734 C6.82459982,29.4540855 7.81763543,31.3188149 8.0467975,31.9228821 C8.45419672,33.1047528 9.7782442,35.3634391 14.896197,34.3916787 C14.896197,36.0105789 14.9177484,38.3869605 14.9211966,39.1453953 L14.9216594,39.304984 C14.9216594,39.3187724 14.928025,39.3354309 14.9404372,39.3547026 L14.6832078,39.2855807 C6.21826736,36.9571375 0,29.2047458 0,20 C0,8.954305 8.954305,0 20,0 Z" id="Combined-Shape"></path>
        </g>
    </g>
</svg>