<?xml version="1.0" encoding="UTF-8"?>
<svg width="50px" height="50px" viewBox="0 0 50 50" version="1.1" xmlns="http://www.w3.org/2000/svg" xmlns:xlink="http://www.w3.org/1999/xlink">
    <title>social/circle_tasker</title>
    <g id="social/circle_tasker" stroke="none" stroke-width="1" fill="none" fill-rule="evenodd">
        <g id="circle_link">
            <rect id="Rectangle" x="0" y="0" width="50" height="50"></rect>
            <path d="M25,5 C36.0456949,5 45,13.954305 45,25 C45,36.0456949 36.0456949,45 25,45 C13.954305,45 5,36.0456949 5,25 C5,13.954305 13.954305,5 25,5 Z" id="Combined-Shape-path" fill="#E1264A" fill-rule="nonzero"></path>
            <g id="Group-17-Copy" transform="translate(13.000000, 11.000000)" fill="#FFFFFF">
                <path d="M2.45962517,19.5295888 C2.99120559,23.0401902 6.98326154,25.7777566 11.8191776,25.7777566 C16.6544224,25.7777566 20.6459189,23.0411972 21.1779469,19.5316028 C21.886154,19.9885391 23.2325107,21.1458781 23.4958586,23.4672509 C20.6177647,26.1628016 16.4329802,27.8584615 11.7747357,27.8584615 C7.15727033,27.8584615 3.00513654,26.1924706 0.130535229,23.5399959 L0.129331469,23.5527497 C0.369667133,21.170428 1.74443636,19.9903441 2.45962517,19.5295888 Z M19.8552056,20.0060084 C19.0329399,22.6152392 15.7455552,24.5729455 11.8191776,24.5729455 C7.89324755,24.5729455 4.6053035,22.6152392 3.78348531,20.0060084 C5.90074406,21.9840783 8.72334545,23.194372 11.8191776,23.194372 C14.9154573,23.194372 17.737835,21.9840783 19.8552056,20.0060084 Z M10.1632336,0.370316084 L10.1632336,4.29870769 C6.11187692,4.63168671 2.91344336,8.08253986 2.91344336,12.2840503 C2.91344336,13.3842462 3.1333035,14.4325259 3.52905175,15.387379 C3.61811469,15.601421 3.71825455,15.8085259 3.82387692,16.0121622 C3.92793287,16.2117706 4.04161119,16.4051133 4.16121958,16.5948755 C5.56474406,18.8208895 8.01475804,20.3031832 10.803793,20.3031832 L12.9050517,20.3031832 C15.6681287,20.3031832 18.099793,18.8489734 19.5100308,16.6580923 C19.6321007,16.4677706 19.7492476,16.2740923 19.8552056,16.0739245 C19.9622825,15.8717427 20.0605203,15.6641902 20.1509259,15.4516028 C20.563793,14.4795189 20.7952895,13.409421 20.7952895,12.2840503 C20.7952895,8.08253986 17.5969678,4.63168671 13.5454993,4.29870769 L13.5454993,0.383183217 C17.5749259,1.05037203 20.8560448,4.01093147 22.0426182,7.90060979 C21.6623105,9.01266573 21.6035692,10.6753231 21.6035692,11.5827357 C21.6035692,12.3606937 21.6483245,13.6926098 21.9000727,14.7577846 C21.6394853,15.5006098 21.3010238,16.2062881 20.8954294,16.8651972 C20.7646322,17.0776727 20.6265622,17.2853371 20.4821147,17.4875189 C20.330842,17.6989874 20.1733035,17.9050853 20.0079329,18.1046937 C18.043849,20.4780643 15.1026462,21.9900084 11.8191776,21.9900084 C8.53604476,21.9900084 5.59495385,20.4780643 3.6301986,18.1046937 C3.46538741,17.9050853 3.3074014,17.6989874 3.15657622,17.4875189 C3.01212867,17.2853371 2.87405874,17.0776727 2.74281399,16.8651972 C2.38085594,16.2770014 2.07305175,15.6517706 1.8260028,14.9959944 C2.13201678,13.8987077 2.18303776,12.420442 2.18303776,11.5827357 C2.18303776,10.6159105 2.11534545,8.79571469 1.66466014,7.69305734 C2.91053427,3.88393846 6.17408671,1.00293147 10.1632336,0.370316084 Z M0.67445035,8.44819021 C0.702198601,8.55045594 0.729499301,8.67118322 0.756240559,8.79918322 C0.887037762,9.42978462 0.997918881,10.365393 0.997918881,11.5827357 C0.997918881,12.4955189 0.935597203,13.2527776 0.849107692,13.840414 C0.79707972,14.1958825 0.735765035,14.489365 0.67445035,14.7172811 C0.511541259,14.1131972 0.351093706,13.0481343 0.351093706,11.5827357 C0.351093706,10.1172252 0.511541259,9.05227413 0.67445035,8.44819021 Z M23.1124923,8.44819021 C23.2754014,9.05227413 23.4359608,10.1172252 23.4359608,11.5827357 C23.4359608,13.0481343 23.2754014,14.1131972 23.1124923,14.7172811 C23.0283524,14.4053371 22.9452196,13.968414 22.8844643,13.4192671 C22.8270657,12.9048056 22.7891357,12.2919944 22.7891357,11.5827357 C22.7891357,10.6096448 22.8601846,9.81781259 22.9554014,9.2152951 C23.0036252,8.91084755 23.0575552,8.65137902 23.1124923,8.44819021 Z M19.141807,12.1901762 C19.3349259,12.1807776 19.495821,12.2707357 19.603793,12.4056727 C19.678758,12.4999944 19.7326881,12.6132252 19.7390657,12.7446937 C19.7415273,12.812386 19.7623385,13.4192671 19.5571357,13.9550993 C19.5109259,14.0766098 19.4273455,14.1716028 19.3261986,14.2352671 C19.269807,14.2718545 19.2064783,14.2945678 19.1408,14.3088895 C19.1019748,14.3169455 19.0635972,14.3266797 19.0232056,14.3266797 C18.9536112,14.3266797 18.8836811,14.314372 18.8155413,14.2871832 C18.5869538,14.1967776 18.451793,13.9738965 18.453807,13.7387077 C18.454814,13.6703441 18.4629818,13.6007497 18.4887161,13.5330573 C18.5885203,13.2734769 18.5982545,12.9127497 18.593779,12.7956028 C18.5815832,12.4748196 18.8267301,12.2034909 19.141807,12.1901762 Z M15.8063105,5.85104336 C15.947849,5.91034406 19.2751776,7.33568671 19.6651077,11.0529455 C19.680772,11.2022042 19.6354573,11.3416168 19.5551217,11.4542881 C19.462814,11.5827357 19.3237371,11.6756028 19.1564643,11.6939524 C19.1359888,11.6959664 19.1151776,11.6973091 19.0947021,11.6973091 C18.805807,11.6973091 18.5574154,11.4749874 18.5256392,11.1764699 C18.207765,8.14228811 15.400828,6.94083357 15.3720727,6.92897343 C15.0793734,6.80679161 14.9387301,6.46732308 15.0588979,6.16925315 C15.1030937,6.05915524 15.1823105,5.97904336 15.272828,5.91716923 C15.4260028,5.81098741 15.6220308,5.77395245 15.8063105,5.85104336 Z M11.8191776,0.239406993 C12.0005483,0.239406993 12.1809119,0.24433007 12.3603804,0.253169231 L12.3603804,4.26547692 L11.3489119,4.26547692 L11.3489119,0.251267133 C11.5048839,0.244777622 11.6616392,0.239406993 11.8191776,0.239406993 Z" id="Combined-Shape"></path>
                <path d="M10.1347245,17.3197427 L10.1347245,10.9441343 L7.63078042,10.9441343 C7.32733986,10.9441343 7.12113007,10.8820364 7.01282238,10.7585119 C6.90429091,10.6347636 6.85036084,10.4328056 6.85036084,10.152414 L6.85036084,9.39358881 C6.85036084,9.11353287 6.90429091,8.90877762 7.01282238,8.77965874 C7.12113007,8.65053986 7.32733986,8.58598042 7.63078042,8.58598042 L15.9392559,8.58598042 C16.2423608,8.58598042 16.4513678,8.65053986 16.5652699,8.77965874 C16.6789483,8.90877762 16.7357874,9.11353287 16.7357874,9.39358881 L16.7357874,10.152414 C16.7357874,10.4328056 16.6789483,10.6347636 16.5652699,10.7585119 C16.4513678,10.8820364 16.2423608,10.9441343 15.9392559,10.9441343 L13.4353119,10.9441343 L13.4353119,17.3197427 C13.4353119,17.5997986 13.3703049,17.8045538 13.2399552,17.9336727 C13.1099413,18.0629035 12.8879552,18.1274629 12.5734378,18.1274629 L10.9962629,18.1274629 C10.6817455,18.1274629 10.4597594,18.0629035 10.3297455,17.9336727 C10.1997315,17.8045538 10.1347245,17.5997986 10.1347245,17.3197427" id="Fill-14"></path>
            </g>
        </g>
    </g>
</svg>